<?xml version="1.0" standalone="no"?>
<!DOCTYPE svg PUBLIC "-//W3C//DTD SVG 1.1//EN" "http://www.w3.org/Graphics/SVG/1.1/DTD/svg11.dtd" >
<svg xmlns="http://www.w3.org/2000/svg" xmlns:xlink="http://www.w3.org/1999/xlink" version="1.1">
<metadata>
Created by FontForge 20201107 at Mon Jan 16 18:14:00 2017
 By 
Copyright 2016 by Botio Nikoltchev. All rights reserved.
</metadata>
<defs>
<font id="RopaMixSCPTT-ExtraBold" horiz-adv-x="560" >
  <font-face 
    font-family="RopaMixSCPTT-ExtraBold"
    font-weight="400"
    font-stretch="normal"
    units-per-em="1000"
    panose-1="2 11 9 4 2 1 1 1 1 2"
    ascent="867"
    descent="-133"
    x-height="511"
    cap-height="655"
    bbox="-449 -357 1252 920"
    underline-thickness="50"
    underline-position="-100"
    unicode-range="U+0020-FEFF"
  />
<missing-glyph horiz-adv-x="452" 
d="M410 655v-655h-368v655h368zM295 540h-138v-425h138v425z" />
    <glyph glyph-name=".notdef" horiz-adv-x="452" 
d="M410 655v-655h-368v655h368zM295 540h-138v-425h138v425z" />
    <glyph glyph-name=".null" horiz-adv-x="0" 
 />
    <glyph glyph-name="nonmarkingreturn" horiz-adv-x="166" 
 />
    <glyph glyph-name="space" unicode=" " horiz-adv-x="166" 
 />
    <glyph glyph-name="exclam" unicode="!" horiz-adv-x="211" 
d="M148 695q31 0 31 -31l-7 -464h-102q-31 0 -31 31l-7 464h116zM105 152q80 0 80 -70v-25q0 -33 -20.5 -51t-59.5 -18t-59 18t-20 51v25q0 70 79 70z" />
    <glyph glyph-name="quotedbl" unicode="&#x22;" horiz-adv-x="376" 
d="M314 683q31 0 31 -31v-251h-106q-30 0 -30 30v252h105zM137 683q30 0 30 -31v-251h-105q-31 0 -31 30v252h106z" />
    <glyph glyph-name="numbersign" unicode="#" horiz-adv-x="577" 
d="M470 503h69v-89q0 -31 -31 -31h-38v-153h38q31 0 31 -31v-89h-69v-110h-104q-31 0 -31 31v79h-93v-79q0 -31 -30 -31h-105v110h-69v89q0 31 31 31h38v153h-38q-31 0 -31 31v89h69v110h105q30 0 30 -31v-79h93v79q0 31 31 31h104v-110zM242 383v-153h93v153h-93z" />
    <glyph glyph-name="dollar" unicode="$" horiz-adv-x="431" 
d="M290 609q17 -1 43.5 -4t50.5 -8l-1 -91q0 -28 -25 -28q-6 0 -9 1q-29 5 -60 8t-52 3q-43 0 -60.5 -14t-17.5 -39v-11q0 -21 9 -32.5t36 -19.5l56 -16q44 -13 73.5 -28t47 -36t24.5 -48.5t7 -66.5v-14q0 -66 -27.5 -108t-94.5 -58v-92h-128v82q-26 2 -55 6.5t-65 11.5
l1 92q0 28 25 28q6 0 10 -1q37 -8 66 -11.5t49 -3.5q48 0 65 13t17 39v17q0 18 -10.5 29t-43.5 21l-56 17q-41 12 -68 27.5t-43.5 36.5t-23.5 50t-7 69v8q0 68 32 111t107 57v89h128v-86z" />
    <glyph glyph-name="percent" unicode="%" horiz-adv-x="883" 
d="M646 613q27 0 27 -20q0 -6 -5 -16l-316 -577h-109q-26 0 -26 19q0 9 5 17l314 577h110zM198 625q84 0 127 -43t43 -127v-27q0 -82 -42.5 -126t-127.5 -44q-82 0 -126 42.5t-44 127.5v27q0 84 43.5 127t126.5 43zM198 508q-18 0 -28 -11.5t-10 -37.5v-36q0 -26 9.5 -37
t28.5 -11q38 0 38 48v36q0 27 -9.5 38t-28.5 11zM690 355q85 0 127.5 -43t42.5 -127v-27q0 -82 -42 -126t-128 -44q-82 0 -126 42.5t-44 127.5v27q0 84 43.5 127t126.5 43zM690 238q-18 0 -28 -11t-10 -37v-36q0 -26 10 -37.5t28 -11.5q38 0 38 49v36q0 26 -9.5 37t-28.5 11
z" />
    <glyph glyph-name="ampersand" unicode="&#x26;" horiz-adv-x="512" 
d="M231 667q30 0 61.5 -3t67.5 -8l-1 -86q0 -29 -25 -29q-5 0 -8 1q-19 3 -38 5t-37 2q-42 0 -60.5 -17t-18.5 -51v-15q0 -35 20.5 -54.5t59.5 -19.5h68v24q0 30 30 30h100v-54h56v-88q0 -31 -29 -31h-27v-257q-62 -15 -108.5 -21.5t-92.5 -6.5q-64 0 -108.5 12t-72.5 35.5
t-40.5 57t-12.5 75.5v22q0 52 31 94t88 59q-50 20 -73.5 55.5t-23.5 83.5v17q0 36 13 66.5t38 53t61 35.5t82 13zM251 273q-52 0 -76 -19.5t-24 -54.5v-20q0 -70 101 -70q15 0 33 2t35 6v156h-69z" />
    <glyph glyph-name="quotesingle" unicode="'" horiz-adv-x="199" 
d="M137 683q30 0 30 -31v-251h-105q-31 0 -31 30v252h106z" />
    <glyph glyph-name="parenleft" unicode="(" horiz-adv-x="247" 
d="M267 707q0 -28 -30 -32q-36 -5 -47 -21t-11 -52v-551q0 -35 11 -50.5t47 -20.5q30 -4 30 -32v-84q-64 1 -107 12t-69.5 36t-37.5 65t-11 98v505q0 63 13.5 103.5t41 64.5t70 33.5t100.5 9.5v-84z" />
    <glyph glyph-name="parenright" unicode=")" horiz-adv-x="247" 
d="M-20 791q61 0 104 -11t70 -35.5t39 -64.5t12 -100v-505q0 -61 -12.5 -101.5t-40 -65t-70 -34.5t-102.5 -10v84q0 28 30 32q36 5 47 20.5t11 50.5v551q0 36 -11 52t-47 21q-30 4 -30 32v84z" />
    <glyph glyph-name="asterisk" unicode="*" horiz-adv-x="391" 
d="M225 695q28 0 28 -24q0 -6 -1 -10l-13 -67l88 51l29 -86q2 -5 2 -13q0 -21 -25 -24l-68 -10l74 -66l-76 -53q-11 -8 -19 -8q-15 0 -22 18l-27 55l-42 -89l-74 57q-14 11 -14 22q0 12 12 21l47 44l-100 13l29 86q6 21 23 21q9 0 17 -5l58 -33l-20 100h94z" />
    <glyph glyph-name="plus" unicode="+" horiz-adv-x="397" 
d="M232 488q31 0 31 -31v-104h93q30 0 30 -30v-90h-123v-135h-98q-31 0 -31 31v104h-93q-31 0 -31 31v89h124v135h98z" />
    <glyph glyph-name="comma" unicode="," horiz-adv-x="212" 
d="M106 152q79 0 79 -68v-28q0 -31 -7 -53l-53 -164h-67q-23 0 -23 19q0 6 1 9l33 128q-41 14 -41 63v26q0 32 19.5 50t58.5 18z" />
    <glyph glyph-name="hyphen" unicode="-" horiz-adv-x="308" 
d="M244 353q31 0 31 -31v-85h-211q-30 0 -30 31v85h210z" />
    <glyph glyph-name="period" unicode="." horiz-adv-x="215" 
d="M107 152q80 0 80 -70v-25q0 -33 -20.5 -51t-59.5 -18t-59.5 18t-20.5 51v25q0 70 80 70z" />
    <glyph glyph-name="slash" unicode="/" horiz-adv-x="312" 
d="M292 683q28 0 28 -23q0 -3 -2 -11l-195 -649h-103q-28 0 -28 23q0 3 2 11l195 649h103z" />
    <glyph glyph-name="zero" unicode="0" horiz-adv-x="459" 
d="M230 613q93 0 143.5 -50t50.5 -156v-211q0 -105 -49.5 -156.5t-144.5 -51.5t-145 51.5t-50 156.5v211q0 106 50.5 156t144.5 50zM230 492q-29 0 -43.5 -17t-14.5 -58v-232q0 -41 14.5 -58.5t43.5 -17.5t43.5 17.5t14.5 58.5v232q0 41 -14.5 58t-43.5 17z" />
    <glyph glyph-name="one" unicode="1" horiz-adv-x="315" 
d="M271 0h-106q-30 0 -30 31v427h-2l-79 -36q-10 -4 -14 -4q-18 0 -24 24l-19 89l171 70h103v-601z" />
    <glyph glyph-name="two" unicode="2" horiz-adv-x="393" 
d="M170 613q94 0 144.5 -44t50.5 -130v-20q0 -47 -19 -91.5t-68 -96.5l-101 -110h161q31 0 31 -31v-90h-367v75q0 22 13 38l176 213q20 26 27.5 44.5t7.5 44.5v12q0 31 -19 48t-56 17q-24 0 -51.5 -5.5t-50.5 -11.5q-8 -2 -11 -2q-23 0 -23 28v88q27 6 47.5 10.5t38.5 7.5
t34.5 4.5t34.5 1.5z" />
    <glyph glyph-name="three" unicode="3" horiz-adv-x="382" 
d="M164 613q86 0 135.5 -42t49.5 -114v-16q0 -42 -22.5 -77.5t-60.5 -51.5q41 -14 67.5 -52t26.5 -86v-11q0 -38 -13 -70t-38 -55.5t-61.5 -36.5t-82.5 -13q-29 0 -68 4t-79 10v86q0 29 26 29q2 0 3.5 -0.5t3.5 -0.5q29 -5 55.5 -7.5t45.5 -2.5q35 0 53.5 18t18.5 50v10
q0 35 -17.5 51t-52.5 16h-74q-31 0 -31 31v55q0 31 31 31h71q61 0 61 63v12q0 52 -63 52q-18 0 -44.5 -2.5t-53.5 -7.5q-2 0 -3.5 -0.5t-3.5 -0.5q-26 0 -26 29v85q48 8 82.5 11.5t63.5 3.5z" />
    <glyph glyph-name="four" unicode="4" horiz-adv-x="441" 
d="M378 232h57v-89q0 -31 -31 -31h-26l-1 -112h-104q-30 0 -30 31v81h-211q-30 0 -30 31v58l200 400h176v-369zM151 232h93v33l9 202z" />
    <glyph glyph-name="five" unicode="5" horiz-adv-x="426" 
d="M364 514q0 -31 -30 -31h-167v-130q18 18 48 29.5t62 11.5q61 0 95.5 -41t34.5 -138v-27q0 -100 -48 -150t-154 -50q-38 0 -79.5 6.5t-87.5 17.5v87q0 29 24 29q6 0 9 -1q16 -3 34.5 -6.5t36.5 -6t33 -4t24 -1.5q72 0 72 74v31q0 32 -12.5 46t-35.5 14q-20 0 -37.5 -7
t-35.5 -24q-9 -8 -17.5 -12t-19.5 -4h-82v377h333v-90z" />
    <glyph glyph-name="six" unicode="6" horiz-adv-x="445" 
d="M375 519q0 -29 -31 -31q-51 -3 -85 -11.5t-54 -21.5t-28 -32t-8 -43v-32q27 27 54 39.5t57 12.5q64 0 102 -44.5t38 -140.5v-34q0 -97 -50 -145t-145 -48t-144 51t-49 146v182q0 120 86.5 179.5t256.5 59.5v-87zM240 277q-32 0 -71 -41v-58q0 -36 14.5 -52.5t41.5 -16.5
q59 0 59 65v44q0 32 -11 45.5t-33 13.5z" />
    <glyph glyph-name="seven" unicode="7" horiz-adv-x="388" 
d="M384 515l-208 -515h-108q-26 0 -26 21q0 6 3 14l183 443v2h-194q-30 0 -30 30v90h380v-85z" />
    <glyph glyph-name="eight" unicode="8" horiz-adv-x="439" 
d="M220 613q86 0 133 -39t47 -116v-11q0 -36 -17.5 -70t-49.5 -50q42 -17 65.5 -54t23.5 -81v-21q0 -88 -51.5 -135.5t-150.5 -47.5q-100 0 -152 47.5t-52 135.5v21q0 43 24.5 80.5t66.5 54.5q-33 16 -50 50t-17 70v11q0 76 47 115.5t133 39.5zM220 268q-32 0 -49.5 -17.5
t-17.5 -48.5v-43q0 -26 17 -41.5t50 -15.5q32 0 49 16t17 41v43q0 31 -17.5 48.5t-48.5 17.5zM220 503q-48 0 -48 -48v-25q0 -26 11 -37.5t37 -11.5t36.5 11.5t10.5 37.5v25q0 26 -12 37t-35 11z" />
    <glyph glyph-name="nine" unicode="9" horiz-adv-x="447" 
d="M220 612q91 0 142.5 -48.5t51.5 -148.5v-204q0 -116 -52 -169.5t-160 -53.5q-68 0 -141 14v88q0 28 24 28q5 0 8 -1q26 -5 53.5 -7t41.5 -2q89 0 89 88v56q-52 -52 -113 -52q-63 0 -101 44.5t-38 140.5v34q0 97 50 145t145 48zM220 491q-59 0 -59 -65v-44q0 -32 11 -45.5
t33 -13.5q17 0 34.5 10.5t37.5 30.5v58q0 36 -14.5 52.5t-42.5 16.5z" />
    <glyph glyph-name="colon" unicode=":" horiz-adv-x="215" 
d="M107 481q80 0 80 -70v-26q0 -33 -20.5 -51t-59.5 -18t-59.5 18t-20.5 51v26q0 70 80 70zM107 152q80 0 80 -70v-25q0 -33 -20.5 -51t-59.5 -18t-59.5 18t-20.5 51v25q0 70 80 70z" />
    <glyph glyph-name="semicolon" unicode=";" horiz-adv-x="214" 
d="M106 152q79 0 79 -68v-28q0 -31 -7 -53l-53 -164h-67q-23 0 -23 19q0 6 1 9l33 128q-41 14 -41 63v26q0 32 19.5 50t58.5 18zM107 480q80 0 80 -70v-25q0 -33 -20.5 -51t-59.5 -18t-59.5 18t-20.5 51v25q0 70 80 70z" />
    <glyph glyph-name="less" unicode="&#x3c;" horiz-adv-x="418" 
d="M399 398q0 -26 -24 -36l-175 -72l175 -73q24 -11 24 -36v-112l-381 169v104l381 168v-112z" />
    <glyph glyph-name="equal" unicode="=" horiz-adv-x="427" 
d="M370 449q30 0 30 -30v-89h-343q-31 0 -31 30v89h344zM370 271q30 0 30 -30v-89h-343q-31 0 -31 30v89h344z" />
    <glyph glyph-name="greater" unicode="&#x3e;" horiz-adv-x="418" 
d="M399 342v-104l-381 -169v112q0 25 24 36l176 73l-176 72q-24 10 -24 36v112z" />
    <glyph glyph-name="question" unicode="?" horiz-adv-x="382" 
d="M166 695q101 0 145.5 -38t44.5 -116v-15q0 -45 -16.5 -83.5t-57.5 -82.5l-33 -36q-14 -14 -18.5 -25.5t-4.5 -34.5v-57h-103q-30 0 -30 30v20q0 25 1 42t5 30.5t12.5 26t22.5 28.5l53 59q21 23 26.5 38.5t5.5 38.5v10q0 24 -15 35.5t-56 11.5q-19 0 -47.5 -5t-54.5 -11
q-4 -1 -10 -1q-23 0 -23 28v86q45 11 82 16t71 5zM160 152q39 0 60 -18t21 -52v-25q0 -33 -21 -51t-60 -18q-38 0 -58.5 18t-20.5 51v25q0 70 79 70z" />
    <glyph glyph-name="at" unicode="@" horiz-adv-x="909" 
d="M447 695q217 0 321.5 -91t104.5 -271v-55q0 -62 -16.5 -111.5t-47.5 -84t-75 -52.5t-99 -18q-50 0 -87 19.5t-54 58.5q-32 -35 -66.5 -56.5t-66.5 -21.5q-54 0 -86 35.5t-32 104.5q0 19 3 40l15 122q11 88 50 130.5t96 42.5q36 0 63.5 -14.5t47.5 -34.5l2 10q3 26 31 26
h99l-36 -267q-1 -8 -1.5 -14.5t-0.5 -12.5q0 -26 8 -35t25 -9q18 0 34 10.5t29 29.5t20.5 46.5t7.5 62.5v48q0 61 -16 106t-51 74t-89.5 43t-132.5 14q-135 0 -205 -69.5t-70 -193.5v-134q0 -62 13 -106t42.5 -72t76 -41.5t112.5 -13.5h146q31 0 31 -31v-94h-177
q-197 0 -288.5 87t-91.5 271v134q0 90 26 161.5t77.5 122t128.5 77.5t179 27zM444 362q-17 0 -30.5 -15t-18.5 -51l-13 -100q-1 -6 -1.5 -11.5t-0.5 -10.5q0 -20 7.5 -28.5t21.5 -8.5t30.5 10t34.5 33l20 156q-24 26 -50 26z" />
    <glyph glyph-name="A" unicode="A" horiz-adv-x="539" 
d="M542 0h-123q-27 0 -33 27l-24 101h-188l-24 -101q-6 -27 -34 -27h-119l190 655h165zM199 246h138l-69 295z" />
    <glyph glyph-name="B" unicode="B" horiz-adv-x="503" 
d="M234 666q57 0 100 -12.5t71.5 -34.5t43 -52t14.5 -64v-16q0 -49 -25 -86.5t-78 -57.5q60 -11 93.5 -50.5t33.5 -98.5v-18q0 -41 -13.5 -75.5t-43.5 -59.5t-77 -39t-114 -14q-42 0 -85.5 0.5t-109.5 4.5v668q19 1 44.5 1.5t52 1.5t51 1.5t42.5 0.5zM185 272v-157
q20 -2 30.5 -2h26.5q57 0 80.5 20t23.5 53v17q0 32 -23 50.5t-76 18.5h-62zM229 544h-20.5t-23.5 -2v-151h57q40 0 60 20t20 54v14q0 32 -21 48.5t-72 16.5z" />
    <glyph glyph-name="C" unicode="C" horiz-adv-x="454" 
d="M264 -12q-63 0 -106 13.5t-69.5 40t-38 66.5t-11.5 94v251q0 54 12 94.5t39 67t70 39.5t105 13q31 0 67 -4t94 -14l-2 -95q0 -29 -25 -29q-6 0 -9 1q-25 5 -51.5 9t-53.5 4q-31 0 -51.5 -5t-32.5 -16.5t-16.5 -31t-4.5 -48.5v-220q0 -29 5 -48t17.5 -30.5t32.5 -16.5
t50 -5q27 0 53 5l52 10q3 1 9 1q24 0 24 -28l1 -99q-51 -10 -89 -14.5t-71 -4.5z" />
    <glyph glyph-name="D" unicode="D" horiz-adv-x="534" 
d="M242 666q127 0 192.5 -70t65.5 -197v-151q0 -122 -65 -191t-204 -69q-46 0 -95.5 2t-91.5 5v666q42 2 94 3.5t104 1.5zM238 540h-27t-26 -1v-422q33 -3 53 -3q58 0 89.5 32.5t31.5 95.5v162q0 72 -31.5 104t-89.5 32z" />
    <glyph glyph-name="E" unicode="E" horiz-adv-x="455" 
d="M421 555q0 -30 -30 -30h-206v-128h186q30 0 30 -30v-68q0 -31 -30 -31h-186v-138h206q30 0 30 -30v-100h-377v655h377v-100z" />
    <glyph glyph-name="F" unicode="F" horiz-adv-x="444" 
d="M421 555q0 -30 -30 -30h-206v-128h142q30 0 30 -30v-99h-172v-237q0 -31 -31 -31h-110v655h377v-100z" />
    <glyph glyph-name="G" unicode="G" horiz-adv-x="522" 
d="M265 667q33 0 82 -5t109 -16l-1 -95q-2 -28 -25 -28q-5 0 -8 1q-35 6 -77 11t-73 5q-51 0 -71.5 -19.5t-20.5 -65.5v-252q0 -47 20 -67t67 -20q16 0 35 1.5t43 5.5v147h-55q-30 0 -30 31v95h220v-365q-127 -43 -219 -43q-62 0 -104 13.5t-68.5 40t-38 66.5t-11.5 94v251
q0 110 51.5 162t174.5 52z" />
    <glyph glyph-name="H" unicode="H" horiz-adv-x="543" 
d="M499 0h-111q-30 0 -30 31v241h-173v-241q0 -31 -31 -31h-110v655h110q31 0 31 -31v-223h173v223q0 31 30 31h111v-655z" />
    <glyph glyph-name="I" unicode="I" horiz-adv-x="229" 
d="M154 655q31 0 31 -31v-624h-141v655h110z" />
    <glyph glyph-name="J" unicode="J" horiz-adv-x="311" 
d="M236 655q31 0 31 -31v-441q0 -100 -43 -147.5t-129 -47.5q-14 0 -38 2t-59 11v89q0 29 26 29q2 0 3.5 -0.5t3.5 -0.5q11 -2 23 -3t23 -1q25 0 37 14t12 49v478h110z" />
    <glyph glyph-name="K" unicode="K" horiz-adv-x="538" 
d="M296 334l248 -334h-144q-24 0 -38 19l-177 251v-239q0 -31 -31 -31h-110v655h110q31 0 31 -31v-250l179 261q14 20 38 20h123z" />
    <glyph glyph-name="L" unicode="L" horiz-adv-x="437" 
d="M154 655q31 0 31 -31v-495h209q30 0 30 -30v-99h-380v655h110z" />
    <glyph glyph-name="M" unicode="M" horiz-adv-x="668" 
d="M525 0q-30 0 -31 31l-6 373l-76 -303q-6 -26 -33 -26h-91q-27 0 -33 26l-76 303l-5 -373q-1 -31 -31 -31h-103l6 655h146q27 0 34 -26l109 -411l109 410q7 27 33 27h144l7 -655h-103z" />
    <glyph glyph-name="N" unicode="N" horiz-adv-x="545" 
d="M44 655h154q26 0 35 -25l132 -382v376q0 31 31 31h105v-655h-147q-28 0 -38 27l-137 380v-376q0 -31 -30 -31h-105v655z" />
    <glyph glyph-name="O" unicode="O" horiz-adv-x="538" 
d="M269 667q118 0 174 -58t56 -167v-229q0 -106 -55 -165.5t-175 -59.5q-121 0 -175.5 59.5t-54.5 165.5v229q0 109 55 167t175 58zM269 539q-89 0 -89 -88v-245q0 -90 89 -90t89 90v244q0 89 -89 89z" />
    <glyph glyph-name="P" unicode="P" horiz-adv-x="492" 
d="M232 666q125 1 184.5 -52.5t59.5 -142.5v-21q0 -97 -57.5 -152.5t-170.5 -55.5q-12 0 -27.5 1t-35.5 4v-216q0 -31 -31 -31h-110v660q50 3 99.5 4.5t88.5 1.5zM233 543h-26.5t-21.5 -2v-169q17 -2 29 -3t23 -1q98 0 98 86v14q0 35 -24 55t-78 20z" />
    <glyph glyph-name="Q" unicode="Q" horiz-adv-x="538" 
d="M269 667q118 0 174 -58t56 -167v-229q0 -66 -22 -107.5t-68 -66.5l88 -18q26 -5 26 -35v-87l-268 91q-3 -1 -9 -1q-110 7 -158.5 65t-48.5 159v229q0 109 55 167t175 58zM269 539q-89 0 -89 -88v-247q0 -90 89 -90t89 90v246q0 89 -89 89z" />
    <glyph glyph-name="R" unicode="R" horiz-adv-x="523" 
d="M233 666q127 0 183.5 -51t56.5 -138v-22q0 -51 -25.5 -94.5t-76.5 -69.5l157 -291h-128q-28 0 -39 23l-120 228q-4 0 -9 -0.5t-11 -0.5q-8 0 -17.5 0.5t-18.5 1.5v-221q0 -31 -31 -31h-110v661q71 2 117.5 3.5t71.5 1.5zM235 542q-9 0 -24 -0.5t-26 -2.5v-163
q16 -2 27 -2.5t22 -0.5q53 0 75.5 21.5t22.5 59.5v14q0 36 -22.5 55t-74.5 19z" />
    <glyph glyph-name="S" unicode="S" horiz-adv-x="458" 
d="M236 667q29 0 67 -4t95 -13l-2 -97q-2 -30 -27 -30q-6 0 -9 1q-32 6 -64.5 10.5t-56.5 4.5q-39 0 -55.5 -15t-16.5 -42v-17q0 -21 10 -32.5t42 -22.5l85 -28q36 -12 61.5 -27.5t41.5 -37t23 -51t7 -68.5v-19q0 -93 -53 -142t-176 -49q-29 0 -69 5t-99 18l2 100
q0 28 22 28q3 0 11 -2q34 -8 68.5 -13.5t60.5 -5.5q51 0 71.5 16t20.5 43v22q0 22 -9.5 34t-32.5 20l-93 31q-38 13 -64 28.5t-41.5 36.5t-22.5 50t-7 68v10q0 92 49.5 141t160.5 49z" />
    <glyph glyph-name="T" unicode="T" horiz-adv-x="520" 
d="M504 555q0 -30 -31 -30h-142v-494q0 -31 -31 -31h-111v525h-142q-31 0 -31 30v100h488v-100z" />
    <glyph glyph-name="U" unicode="U" horiz-adv-x="539" 
d="M495 214q0 -106 -54 -166t-172 -60q-116 0 -170.5 59t-54.5 166v442h110q31 0 31 -31v-418q0 -45 21.5 -67.5t62.5 -22.5q85 0 85 90v418q0 31 30 31h111v-441z" />
    <glyph glyph-name="V" unicode="V" horiz-adv-x="543" 
d="M353 0h-164l-185 655h121q28 0 34 -27l112 -506l113 506q6 27 34 27h121z" />
    <glyph glyph-name="W" unicode="W" horiz-adv-x="822" 
d="M676 0h-140q-28 0 -32 28l-92 479l-92 -479q-4 -28 -32 -28h-142l-136 655h119q29 0 33 -28l74 -485l92 485q4 28 32 28h101q29 0 33 -28l93 -483l73 483q4 28 33 28h120z" />
    <glyph glyph-name="X" unicode="X" horiz-adv-x="539" 
d="M351 335l191 -335h-141q-26 0 -36 23l-97 198l-98 -198q-10 -23 -36 -23h-137l192 335l-182 320h140q23 0 35 -23l90 -183l90 183q10 23 35 23h136z" />
    <glyph glyph-name="Y" unicode="Y" horiz-adv-x="526" 
d="M334 227v-196q0 -31 -31 -31h-110v227l-189 428h131q27 0 36 -25l93 -271l94 271q9 25 36 25h128z" />
    <glyph glyph-name="Z" unicode="Z" horiz-adv-x="474" 
d="M446 568q0 -20 -11 -38l-243 -401h224q30 0 30 -31v-98h-425v86q0 20 11 38l244 402h-217q-30 0 -30 31v98h417v-87z" />
    <glyph glyph-name="bracketleft" unicode="[" horiz-adv-x="263" 
d="M285 708q0 -31 -31 -31h-75v-699h75q31 0 31 -31v-82h-243v924h243v-81z" />
    <glyph glyph-name="backslash" unicode="\" horiz-adv-x="312" 
d="M-6 649q-2 8 -2 11q0 23 28 23h103l195 -649q2 -8 2 -11q0 -23 -28 -23h-103z" />
    <glyph glyph-name="bracketright" unicode="]" horiz-adv-x="263" 
d="M-22 -53q0 31 31 31h75v699h-75q-31 0 -31 31v82h243v-925h-243v82z" />
    <glyph glyph-name="asciicircum" unicode="^" horiz-adv-x="489" 
d="M455 378h-117q-26 0 -35 24l-59 149l-59 -149q-9 -24 -35 -24h-116l151 305h119z" />
    <glyph glyph-name="underscore" unicode="_" horiz-adv-x="569" 
d="M505 -70q30 0 30 -31v-84h-471q-30 0 -30 31v84h471z" />
    <glyph glyph-name="grave" unicode="`" horiz-adv-x="253" 
d="M132 699q18 0 30 -18l73 -135h-89q-18 0 -31 16l-102 137h119z" />
    <glyph glyph-name="a" unicode="a" horiz-adv-x="454" 
d="M457 0h-112q-25 0 -31 25l-16 69h-145l-16 -69q-6 -25 -32 -25h-108l155 511h150zM174 197h101l-49 215z" />
    <glyph glyph-name="b" unicode="b" horiz-adv-x="436" 
d="M210 522q47 0 82 -9.5t58.5 -26.5t35 -40t11.5 -49v-16q0 -40 -19.5 -69.5t-63.5 -42.5q49 -10 76 -41t27 -79v-12q0 -68 -49 -108.5t-159 -40.5h-41.5t-37 1t-39 1.5t-47.5 2.5v524q45 2 88 3.5t78 1.5zM173 208v-108q12 -2 21 -2h20q41 0 57.5 13.5t16.5 36.5v12
q0 23 -15.5 35.5t-52.5 12.5h-47zM206 414q-6 0 -13.5 -0.5t-19.5 -1.5v-103h41q28 0 41.5 13t13.5 35v13q0 21 -15 32.5t-48 11.5z" />
    <glyph glyph-name="c" unicode="c" horiz-adv-x="394" 
d="M228 523q29 0 61.5 -3.5t75.5 -11.5v-84q0 -26 -24 -26q-6 0 -9 1q-20 4 -42.5 7t-40.5 3q-48 0 -64.5 -16.5t-16.5 -59.5v-154q0 -22 4 -36.5t13 -23t25 -12t40 -3.5q19 0 40.5 3t41.5 7q3 1 9 1q23 0 23 -26l1 -85q-45 -8 -76.5 -12t-59.5 -4q-103 0 -146.5 42.5
t-43.5 131.5v187q0 91 43.5 132.5t145.5 41.5z" />
    <glyph glyph-name="d" unicode="d" horiz-adv-x="462" 
d="M210 522q104 0 161 -55.5t57 -160.5v-106q0 -102 -57 -157t-170 -55q-38 0 -76.5 1t-80.5 4v524q51 2 89.5 3.5t76.5 1.5zM208 410q-8 0 -17.5 -0.5t-18.5 -1.5v-305q11 -2 19.5 -2h16.5q44 0 67.5 23t23.5 68v111q0 61 -22 84t-69 23z" />
    <glyph glyph-name="e" unicode="e" horiz-adv-x="398" 
d="M365 424q0 -29 -29 -29h-163v-81h146q29 0 29 -29v-55q0 -29 -29 -29h-146v-85h163q29 0 29 -29v-87h-321v511h321v-87z" />
    <glyph glyph-name="f" unicode="f" horiz-adv-x="387" 
d="M365 424q0 -29 -29 -29h-163v-81h108q29 0 29 -29v-83h-137v-173q0 -29 -29 -29h-100v511h321v-87z" />
    <glyph glyph-name="g" unicode="g" horiz-adv-x="453" 
d="M229 -12q-52 0 -88 10.5t-58.5 31.5t-33 53t-10.5 76v194q0 87 43 128.5t147 41.5q37 0 73 -4.5t87 -12.5v-81q0 -27 -24 -27q-2 0 -3.5 0.5t-3.5 0.5q-29 5 -64 8.5t-59 3.5q-38 0 -52.5 -13t-14.5 -42v-200q0 -28 14.5 -41t46.5 -13q10 0 23.5 1t29.5 3v103h-28
q-25 0 -25 28v72h153q29 0 29 -28v-264q-54 -15 -98 -22t-84 -7z" />
    <glyph glyph-name="h" unicode="h" horiz-adv-x="470" 
d="M427 0h-101q-29 0 -29 29v175h-124v-175q0 -29 -29 -29h-100v511h100q29 0 29 -29v-163h124v163q0 29 29 29h101v-511z" />
    <glyph glyph-name="i" unicode="i" horiz-adv-x="216" 
d="M144 511q29 0 29 -29v-482h-129v511h100z" />
    <glyph glyph-name="j" unicode="j" horiz-adv-x="277" 
d="M205 511q28 0 28 -29v-329q0 -87 -36.5 -126t-109.5 -39q-47 0 -89 11v80q0 26 22 26q2 0 3.5 -0.5t3.5 -0.5q8 -2 18.5 -2.5t19.5 -0.5q21 0 30 10.5t9 38.5v361h101z" />
    <glyph glyph-name="k" unicode="k" horiz-adv-x="464" 
d="M280 264l190 -264h-130q-23 0 -35 18l-132 187v-176q0 -29 -29 -29h-100v511h100q29 0 29 -29v-184l135 195q12 18 34 18h113z" />
    <glyph glyph-name="l" unicode="l" horiz-adv-x="380" 
d="M144 511q29 0 29 -29v-366h166q29 0 29 -29v-87h-324v511h100z" />
    <glyph glyph-name="m" unicode="m" horiz-adv-x="577" 
d="M537 0h-97q-28 0 -30 29l-4 268l-55 -212q-6 -24 -31 -24h-65q-25 0 -31 24l-56 211l-4 -267q0 -29 -29 -29h-95l4 511h128q25 0 32 -25l85 -306l85 306q6 25 32 25h126z" />
    <glyph glyph-name="n" unicode="n" horiz-adv-x="471" 
d="M428 0h-119q-24 0 -33 22l-108 268v-261q0 -29 -29 -29h-95v511h125q23 0 32 -23l104 -263v257q0 29 28 29h95v-511z" />
    <glyph glyph-name="o" unicode="o" horiz-adv-x="464" 
d="M232 523q97 0 145.5 -46.5t48.5 -137.5v-167q0 -89 -47 -136.5t-147 -47.5t-146.5 47.5t-46.5 136.5v167q0 91 48 137.5t145 46.5zM232 409q-32 0 -48 -16t-16 -45v-181q0 -31 16 -48t48 -17t48.5 16.5t16.5 45.5v180q0 65 -65 65z" />
    <glyph glyph-name="p" unicode="p" horiz-adv-x="425" 
d="M203 522q105 0 155 -42.5t50 -115.5v-19q0 -79 -46.5 -122t-132.5 -43q-10 0 -25.5 1t-30.5 4v-156q0 -29 -29 -29h-100v517q53 2 88.5 3.5t70.5 1.5zM206 412h-18t-15 -1v-119q10 -2 19.5 -2.5t16.5 -0.5q36 0 53 15.5t17 44.5v10q0 25 -18 39t-55 14z" />
    <glyph glyph-name="q" unicode="q" horiz-adv-x="464" 
d="M232 523q97 0 145.5 -46.5t48.5 -137.5v-167q0 -55 -19 -90t-59 -58l51 -10q15 -2 20.5 -9t5.5 -21l1 -64l-202 68h-8q-94 8 -135.5 55t-41.5 129v167q0 91 48 137.5t145 46.5zM232 409q-32 0 -48 -16t-16 -45v-183q0 -31 16 -48t48 -17t48.5 16.5t16.5 45.5v182
q0 65 -65 65z" />
    <glyph glyph-name="r" unicode="r" horiz-adv-x="451" 
d="M204 522q105 0 153.5 -40.5t48.5 -109.5v-13q0 -43 -21.5 -79t-60.5 -56l132 -224h-120q-24 0 -34 20l-97 173h-17t-15 1v-165q0 -29 -29 -29h-100v517q44 2 83 3.5t77 1.5zM209 412q-8 0 -18 -0.5t-18 -1.5v-110q9 -2 18 -2h17q36 0 52.5 14.5t16.5 39.5v10q0 50 -68 50
z" />
    <glyph glyph-name="s" unicode="s" horiz-adv-x="390" 
d="M201 523q31 0 65 -3t70 -10l-1 -86q0 -27 -22 -27q-6 0 -9 1q-28 5 -54.5 8t-44.5 3q-29 0 -40.5 -9.5t-11.5 -26.5v-11q0 -14 7.5 -22t29.5 -14l69 -22q31 -10 52.5 -22.5t35 -29.5t19.5 -40t6 -54v-18q0 -74 -43.5 -113t-142.5 -39q-26 0 -67 5t-81 14l1 87q0 26 23 26
q5 0 8 -1q29 -6 56.5 -10.5t47.5 -4.5q39 0 53.5 10t14.5 28v14q0 14 -6.5 22.5t-25.5 14.5l-71 22q-32 10 -54 23t-35.5 30t-19.5 40t-6 53v10q0 73 41.5 112.5t135.5 39.5z" />
    <glyph glyph-name="t" unicode="t" horiz-adv-x="441" 
d="M425 424q0 -29 -29 -29h-111v-366q0 -29 -28 -29h-100v395h-112q-29 0 -29 29v87h409v-87z" />
    <glyph glyph-name="u" unicode="u" horiz-adv-x="468" 
d="M424 169q0 -87 -46.5 -134t-143.5 -47t-143.5 47t-46.5 134v342h100q29 0 29 -29v-317q0 -31 16 -47t45 -16t44.5 16.5t15.5 46.5v317q0 29 29 29h101v-342z" />
    <glyph glyph-name="v" unicode="v" horiz-adv-x="464" 
d="M306 0h-147l-155 511h110q27 0 31 -25l87 -380l86 380q6 25 32 25h110z" />
    <glyph glyph-name="w" unicode="w" horiz-adv-x="690" 
d="M570 0h-124q-27 0 -31 26l-70 356l-69 -356q-4 -26 -31 -26h-125l-110 511h108q27 0 30 -26l52 -361l70 361q4 26 32 26h85q28 0 32 -26l71 -359l51 359q5 26 30 26h109z" />
    <glyph glyph-name="x" unicode="x" horiz-adv-x="451" 
d="M297 261l157 -261h-125q-25 0 -33 21l-70 140l-70 -140q-11 -21 -34 -21h-125l157 261l-149 250h124q24 0 34 -22l63 -129l64 129q8 22 33 22h123z" />
    <glyph glyph-name="y" unicode="y" horiz-adv-x="451" 
d="M290 177v-148q0 -29 -28 -29h-101v177l-157 334h119q26 0 33 -24l70 -197l71 197q7 24 33 24h117z" />
    <glyph glyph-name="z" unicode="z" horiz-adv-x="408" 
d="M380 434q0 -20 -11 -35l-189 -283h171q29 0 29 -29v-87h-359v76q0 20 11 35l191 284h-167q-28 0 -28 29v87h352v-77z" />
    <glyph glyph-name="braceleft" unicode="{" horiz-adv-x="290" 
d="M310 707q0 -28 -31 -31q-35 -4 -46 -19.5t-11 -51.5v-171q0 -43 -19 -70.5t-56 -35.5q36 -8 55.5 -35.5t19.5 -71.5v-171q0 -37 11.5 -52.5t45.5 -18.5q31 -3 31 -31v-83q-60 -1 -102.5 8.5t-70 33t-40 63.5t-12.5 101v154q0 23 -8 33t-28 10h-44v120h44q20 0 28 10t8 32
v154q0 60 12 100t39 63.5t70 33t104 9.5v-83z" />
    <glyph glyph-name="bar" unicode="|" horiz-adv-x="221" 
d="M148 807q31 0 31 -30v-930h-106q-31 0 -31 31v929h106z" />
    <glyph glyph-name="braceright" unicode="}" horiz-adv-x="290" 
d="M-20 790q64 1 107 -9.5t69.5 -35t37.5 -64.5t11 -97v-154q0 -23 8.5 -32.5t27.5 -9.5h44v-120h-44q-36 0 -36 -43v-154q0 -61 -12.5 -101t-40 -64t-70 -33t-102.5 -8v83q0 28 31 31q35 3 46.5 18.5t11.5 52.5v171q0 44 19 71.5t55 35.5q-36 8 -55 35.5t-19 70.5v171
q0 36 -11.5 51.5t-46.5 19.5q-31 3 -31 31v83z" />
    <glyph glyph-name="asciitilde" unicode="~" horiz-adv-x="418" 
d="M140 368q23 0 39.5 -4t32 -8.5t31.5 -8.5t38 -4q18 0 40 5.5t40 11.5q7 3 13 3q22 0 22 -27v-83q-34 -17 -61.5 -25t-56.5 -8q-23 0 -40 4t-32 9t-31 9t-38 4q-18 0 -40 -5.5t-40 -12.5q-8 -3 -13 -3q-23 0 -23 27v84q39 17 64.5 24.5t54.5 7.5z" />
    <glyph glyph-name="uni00A0" unicode="&#xa0;" horiz-adv-x="166" 
 />
    <glyph glyph-name="exclamdown" unicode="&#xa1;" horiz-adv-x="211" 
d="M32 -185l7 464q0 31 31 31h102l7 -464q0 -31 -31 -31h-116zM105 358q-79 0 -79 70v25q0 33 20 51t59 18t59.5 -18t20.5 -51v-25q0 -70 -80 -70z" />
    <glyph glyph-name="cent" unicode="&#xa2;" horiz-adv-x="367" 
d="M275 496q15 -2 31 -3.5t36 -5.5l-1 -89q0 -27 -25 -27q-2 0 -4 0.5t-4 0.5q-17 2 -33 3.5t-30 1.5q-44 0 -61 -17.5t-17 -60.5v-111q0 -43 18 -59.5t60 -16.5q25 0 61 6q3 1 9 1q24 0 26 -28l2 -90q-25 -5 -39.5 -7t-28.5 -3v-79h-127v86q-60 16 -88.5 61t-28.5 119v132
q0 73 28.5 118.5t88.5 61.5v86h127v-80z" />
    <glyph glyph-name="sterling" unicode="&#xa3;" horiz-adv-x="415" 
d="M248 613q30 0 59.5 -4.5t64.5 -13.5v-83q0 -28 -24 -28q-6 0 -9 1q-17 4 -33 6t-26 2q-42 0 -58 -14.5t-16 -48.5v-45h53q30 0 30 -30v-84h-83v-53q0 -62 -37 -95h212q31 0 31 -30v-93h-377v71q0 13 3 21.5t10 18.5q12 17 17 37t5 49v74h-28q-30 0 -30 31v83h58v57
q0 171 178 171z" />
    <glyph glyph-name="currency" unicode="&#xa4;" horiz-adv-x="489" 
d="M324 130q-36 -15 -81 -15q-47 0 -79 14l-39 -39q-10 -11 -22 -11q-11 0 -21 11l-69 69l61 60q-16 33 -16 76v18q0 21 3 37.5t9 33.5l-57 57l69 69q10 10 21 10q12 0 22 -10l33 -33q35 16 85 16q49 0 86 -17l34 34q10 11 22 11q11 0 21 -10l70 -70l-60 -60q10 -29 10 -68
v-18q0 -22 -2.5 -39.5t-10.5 -34.5l63 -62l-70 -70q-11 -11 -21 -11q-11 0 -22 11zM243 237q26 0 38 15t12 41v22q0 26 -12 41t-38 15t-38.5 -15t-12.5 -41v-22q0 -26 12.5 -41t38.5 -15z" />
    <glyph glyph-name="yen" unicode="&#xa5;" horiz-adv-x="467" 
d="M163 70h-58q-30 0 -30 31v62h88v32h-58q-30 0 -30 30v62h57l-158 314h131q28 0 35 -25l94 -270l95 270q7 25 35 25h129l-159 -314h27q31 0 31 -31v-61h-88v-32h57q31 0 31 -31v-62h-88v-39q0 -31 -31 -31h-110v70z" />
    <glyph glyph-name="brokenbar" unicode="&#xa6;" horiz-adv-x="221" 
d="M73 395q-31 0 -31 30v382h106q31 0 31 -31v-381h-106zM73 -152q-31 0 -31 31v381h106q31 0 31 -31v-381h-106z" />
    <glyph glyph-name="section" unicode="&#xa7;" horiz-adv-x="420" 
d="M225 695q26 0 54 -3.5t67 -12.5l-1 -85q0 -27 -24 -27q-6 0 -10 1q-23 5 -42 7.5t-37 2.5q-29 0 -40.5 -9t-11.5 -26v-22q0 -13 6 -21t21 -16l108 -52q53 -25 74 -54.5t21 -69.5v-32q0 -38 -21.5 -69.5t-65.5 -48.5q26 -14 40.5 -40.5t14.5 -57.5v-33q-2 -70 -45.5 -108
t-142.5 -38q-29 0 -59.5 4t-70.5 14l1 88q0 28 24 28q3 0 11 -2q23 -6 45 -9t40 -3q33 0 46.5 8.5t13.5 25.5v19q0 17 -5.5 25.5t-20.5 15.5l-108 49q-51 22 -73.5 52t-22.5 75v29q0 41 23.5 73t65.5 47q-27 14 -41.5 42t-14.5 57v31q0 67 42 106t139 39zM216 345
q-37 -2 -53 -15.5t-16 -34.5v-18q0 -22 32 -35l29 -10q36 2 51 15.5t15 33.5v18q0 27 -32 37z" />
    <glyph glyph-name="dieresis" unicode="&#xa8;" horiz-adv-x="414" 
d="M309 712q36 0 55.5 -16.5t19.5 -48.5v-24q0 -30 -19.5 -47.5t-55.5 -17.5q-35 0 -54.5 17.5t-19.5 47.5v24q0 32 19.5 48.5t54.5 16.5zM103 712q75 0 75 -65v-24q0 -30 -19 -47.5t-56 -17.5q-34 0 -53.5 17.5t-19.5 47.5v24q0 32 19.5 48.5t53.5 16.5z" />
    <glyph glyph-name="copyright" unicode="&#xa9;" horiz-adv-x="604" 
d="M302 616q139 0 203 -58.5t64 -158.5v-195q0 -100 -64 -158.5t-203 -58.5q-69 0 -119.5 15t-83.5 43.5t-48.5 68.5t-15.5 90v195q0 50 15.5 90t48.5 68.5t83.5 43.5t119.5 15zM313 471q17 0 35.5 -1.5t46.5 -6.5l-1 -69q0 -32 -23 -29q-8 2 -16 2h-17q-17 0 -26.5 -10.5
t-9.5 -33.5v-37q0 -46 37 -46q6 0 10.5 0.5t12.5 1.5q15 2 24 -5.5t9 -23.5l1 -67q-46 -10 -83 -10q-60 0 -93 33.5t-33 111.5v46q0 75 33 109.5t93 34.5zM302 519q-84 0 -124 -31.5t-40 -85.5v-200q0 -54 40 -86t124 -32t124.5 32t40.5 86v201q0 54 -40.5 85t-124.5 31z
" />
    <glyph glyph-name="ordfeminine" unicode="&#xaa;" horiz-adv-x="439" 
d="M217 667q51 0 85.5 -9t55.5 -30t30 -56t9 -87v-259h-96q-30 0 -30 31v27q-24 -35 -55.5 -52.5t-63.5 -17.5q-53 0 -84.5 35t-31.5 103v15q0 60 38 95.5t114 35.5q14 0 34 -2.5t39 -6.5v19q0 27 -13 37t-48 10q-17 0 -43 -3t-53 -8q-2 0 -3.5 -0.5t-3.5 -0.5q-26 0 -26 29
v78q26 4 46 7t36.5 5.5t31.5 3.5t32 1zM366 122q31 0 31 -30v-92h-331q-30 0 -30 31v91h330zM219 418q-46 0 -46 -46v-12q0 -22 8 -32t22 -10q13 0 27.5 9.5t30.5 34.5v51q-25 5 -42 5z" />
    <glyph glyph-name="guillemotleft" unicode="&#xab;" horiz-adv-x="525" 
d="M239 266l106 179h112q22 0 22 -16q0 -7 -4 -14l-82 -149l81 -150q4 -7 4 -14q0 -16 -22 -16h-111zM34 266l105 179h113q22 0 22 -16q0 -6 -5 -14l-82 -149l82 -150q4 -7 4 -14q0 -16 -22 -16h-112z" />
    <glyph glyph-name="logicalnot" unicode="&#xac;" horiz-adv-x="418" 
d="M399 98h-98q-30 0 -30 31v104h-222q-31 0 -31 31v88h381v-254z" />
    <glyph glyph-name="uni00AD" unicode="&#xad;" horiz-adv-x="308" 
d="M244 353q31 0 31 -31v-85h-211q-30 0 -30 31v85h210z" />
    <glyph glyph-name="registered" unicode="&#xae;" horiz-adv-x="491" 
d="M245 695q103 0 150 -48t47 -139v-30q0 -92 -47 -140t-150 -48q-102 0 -149 47t-47 141v30q0 90 46 138.5t150 48.5zM245 629q-66 0 -95 -26.5t-29 -77.5v-64q0 -51 29 -77.5t95 -26.5t95 26t29 78v64q0 52 -28.5 78t-95.5 26zM243 591q42 0 60 -15t18 -43v-7
q0 -16 -8 -29t-23 -21l43 -73h-41q-9 0 -15 9l-30 57h-18v-52q0 -14 -13 -14h-33v187q14 0 29 0.5t31 0.5zM249 551h-9t-11 -1v-40h22q24 0 24 16v6q0 19 -26 19z" />
    <glyph glyph-name="macron" unicode="&#xaf;" horiz-adv-x="311" 
d="M256 691q25 0 25 -26v-82h-225q-26 0 -26 26v82h226z" />
    <glyph glyph-name="degree" unicode="&#xb0;" horiz-adv-x="400" 
d="M201 695q87 0 130.5 -45.5t43.5 -133.5v-20q0 -88 -43.5 -134.5t-130.5 -46.5q-88 0 -132 46.5t-44 134.5v20q0 88 44 133.5t132 45.5zM201 581q-48 0 -48 -61v-29q0 -32 12.5 -46.5t35.5 -14.5q22 0 33.5 14.5t11.5 46.5v29q0 32 -11.5 46.5t-33.5 14.5z" />
    <glyph glyph-name="plusminus" unicode="&#xb1;" horiz-adv-x="397" 
d="M165 162q-31 0 -31 31v69h-93q-31 0 -31 31v89h124v135h98q31 0 31 -30v-105h93q30 0 30 -30v-90h-123v-100h-98zM40 0q-30 0 -30 31v89h345q31 0 31 -31v-89h-346z" />
    <glyph glyph-name="twosuperior" unicode="&#xb2;" horiz-adv-x="400" 
d="M185 760q78 0 115 -33t37 -96v-14q0 -33 -14 -62.5t-46 -60.5l-56 -55h94q26 0 26 -25v-83h-281v65q0 21 12 34l122 135q21 25 21 47v9q0 16 -11 24.5t-37 8.5q-11 0 -29 -2.5t-38 -7.5q-3 -1 -8 -1q-21 0 -21 24v76q30 8 58.5 12.5t55.5 4.5z" />
    <glyph glyph-name="threesuperior" unicode="&#xb3;" horiz-adv-x="400" 
d="M189 760q69 0 106.5 -30.5t37.5 -78.5v-12q0 -28 -17.5 -53t-51.5 -36q35 -9 56 -36t21 -60v-10q0 -52 -39 -86.5t-111 -34.5q-27 0 -58 2.5t-59 7.5v76q0 27 27 24q22 -3 42 -4.5t33 -1.5q23 0 32 7.5t9 24.5v7q0 34 -40 34h-53q-28 0 -28 26v41q0 26 28 26h50
q35 0 35 32v7q0 26 -35 26q-13 0 -32.5 -2t-40.5 -5q-2 0 -3 -0.5t-3 -0.5q-21 0 -21 25v75q32 5 60 7.5t55 2.5z" />
    <glyph glyph-name="acute" unicode="&#xb4;" horiz-adv-x="253" 
d="M137 562q-12 -16 -31 -16h-89l74 135q10 18 30 18h119z" />
    <glyph glyph-name="mu" unicode="&#xb5;" horiz-adv-x="577" 
d="M537 0h-97q-28 0 -30 29l-4 268l-55 -212q-6 -24 -31 -24h-65q-25 0 -31 24l-56 211l-4 -267q0 -29 -29 -29h-95l4 511h128q25 0 32 -25l85 -306l85 306q6 25 32 25h126z" />
    <glyph glyph-name="paragraph" unicode="&#xb6;" horiz-adv-x="570" 
d="M173 296h-23q-67 0 -103.5 34.5t-36.5 101.5v113q0 66 35.5 102t104.5 36h127q32 0 32 -32v-805q0 -31 -30 -31h-106v481zM185 396v192h-31q-21 0 -31 -13.5t-10 -51.5v-62q0 -38 10 -51.5t31 -13.5h31zM421 -185q-30 0 -30 31v806q0 31 30 31h105v-868h-105z" />
    <glyph glyph-name="periodcentered" unicode="&#xb7;" horiz-adv-x="214" 
d="M107 352q80 0 80 -70v-25q0 -33 -20.5 -51t-59.5 -18t-59.5 18t-20.5 51v25q0 70 80 70z" />
    <glyph glyph-name="cedilla" unicode="&#xb8;" horiz-adv-x="248" 
d="M148 -31h9q29 0 45 -19t16 -45v-18q0 -39 -26.5 -61.5t-87.5 -22.5q-40 0 -74 7v54q0 12 3 16.5t10 4.5h5q15 -3 31 -3t22 5.5t6 15.5v6q0 23 -27 23h-15q-18 0 -18 15q0 9 4 18l27 84h97z" />
    <glyph glyph-name="onesuperior" unicode="&#xb9;" horiz-adv-x="400" 
d="M273 439h47q26 0 26 -25v-83h-274v83q0 25 26 25h57v192h-1l-53 -22q-4 -2 -12 -2q-16 0 -20 18l-18 75l139 52h83v-313z" />
    <glyph glyph-name="ordmasculine" unicode="&#xba;" horiz-adv-x="457" 
d="M229 667q94 0 140 -49t46 -141v-78q0 -93 -46 -141.5t-140 -48.5t-140.5 48.5t-46.5 141.5v78q0 92 46 141t141 49zM380 122q31 0 31 -30v-92h-334q-30 0 -30 31v91h333zM229 547q-50 0 -50 -61v-95q0 -61 50 -61t50 61v96q0 60 -50 60z" />
    <glyph glyph-name="guillemotright" unicode="&#xbb;" horiz-adv-x="525" 
d="M69 86q-22 0 -22 16q0 7 4 14l81 150l-82 149q-4 7 -4 14q0 16 22 16h112l106 -179l-106 -180h-111zM274 86q-22 0 -22 16q0 7 4 14l82 150l-82 149q-4 7 -4 14q0 16 22 16h112l106 -179l-106 -180h-112z" />
    <glyph glyph-name="onequarter" unicode="&#xbc;" horiz-adv-x="1000" 
d="M308 0q-27 0 -27 20q0 8 4 16l287 565h96q27 0 27 -20q0 -8 -4 -16l-287 -565h-96zM795 421q23 0 23 -18q0 -3 -2 -11l-70 -217h74v23v17t2 17l2 31q3 23 27 23h82v-111h40v-77q0 -26 -26 -26h-14v-72h-88q-25 0 -25 26v46h-146q-21 0 -30 19l-19 40l97 290h73zM256 289
h47q26 0 26 -25v-83h-274v83q0 25 26 25h57v192h-1l-53 -22q-4 -2 -12 -2q-16 0 -20 18l-18 75l139 52h83v-313z" />
    <glyph glyph-name="onehalf" unicode="&#xbd;" horiz-adv-x="1000" 
d="M323 0q-27 0 -27 20q0 8 4 16l287 565h96q27 0 27 -20q0 -8 -4 -16l-287 -565h-96zM801 429q78 0 115 -33t37 -96v-14q0 -33 -14 -62.5t-46 -60.5l-56 -55h94q26 0 26 -25v-83h-281v65q0 21 12 34l122 135q21 25 21 47v9q0 16 -11 24.5t-37 8.5q-11 0 -29 -2.5t-38 -7.5
q-3 -1 -8 -1q-21 0 -21 24v76q30 8 58.5 12.5t55.5 4.5zM269 289h47q26 0 26 -25v-83h-274v83q0 25 26 25h57v192h-1l-53 -22q-4 -2 -12 -2q-16 0 -20 18l-18 75l139 52h83v-313z" />
    <glyph glyph-name="threequarters" unicode="&#xbe;" horiz-adv-x="1000" 
d="M287 0q-27 0 -27 20q0 8 4 16l287 565h96q27 0 27 -20q0 -8 -4 -16l-287 -565h-96zM778 421q23 0 23 -18q0 -3 -2 -11l-70 -217h74v23v17t2 17l2 31q3 23 27 23h82v-111h40v-77q0 -26 -26 -26h-14v-72h-88q-25 0 -25 26v46h-146q-21 0 -30 19l-19 40l97 290h73zM189 610
q69 0 106.5 -30.5t37.5 -78.5v-12q0 -28 -17.5 -53t-51.5 -36q35 -9 56 -36t21 -60v-10q0 -52 -39 -86.5t-111 -34.5q-27 0 -58 2.5t-59 7.5v76q0 27 27 24q22 -3 42 -4.5t33 -1.5q23 0 32 7.5t9 24.5v7q0 34 -40 34h-53q-28 0 -28 26v41q0 26 28 26h50q35 0 35 32v7
q0 26 -35 26q-13 0 -32.5 -2t-40.5 -5q-2 0 -3 -0.5t-3 -0.5q-21 0 -21 25v75q32 5 60 7.5t55 2.5z" />
    <glyph glyph-name="questiondown" unicode="&#xbf;" horiz-adv-x="378" 
d="M212 -197q-101 0 -145.5 38t-44.5 116v15q0 45 16.5 83.5t57.5 82.5l33 36q14 14 18.5 25.5t4.5 34.5v57h103q30 0 30 -30v-20q0 -25 -1 -42t-5 -30.5t-12.5 -26t-22.5 -28.5l-53 -59q-21 -23 -26.5 -38.5t-5.5 -38.5v-10q0 -24 15 -35.5t56 -11.5q19 0 47.5 5t54.5 11
q4 1 10 1q23 0 23 -28v-86q-45 -11 -82 -16t-71 -5zM218 346q-39 0 -60 18t-21 52v25q0 33 21 51t60 18q38 0 58.5 -18t20.5 -51v-25q0 -70 -79 -70z" />
    <glyph glyph-name="Agrave" unicode="&#xc0;" horiz-adv-x="539" 
d="M542 0h-123q-27 0 -33 27l-24 101h-188l-24 -101q-6 -27 -34 -27h-119l190 655h165zM199 246h138l-69 295zM225 854q20 0 30 -18l70 -129h-89q-19 0 -31 16l-100 131h120z" />
    <glyph glyph-name="Aacute" unicode="&#xc1;" horiz-adv-x="539" 
d="M542 0h-123q-27 0 -33 27l-24 101h-188l-24 -101q-6 -27 -34 -27h-119l190 655h165zM199 246h138l-69 295zM314 723q-12 -16 -31 -16h-89l70 129q11 18 30 18h120z" />
    <glyph glyph-name="Acircumflex" unicode="&#xc2;" horiz-adv-x="539" 
d="M542 0h-123q-27 0 -33 27l-24 101h-188l-24 -101q-6 -27 -34 -27h-119l190 655h165zM199 246h138l-69 295zM418 814v-68q0 -23 -18 -23q-3 0 -11 2l-120 45l-119 -45q-8 -2 -11 -2q-19 0 -19 23v68l149 70z" />
    <glyph glyph-name="Atilde" unicode="&#xc3;" horiz-adv-x="539" 
d="M542 0h-123q-27 0 -33 27l-24 101h-188l-24 -101q-6 -27 -34 -27h-119l190 655h165zM199 246h138l-69 295zM388 836q7 3 13 3q17 0 17 -22v-65q-26 -18 -45.5 -27t-43.5 -9q-17 0 -32.5 4.5t-30.5 10.5t-29.5 10.5t-29.5 4.5q-14 0 -29 -5t-28 -10q-8 -3 -13 -3
q-17 0 -17 22v65q20 17 42 26.5t47 9.5q21 0 37 -5t30.5 -10.5t27.5 -10.5t27 -5t29 5t28 11z" />
    <glyph glyph-name="Adieresis" unicode="&#xc4;" horiz-adv-x="539" 
d="M542 0h-123q-27 0 -33 27l-24 101h-188l-24 -101q-6 -27 -34 -27h-119l190 655h165zM199 246h138l-69 295zM371 861q36 0 55.5 -16.5t19.5 -48.5v-24q0 -30 -19.5 -47.5t-55.5 -17.5q-35 0 -55 17.5t-20 47.5v24q0 32 20 48.5t55 16.5zM165 861q75 0 75 -65v-24
q0 -30 -19 -47.5t-56 -17.5q-34 0 -54 17.5t-20 47.5v24q0 32 20 48.5t54 16.5z" />
    <glyph glyph-name="Aring" unicode="&#xc5;" horiz-adv-x="539" 
d="M270 835q63 0 97.5 -30t34.5 -88q0 -63 -41 -93l181 -624h-124q-27 0 -33 27l-24 101h-188l-24 -101q-6 -27 -34 -27h-118l181 626q-40 29 -40 91q0 58 34.5 88t97.5 30zM198 246h137l-68 296zM270 754q-31 0 -31 -35q0 -34 31 -34t31 34q0 35 -31 35z" />
    <glyph glyph-name="AE" unicode="&#xc6;" horiz-adv-x="756" 
d="M254 655h468v-100q0 -30 -30 -30h-206v-128h186q30 0 30 -30v-68q0 -31 -30 -31h-186v-138h206q30 0 30 -30v-100h-347q-30 0 -30 31v106h-147l-41 -112q-9 -25 -35 -25h-125zM345 267v275l-102 -275h102z" />
    <glyph glyph-name="Ccedilla" unicode="&#xc7;" horiz-adv-x="454" 
d="M265 667q26 0 66.5 -4t94.5 -14l-2 -96q0 -28 -25 -28q-6 0 -9 1q-25 5 -51.5 9t-53.5 4q-31 0 -51.5 -5t-32.5 -16.5t-16.5 -31t-4.5 -48.5v-220q0 -29 5 -48t17.5 -30.5t32.5 -16.5t50 -5q27 0 53 5l52 10q3 1 9 1q24 0 24 -28l1 -99q-38 -8 -72.5 -12.5t-56.5 -5.5
l-6 -20h9q29 0 45 -19t16 -45v-18q0 -39 -27 -61.5t-87 -22.5q-20 0 -38 2t-37 5v54q0 12 3.5 16.5t10.5 4.5h4q8 -2 16.5 -2.5t14.5 -0.5q16 0 22 5.5t6 15.5v6q0 23 -26 23h-15q-18 0 -18 15q0 9 4 18l8 27q-89 14 -125 66t-36 144v251q0 54 12 94.5t39 67t70 39.5t105 13
z" />
    <glyph glyph-name="Egrave" unicode="&#xc8;" horiz-adv-x="455" 
d="M421 555q0 -30 -30 -30h-206v-128h186q30 0 30 -30v-68q0 -31 -30 -31h-186v-138h206q30 0 30 -30v-100h-377v655h377v-100zM187 854q20 0 30 -18l70 -129h-89q-19 0 -31 16l-100 131h120z" />
    <glyph glyph-name="Eacute" unicode="&#xc9;" horiz-adv-x="455" 
d="M421 555q0 -30 -30 -30h-206v-128h186q30 0 30 -30v-68q0 -31 -30 -31h-186v-138h206q30 0 30 -30v-100h-377v655h377v-100zM276 723q-12 -16 -31 -16h-89l70 129q11 18 30 18h120z" />
    <glyph glyph-name="Ecircumflex" unicode="&#xca;" horiz-adv-x="455" 
d="M421 555q0 -30 -30 -30h-206v-128h186q30 0 30 -30v-68q0 -31 -30 -31h-186v-138h206q30 0 30 -30v-100h-377v655h377v-100zM380 814v-68q0 -23 -18 -23q-3 0 -11 2l-120 45l-119 -45q-8 -2 -11 -2q-19 0 -19 23v68l149 70z" />
    <glyph glyph-name="Edieresis" unicode="&#xcb;" horiz-adv-x="455" 
d="M421 555q0 -30 -30 -30h-206v-128h186q30 0 30 -30v-68q0 -31 -30 -31h-186v-138h206q30 0 30 -30v-100h-377v655h377v-100zM333 861q36 0 55.5 -16.5t19.5 -48.5v-24q0 -30 -19.5 -47.5t-55.5 -17.5q-35 0 -55 17.5t-20 47.5v24q0 32 20 48.5t55 16.5zM127 861
q75 0 75 -65v-24q0 -30 -19 -47.5t-56 -17.5q-34 0 -54 17.5t-20 47.5v24q0 32 20 48.5t54 16.5z" />
    <glyph glyph-name="Igrave" unicode="&#xcc;" horiz-adv-x="229" 
d="M154 655q31 0 31 -31v-624h-141v655h110zM71 854q20 0 30 -18l70 -129h-89q-19 0 -31 16l-100 131h120z" />
    <glyph glyph-name="Iacute" unicode="&#xcd;" horiz-adv-x="229" 
d="M154 655q31 0 31 -31v-624h-141v655h110zM160 723q-12 -16 -31 -16h-89l70 129q11 18 30 18h120z" />
    <glyph glyph-name="Icircumflex" unicode="&#xce;" horiz-adv-x="229" 
d="M154 655q31 0 31 -31v-624h-141v655h110zM264 814v-68q0 -23 -18 -23q-3 0 -11 2l-120 45l-119 -45q-8 -2 -11 -2q-19 0 -19 23v68l149 70z" />
    <glyph glyph-name="Idieresis" unicode="&#xcf;" horiz-adv-x="229" 
d="M154 655q31 0 31 -31v-624h-141v655h110zM217 861q36 0 55.5 -16.5t19.5 -48.5v-24q0 -30 -19.5 -47.5t-55.5 -17.5q-35 0 -55 17.5t-20 47.5v24q0 32 20 48.5t55 16.5zM11 861q75 0 75 -65v-24q0 -30 -19 -47.5t-56 -17.5q-34 0 -54 17.5t-20 47.5v24q0 32 20 48.5
t54 16.5z" />
    <glyph glyph-name="Eth" unicode="&#xd0;" horiz-adv-x="556" 
d="M264 667q128 0 193 -70t65 -198v-151q0 -122 -65 -191t-204 -69q-41 0 -84.5 1.5t-102.5 5.5v289h-39q-27 0 -27 31v83h66v265q60 3 106 3.5t92 0.5zM260 542q-13 0 -26 -0.5t-27 -1.5v-142h77q28 0 28 -31v-83h-105v-167q33 -3 53 -3q58 0 89.5 32.5t31.5 95.5v162
q0 72 -31 105t-90 33z" />
    <glyph glyph-name="Ntilde" unicode="&#xd1;" horiz-adv-x="545" 
d="M44 655h154q26 0 35 -25l132 -382v376q0 31 31 31h105v-655h-147q-28 0 -38 27l-137 380v-376q0 -31 -30 -31h-105v655zM393 836q7 3 13 3q17 0 17 -22v-65q-26 -18 -45.5 -27t-43.5 -9q-17 0 -32.5 4.5t-30.5 10.5t-29.5 10.5t-29.5 4.5q-14 0 -29 -5t-28 -10
q-8 -3 -13 -3q-17 0 -17 22v65q20 17 42 26.5t47 9.5q21 0 37 -5t30.5 -10.5t27.5 -10.5t27 -5t29 5t28 11z" />
    <glyph glyph-name="Ograve" unicode="&#xd2;" horiz-adv-x="538" 
d="M269 667q118 0 174 -58t56 -167v-229q0 -106 -55 -165.5t-175 -59.5q-121 0 -175.5 59.5t-54.5 165.5v229q0 109 55 167t175 58zM269 539q-89 0 -89 -88v-245q0 -90 89 -90t89 90v244q0 89 -89 89zM225 854q20 0 30 -18l70 -129h-89q-19 0 -31 16l-100 131h120z" />
    <glyph glyph-name="Oacute" unicode="&#xd3;" horiz-adv-x="538" 
d="M269 667q118 0 174 -58t56 -167v-229q0 -106 -55 -165.5t-175 -59.5q-121 0 -175.5 59.5t-54.5 165.5v229q0 109 55 167t175 58zM269 539q-89 0 -89 -88v-245q0 -90 89 -90t89 90v244q0 89 -89 89zM314 723q-12 -16 -31 -16h-89l70 129q11 18 30 18h120z" />
    <glyph glyph-name="Ocircumflex" unicode="&#xd4;" horiz-adv-x="538" 
d="M269 667q118 0 174 -58t56 -167v-229q0 -106 -55 -165.5t-175 -59.5q-121 0 -175.5 59.5t-54.5 165.5v229q0 109 55 167t175 58zM269 539q-89 0 -89 -88v-245q0 -90 89 -90t89 90v244q0 89 -89 89zM418 814v-68q0 -23 -18 -23q-3 0 -11 2l-120 45l-119 -45q-8 -2 -11 -2
q-19 0 -19 23v68l149 70z" />
    <glyph glyph-name="Otilde" unicode="&#xd5;" horiz-adv-x="538" 
d="M269 667q118 0 174 -58t56 -167v-229q0 -106 -55 -165.5t-175 -59.5q-121 0 -175.5 59.5t-54.5 165.5v229q0 109 55 167t175 58zM269 539q-89 0 -89 -88v-245q0 -90 89 -90t89 90v244q0 89 -89 89zM388 836q7 3 13 3q17 0 17 -22v-65q-26 -18 -45.5 -27t-43.5 -9
q-17 0 -32.5 4.5t-30.5 10.5t-29.5 10.5t-29.5 4.5q-14 0 -29 -5t-28 -10q-8 -3 -13 -3q-17 0 -17 22v65q20 17 42 26.5t47 9.5q21 0 37 -5t30.5 -10.5t27.5 -10.5t27 -5t29 5t28 11z" />
    <glyph glyph-name="Odieresis" unicode="&#xd6;" horiz-adv-x="538" 
d="M269 667q118 0 174 -58t56 -167v-229q0 -106 -55 -165.5t-175 -59.5q-121 0 -175.5 59.5t-54.5 165.5v229q0 109 55 167t175 58zM269 539q-89 0 -89 -88v-245q0 -90 89 -90t89 90v244q0 89 -89 89zM371 861q36 0 55.5 -16.5t19.5 -48.5v-24q0 -30 -19.5 -47.5
t-55.5 -17.5q-35 0 -55 17.5t-20 47.5v24q0 32 20 48.5t55 16.5zM165 861q75 0 75 -65v-24q0 -30 -19 -47.5t-56 -17.5q-34 0 -54 17.5t-20 47.5v24q0 32 20 48.5t54 16.5z" />
    <glyph glyph-name="multiply" unicode="&#xd7;" horiz-adv-x="418" 
d="M282 452q11 11 21 11q9 0 22 -11l64 -63l-94 -95l96 -96l-68 -66q-10 -10 -21 -10q-12 0 -22 10l-74 73l-71 -71q-11 -11 -22 -11q-10 0 -21 11l-65 64l94 93l-95 96l65 68q11 11 22 11q9 0 22 -11l75 -75z" />
    <glyph glyph-name="Oslash" unicode="&#xd8;" horiz-adv-x="538" 
d="M469 574q30 -53 30 -132v-229q0 -106 -55 -165.5t-175 -59.5q-65 0 -112 19l-21 -36q-11 -21 -36 -21h-107l75 133q-29 51 -29 130v229q0 109 55 167t175 58q32 0 59.5 -5t50.5 -14l19 36q13 21 37 21h106zM210 132q20 -16 59 -16q89 0 89 90v170v11t-1 11zM269 539
q-89 0 -89 -88v-171v-12t1 -11l146 265q-23 17 -58 17z" />
    <glyph glyph-name="Ugrave" unicode="&#xd9;" horiz-adv-x="539" 
d="M495 214q0 -106 -54 -166t-172 -60q-116 0 -170.5 59t-54.5 166v442h110q31 0 31 -31v-418q0 -45 21.5 -67.5t62.5 -22.5q85 0 85 90v418q0 31 30 31h111v-441zM226 854q20 0 30 -18l70 -129h-89q-19 0 -31 16l-100 131h120z" />
    <glyph glyph-name="Uacute" unicode="&#xda;" horiz-adv-x="539" 
d="M495 214q0 -106 -54 -166t-172 -60q-116 0 -170.5 59t-54.5 166v442h110q31 0 31 -31v-418q0 -45 21.5 -67.5t62.5 -22.5q85 0 85 90v418q0 31 30 31h111v-441zM315 723q-12 -16 -31 -16h-89l70 129q11 18 30 18h120z" />
    <glyph glyph-name="Ucircumflex" unicode="&#xdb;" horiz-adv-x="539" 
d="M495 214q0 -106 -54 -166t-172 -60q-116 0 -170.5 59t-54.5 166v442h110q31 0 31 -31v-418q0 -45 21.5 -67.5t62.5 -22.5q85 0 85 90v418q0 31 30 31h111v-441zM419 814v-68q0 -23 -18 -23q-3 0 -11 2l-120 45l-119 -45q-8 -2 -11 -2q-19 0 -19 23v68l149 70z" />
    <glyph glyph-name="Udieresis" unicode="&#xdc;" horiz-adv-x="539" 
d="M495 214q0 -106 -54 -166t-172 -60q-116 0 -170.5 59t-54.5 166v442h110q31 0 31 -31v-418q0 -45 21.5 -67.5t62.5 -22.5q85 0 85 90v418q0 31 30 31h111v-441zM372 861q36 0 55.5 -16.5t19.5 -48.5v-24q0 -30 -19.5 -47.5t-55.5 -17.5q-35 0 -55 17.5t-20 47.5v24
q0 32 20 48.5t55 16.5zM166 861q75 0 75 -65v-24q0 -30 -19 -47.5t-56 -17.5q-34 0 -54 17.5t-20 47.5v24q0 32 20 48.5t54 16.5z" />
    <glyph glyph-name="Yacute" unicode="&#xdd;" horiz-adv-x="526" 
d="M334 227v-196q0 -31 -31 -31h-110v227l-189 428h131q27 0 36 -25l93 -271l94 271q9 25 36 25h128zM308 723q-12 -16 -31 -16h-89l70 129q11 18 30 18h120z" />
    <glyph glyph-name="Thorn" unicode="&#xde;" horiz-adv-x="489" 
d="M154 655q31 0 31 -31v-77q17 2 27.5 2h19.5q124 0 184 -52.5t60 -143.5v-21q0 -97 -57.5 -152.5t-170.5 -55.5q-12 0 -27.5 1t-35.5 4v-98q0 -31 -30 -31h-111v655h110zM233 426q-14 0 -23.5 -0.5t-24.5 -2.5v-169q33 -3 52 -3q97 0 97 85v14q0 36 -23.5 56t-77.5 20z
" />
    <glyph glyph-name="germandbls" unicode="&#xdf;" horiz-adv-x="774" 
d="M201 523q31 0 65 -3t70 -10l-1 -86q0 -27 -22 -27q-6 0 -9 1q-28 5 -54.5 8t-44.5 3q-29 0 -40.5 -9.5t-11.5 -26.5v-11q0 -14 7.5 -22t29.5 -14l69 -22q31 -10 52.5 -22.5t35 -29.5t19.5 -40t6 -54v-18q0 -74 -43.5 -113t-142.5 -39q-26 0 -67 5t-81 14l1 87q0 26 23 26
q5 0 8 -1q29 -6 56.5 -10.5t47.5 -4.5q39 0 53.5 10t14.5 28v14q0 14 -6.5 22.5t-25.5 14.5l-71 22q-32 10 -54 23t-35.5 30t-19.5 40t-6 53v10q0 73 41.5 112.5t135.5 39.5zM585 523q31 0 65 -3t70 -10l-1 -86q0 -27 -22 -27q-6 0 -9 1q-28 5 -54.5 8t-44.5 3
q-29 0 -40.5 -9.5t-11.5 -26.5v-11q0 -14 7.5 -22t29.5 -14l69 -22q31 -10 52.5 -22.5t35 -29.5t19.5 -40t6 -54v-18q0 -74 -43.5 -113t-142.5 -39q-26 0 -67 5t-81 14l1 87q0 26 23 26q5 0 8 -1q29 -6 56.5 -10.5t47.5 -4.5q39 0 53.5 10t14.5 28v14q0 14 -6.5 22.5
t-25.5 14.5l-71 22q-32 10 -54 23t-35.5 30t-19.5 40t-6 53v10q0 73 41.5 112.5t135.5 39.5z" />
    <glyph glyph-name="agrave" unicode="&#xe0;" horiz-adv-x="454" 
d="M457 0h-112q-25 0 -31 25l-16 69h-145l-16 -69q-6 -25 -32 -25h-108l155 511h150zM174 197h101l-49 215zM192 691q19 0 30 -18l65 -119h-80q-18 0 -31 15l-94 122h110z" />
    <glyph glyph-name="aacute" unicode="&#xe1;" horiz-adv-x="454" 
d="M457 0h-112q-25 0 -31 25l-16 69h-145l-16 -69q-6 -25 -32 -25h-108l155 511h150zM174 197h101l-49 215zM276 569q-12 -15 -31 -15h-83l66 119q10 18 30 18h114z" />
    <glyph glyph-name="acircumflex" unicode="&#xe2;" horiz-adv-x="454" 
d="M457 0h-112q-25 0 -31 25l-16 69h-145l-16 -69q-6 -25 -32 -25h-108l155 511h150zM174 197h101l-49 215zM358 655v-63q0 -23 -19 -23q-3 0 -11 2l-100 38l-100 -38q-8 -2 -10 -2q-19 0 -19 23v63l129 62z" />
    <glyph glyph-name="atilde" unicode="&#xe3;" horiz-adv-x="454" 
d="M457 0h-112q-25 0 -31 25l-16 69h-145l-16 -69q-6 -25 -32 -25h-108l155 511h150zM174 197h101l-49 215zM327 685q7 3 13 3q16 0 16 -22v-61q-18 -14 -36.5 -22t-41.5 -8q-15 0 -27.5 3.5t-25 8t-24.5 8.5t-25 4q-12 0 -24.5 -3t-23.5 -7q-8 -3 -13 -3q-16 0 -16 21v63
q16 12 35.5 20t43.5 8q18 0 31.5 -4t25 -8.5t22.5 -8t23 -3.5q11 0 23.5 3t23.5 8z" />
    <glyph glyph-name="adieresis" unicode="&#xe4;" horiz-adv-x="454" 
d="M457 0h-112q-25 0 -31 25l-16 69h-145l-16 -69q-6 -25 -32 -25h-108l155 511h150zM174 197h101l-49 215zM329 724q75 0 75 -65v-24q0 -31 -19 -48t-56 -17q-34 0 -54 17t-20 48v24q0 32 20 48.5t54 16.5zM124 724q36 0 55.5 -16.5t19.5 -48.5v-24q0 -31 -19.5 -48
t-55.5 -17q-35 0 -54.5 17t-19.5 48v24q0 32 19.5 48.5t54.5 16.5z" />
    <glyph glyph-name="aring" unicode="&#xe5;" horiz-adv-x="454" 
d="M226 705q57 0 92 -27.5t35 -84.5q0 -67 -48 -93l152 -500h-112q-25 0 -31 25l-16 69h-145l-16 -69q-6 -25 -32 -25h-108l152 499q-50 27 -50 94q0 57 34.5 84.5t92.5 27.5zM174 197h101l-49 215zM226 626q-27 0 -27 -30q0 -31 27 -31q28 0 28 31q0 30 -28 30z" />
    <glyph glyph-name="ae" unicode="&#xe6;" horiz-adv-x="639" 
d="M606 424q0 -29 -29 -29h-163v-81h146q29 0 29 -29v-55q0 -29 -29 -29h-146v-85h163q29 0 29 -29v-87h-292q-29 0 -29 29v65h-115l-26 -71q-7 -23 -32 -23h-115l205 511h404v-87zM206 197h79v216z" />
    <glyph glyph-name="ccedilla" unicode="&#xe7;" horiz-adv-x="394" 
d="M228 523q25 0 57 -3.5t80 -11.5v-84q0 -26 -24 -26q-6 0 -9 1q-20 4 -42.5 7t-40.5 3q-48 0 -64.5 -16.5t-16.5 -59.5v-154q0 -22 4 -36.5t13 -23t25 -12t40 -3.5q19 0 40.5 3t41.5 7q3 1 9 1q23 0 23 -26l1 -85q-40 -8 -63.5 -10.5t-40.5 -4.5l-7 -20h10q29 0 45 -19
t16 -45v-18q0 -39 -27 -61.5t-88 -22.5q-25 0 -41 2t-33 5v54q0 12 3.5 16.5t10.5 4.5h4q8 -2 16.5 -2.5t14.5 -0.5q16 0 22 5.5t6 15.5v6q0 11 -6 17t-21 6h-15q-17 0 -17 15q0 7 3 18l9 28q-68 12 -97.5 53.5t-29.5 115.5v187q0 91 43.5 132.5t145.5 41.5z" />
    <glyph glyph-name="egrave" unicode="&#xe8;" horiz-adv-x="398" 
d="M365 424q0 -29 -29 -29h-163v-81h146q29 0 29 -29v-55q0 -29 -29 -29h-146v-85h163q29 0 29 -29v-87h-321v511h321v-87zM166 691q19 0 30 -18l65 -119h-80q-18 0 -31 15l-94 122h110z" />
    <glyph glyph-name="eacute" unicode="&#xe9;" horiz-adv-x="398" 
d="M365 424q0 -29 -29 -29h-163v-81h146q29 0 29 -29v-55q0 -29 -29 -29h-146v-85h163q29 0 29 -29v-87h-321v511h321v-87zM250 569q-12 -15 -31 -15h-83l66 119q10 18 30 18h114z" />
    <glyph glyph-name="ecircumflex" unicode="&#xea;" horiz-adv-x="398" 
d="M365 424q0 -29 -29 -29h-163v-81h146q29 0 29 -29v-55q0 -29 -29 -29h-146v-85h163q29 0 29 -29v-87h-321v511h321v-87zM332 655v-63q0 -23 -19 -23q-3 0 -11 2l-100 38l-100 -38q-8 -2 -10 -2q-19 0 -19 23v63l129 62z" />
    <glyph glyph-name="edieresis" unicode="&#xeb;" horiz-adv-x="398" 
d="M365 424q0 -29 -29 -29h-163v-81h146q29 0 29 -29v-55q0 -29 -29 -29h-146v-85h163q29 0 29 -29v-87h-321v511h321v-87zM303 724q75 0 75 -65v-24q0 -31 -19 -48t-56 -17q-34 0 -54 17t-20 48v24q0 32 20 48.5t54 16.5zM98 724q36 0 55.5 -16.5t19.5 -48.5v-24
q0 -31 -19.5 -48t-55.5 -17q-35 0 -54.5 17t-19.5 48v24q0 32 19.5 48.5t54.5 16.5z" />
    <glyph glyph-name="igrave" unicode="&#xec;" horiz-adv-x="216" 
d="M144 511q29 0 29 -29v-482h-129v511h100zM72 691q19 0 30 -18l65 -119h-80q-18 0 -31 15l-94 122h110z" />
    <glyph glyph-name="iacute" unicode="&#xed;" horiz-adv-x="216" 
d="M144 511q29 0 29 -29v-482h-129v511h100zM156 569q-12 -15 -31 -15h-83l66 119q10 18 30 18h114z" />
    <glyph glyph-name="icircumflex" unicode="&#xee;" horiz-adv-x="216" 
d="M144 511q29 0 29 -29v-482h-129v511h100zM238 655v-63q0 -23 -19 -23q-3 0 -11 2l-100 38l-100 -38q-8 -2 -10 -2q-19 0 -19 23v63l129 62z" />
    <glyph glyph-name="idieresis" unicode="&#xef;" horiz-adv-x="216" 
d="M144 511q29 0 29 -29v-482h-129v511h100zM209 724q75 0 75 -65v-24q0 -31 -19 -48t-56 -17q-34 0 -54 17t-20 48v24q0 32 20 48.5t54 16.5zM4 724q36 0 55.5 -16.5t19.5 -48.5v-24q0 -31 -19.5 -48t-55.5 -17q-35 0 -54.5 17t-19.5 48v24q0 32 19.5 48.5t54.5 16.5z" />
    <glyph glyph-name="eth" unicode="&#xf0;" horiz-adv-x="467" 
d="M215 522q104 0 161 -55.5t57 -160.5v-106q0 -102 -57 -157t-170 -55q-38 0 -75.5 1.5t-81.5 3.5v212h-19q-29 0 -29 29v67h48v216q51 2 89.5 3.5t76.5 1.5zM304 303q0 61 -22 84t-69 23q-8 0 -17.5 -0.5t-18.5 -1.5v-107h32q29 0 29 -29v-67h-61v-102q11 -2 19.5 -2h16.5
q44 0 67.5 23t23.5 68v111z" />
    <glyph glyph-name="ntilde" unicode="&#xf1;" horiz-adv-x="471" 
d="M428 0h-119q-24 0 -33 22l-108 268v-261q0 -29 -29 -29h-95v511h125q23 0 32 -23l104 -263v257q0 29 28 29h95v-511zM336 685q7 3 13 3q16 0 16 -22v-61q-18 -14 -36.5 -22t-41.5 -8q-15 0 -27.5 3.5t-25 8t-24.5 8.5t-25 4q-12 0 -24.5 -3t-23.5 -7q-8 -3 -13 -3
q-16 0 -16 21v63q16 12 35.5 20t43.5 8q18 0 31.5 -4t25 -8.5t22.5 -8t23 -3.5q11 0 23.5 3t23.5 8z" />
    <glyph glyph-name="ograve" unicode="&#xf2;" horiz-adv-x="464" 
d="M232 523q97 0 145.5 -46.5t48.5 -137.5v-167q0 -89 -47 -136.5t-147 -47.5t-146.5 47.5t-46.5 136.5v167q0 91 48 137.5t145 46.5zM232 409q-32 0 -48 -16t-16 -45v-181q0 -31 16 -48t48 -17t48.5 16.5t16.5 45.5v180q0 65 -65 65zM196 691q19 0 30 -18l65 -119h-80
q-18 0 -31 15l-94 122h110z" />
    <glyph glyph-name="oacute" unicode="&#xf3;" horiz-adv-x="464" 
d="M232 523q97 0 145.5 -46.5t48.5 -137.5v-167q0 -89 -47 -136.5t-147 -47.5t-146.5 47.5t-46.5 136.5v167q0 91 48 137.5t145 46.5zM232 409q-32 0 -48 -16t-16 -45v-181q0 -31 16 -48t48 -17t48.5 16.5t16.5 45.5v180q0 65 -65 65zM280 569q-12 -15 -31 -15h-83l66 119
q10 18 30 18h114z" />
    <glyph glyph-name="ocircumflex" unicode="&#xf4;" horiz-adv-x="464" 
d="M232 523q97 0 145.5 -46.5t48.5 -137.5v-167q0 -89 -47 -136.5t-147 -47.5t-146.5 47.5t-46.5 136.5v167q0 91 48 137.5t145 46.5zM232 409q-32 0 -48 -16t-16 -45v-181q0 -31 16 -48t48 -17t48.5 16.5t16.5 45.5v180q0 65 -65 65zM362 655v-63q0 -23 -19 -23q-3 0 -11 2
l-100 38l-100 -38q-8 -2 -10 -2q-19 0 -19 23v63l129 62z" />
    <glyph glyph-name="otilde" unicode="&#xf5;" horiz-adv-x="464" 
d="M232 523q97 0 145.5 -46.5t48.5 -137.5v-167q0 -89 -47 -136.5t-147 -47.5t-146.5 47.5t-46.5 136.5v167q0 91 48 137.5t145 46.5zM232 409q-32 0 -48 -16t-16 -45v-181q0 -31 16 -48t48 -17t48.5 16.5t16.5 45.5v180q0 65 -65 65zM331 685q7 3 13 3q16 0 16 -22v-61
q-18 -14 -36.5 -22t-41.5 -8q-15 0 -27.5 3.5t-25 8t-24.5 8.5t-25 4q-12 0 -24.5 -3t-23.5 -7q-8 -3 -13 -3q-16 0 -16 21v63q16 12 35.5 20t43.5 8q18 0 31.5 -4t25 -8.5t22.5 -8t23 -3.5q11 0 23.5 3t23.5 8z" />
    <glyph glyph-name="odieresis" unicode="&#xf6;" horiz-adv-x="464" 
d="M232 523q97 0 145.5 -46.5t48.5 -137.5v-167q0 -89 -47 -136.5t-147 -47.5t-146.5 47.5t-46.5 136.5v167q0 91 48 137.5t145 46.5zM232 409q-32 0 -48 -16t-16 -45v-181q0 -31 16 -48t48 -17t48.5 16.5t16.5 45.5v180q0 65 -65 65zM333 724q75 0 75 -65v-24
q0 -31 -19 -48t-56 -17q-34 0 -54 17t-20 48v24q0 32 20 48.5t54 16.5zM128 724q36 0 55.5 -16.5t19.5 -48.5v-24q0 -31 -19.5 -48t-55.5 -17q-35 0 -54.5 17t-19.5 48v24q0 32 19.5 48.5t54.5 16.5z" />
    <glyph glyph-name="divide" unicode="&#xf7;" horiz-adv-x="418" 
d="M365 352q31 0 31 -30v-89h-344q-31 0 -31 31v88h344zM209 205q38 0 56 -18t18 -50v-15q0 -30 -18 -48.5t-56 -18.5q-37 0 -55 18.5t-18 48.5v15q0 32 18 50t55 18zM209 531q38 0 56 -18.5t18 -50.5v-15q0 -29 -18 -47.5t-56 -18.5q-37 0 -55 18.5t-18 47.5v15
q0 32 18 50.5t55 18.5z" />
    <glyph glyph-name="oslash" unicode="&#xf8;" horiz-adv-x="464" 
d="M407 434q19 -41 19 -95v-167q0 -89 -47 -136.5t-147 -47.5q-51 0 -88 14l-19 -31q-11 -18 -34 -18h-113l80 123q-19 39 -19 96v167q0 91 48 137.5t145 46.5q51 0 88 -14l20 31q11 18 33 18h114zM232 409q-32 0 -48 -16t-16 -45v-141l109 188q-17 14 -45 14zM188 115
q16 -13 44 -13q32 0 48.5 16.5t16.5 45.5v125q0 3 -0.5 6.5t-0.5 5.5z" />
    <glyph glyph-name="ugrave" unicode="&#xf9;" horiz-adv-x="468" 
d="M424 169q0 -87 -46.5 -134t-143.5 -47t-143.5 47t-46.5 134v342h100q29 0 29 -29v-317q0 -31 16 -47t45 -16t44.5 16.5t15.5 46.5v317q0 29 29 29h101v-342zM198 691q19 0 30 -18l65 -119h-80q-18 0 -31 15l-94 122h110z" />
    <glyph glyph-name="uacute" unicode="&#xfa;" horiz-adv-x="468" 
d="M424 169q0 -87 -46.5 -134t-143.5 -47t-143.5 47t-46.5 134v342h100q29 0 29 -29v-317q0 -31 16 -47t45 -16t44.5 16.5t15.5 46.5v317q0 29 29 29h101v-342zM282 569q-12 -15 -31 -15h-83l66 119q10 18 30 18h114z" />
    <glyph glyph-name="ucircumflex" unicode="&#xfb;" horiz-adv-x="468" 
d="M424 169q0 -87 -46.5 -134t-143.5 -47t-143.5 47t-46.5 134v342h100q29 0 29 -29v-317q0 -31 16 -47t45 -16t44.5 16.5t15.5 46.5v317q0 29 29 29h101v-342zM364 655v-63q0 -23 -19 -23q-3 0 -11 2l-100 38l-100 -38q-8 -2 -10 -2q-19 0 -19 23v63l129 62z" />
    <glyph glyph-name="udieresis" unicode="&#xfc;" horiz-adv-x="468" 
d="M424 169q0 -87 -46.5 -134t-143.5 -47t-143.5 47t-46.5 134v342h100q29 0 29 -29v-317q0 -31 16 -47t45 -16t44.5 16.5t15.5 46.5v317q0 29 29 29h101v-342zM335 724q75 0 75 -65v-24q0 -31 -19 -48t-56 -17q-34 0 -54 17t-20 48v24q0 32 20 48.5t54 16.5zM130 724
q36 0 55.5 -16.5t19.5 -48.5v-24q0 -31 -19.5 -48t-55.5 -17q-35 0 -54.5 17t-19.5 48v24q0 32 19.5 48.5t54.5 16.5z" />
    <glyph glyph-name="yacute" unicode="&#xfd;" horiz-adv-x="451" 
d="M290 177v-148q0 -29 -28 -29h-101v177l-157 334h119q26 0 33 -24l70 -197l71 197q7 24 33 24h117zM273 569q-12 -15 -31 -15h-83l66 119q10 18 30 18h114z" />
    <glyph glyph-name="thorn" unicode="&#xfe;" horiz-adv-x="422" 
d="M144 511q29 0 29 -29v-48q10 1 19.5 1h18.5q99 0 148 -42.5t49 -116.5v-19q0 -79 -46.5 -122.5t-132.5 -43.5q-10 0 -25.5 1.5t-30.5 3.5v-67q0 -29 -29 -29h-100v511h100zM206 325h-18t-15 -1v-120q10 -2 19.5 -2.5t16.5 -0.5q36 0 53 15.5t17 43.5v10q0 55 -73 55z" />
    <glyph glyph-name="ydieresis" unicode="&#xff;" horiz-adv-x="451" 
d="M290 177v-148q0 -29 -28 -29h-101v177l-157 334h119q26 0 33 -24l70 -197l71 197q7 24 33 24h117zM326 724q75 0 75 -65v-24q0 -31 -19 -48t-56 -17q-34 0 -54 17t-20 48v24q0 32 20 48.5t54 16.5zM121 724q36 0 55.5 -16.5t19.5 -48.5v-24q0 -31 -19.5 -48t-55.5 -17
q-35 0 -54.5 17t-19.5 48v24q0 32 19.5 48.5t54.5 16.5z" />
    <glyph glyph-name="Amacron" unicode="&#x100;" horiz-adv-x="539" 
d="M542 0h-123q-27 0 -33 27l-24 101h-188l-24 -101q-6 -27 -34 -27h-119l190 655h165zM199 246h138l-69 295zM379 816q25 0 25 -25v-82h-245q-26 0 -26 25v82h246z" />
    <glyph glyph-name="amacron" unicode="&#x101;" horiz-adv-x="454" 
d="M457 0h-112q-25 0 -31 25l-16 69h-145l-16 -69q-6 -25 -32 -25h-108l155 511h150zM174 197h101l-49 215zM320 673q26 0 26 -26v-77h-211q-25 0 -25 26v77h210z" />
    <glyph glyph-name="Abreve" unicode="&#x102;" horiz-adv-x="539" 
d="M542 0h-123q-27 0 -33 27l-24 101h-188l-24 -101q-6 -27 -34 -27h-119l190 655h165zM199 246h138l-69 295zM388 850q8 7 17 7q13 0 13 -21v-72q-35 -31 -72.5 -45.5t-76.5 -14.5q-43 0 -78 15.5t-71 44.5v72q0 21 13 21q9 0 17 -7q20 -14 51 -28.5t68 -14.5
q36 0 67.5 14.5t51.5 28.5z" />
    <glyph glyph-name="abreve" unicode="&#x103;" horiz-adv-x="454" 
d="M457 0h-112q-25 0 -31 25l-16 69h-145l-16 -69q-6 -25 -32 -25h-108l155 511h150zM174 197h101l-49 215zM325 692q7 5 16 5q15 0 15 -21v-70q-63 -48 -128 -48t-129 49v69q0 22 15 22q6 0 15 -6q19 -12 45.5 -23.5t53.5 -11.5q26 0 52 11.5t45 23.5z" />
    <glyph glyph-name="Aogonek" unicode="&#x104;" horiz-adv-x="539" 
d="M542 0h-62q-27 -11 -37 -25.5t-10 -28.5v-6q0 -14 7 -20t20 -7h6h9q31 3 31 -26v-73q-14 -3 -23.5 -5.5t-17 -3.5t-14.5 -1.5t-16 -0.5q-57 0 -86 24.5t-29 62.5v10q0 31 19.5 56.5t51.5 44.5l-30 127h-188l-24 -101q-6 -27 -34 -27h-118l190 655h165zM198 246h138
l-69 295z" />
    <glyph glyph-name="aogonek" unicode="&#x105;" horiz-adv-x="454" 
d="M457 0h-51q-26 -14 -34.5 -27.5t-8.5 -26.5v-6q0 -28 29 -28q4 0 9.5 0.5t10.5 1.5q2 0 3 0.5t3 0.5q19 0 19 -24v-77q-21 -5 -38.5 -8t-36.5 -3q-56 0 -84 24.5t-28 62.5v10q0 30 19.5 56.5t51.5 44.5l-23 93h-145l-16 -69q-6 -25 -32 -25h-108l155 511h150zM174 197
h101l-49 215z" />
    <glyph glyph-name="Cacute" unicode="&#x106;" horiz-adv-x="454" 
d="M264 -12q-63 0 -106 13.5t-69.5 40t-38 66.5t-11.5 94v251q0 54 12 94.5t39 67t70 39.5t105 13q31 0 67 -4t94 -14l-2 -95q0 -29 -25 -29q-6 0 -9 1q-25 5 -51.5 9t-53.5 4q-31 0 -51.5 -5t-32.5 -16.5t-16.5 -31t-4.5 -48.5v-220q0 -29 5 -48t17.5 -30.5t32.5 -16.5
t50 -5q27 0 53 5l52 10q3 1 9 1q24 0 24 -28l1 -99q-51 -10 -89 -14.5t-71 -4.5zM298 723q-12 -16 -31 -16h-89l70 129q11 18 30 18h120z" />
    <glyph glyph-name="cacute" unicode="&#x107;" horiz-adv-x="394" 
d="M228 523q29 0 61.5 -3.5t75.5 -11.5v-84q0 -26 -24 -26q-6 0 -9 1q-20 4 -42.5 7t-40.5 3q-48 0 -64.5 -16.5t-16.5 -59.5v-154q0 -22 4 -36.5t13 -23t25 -12t40 -3.5q19 0 40.5 3t41.5 7q3 1 9 1q23 0 23 -26l1 -85q-45 -8 -76.5 -12t-59.5 -4q-103 0 -146.5 42.5
t-43.5 131.5v187q0 91 43.5 132.5t145.5 41.5zM267 569q-12 -15 -31 -15h-83l66 119q10 18 30 18h114z" />
    <glyph glyph-name="Ccircumflex" unicode="&#x108;" horiz-adv-x="454" 
d="M264 -12q-63 0 -106 13.5t-69.5 40t-38 66.5t-11.5 94v251q0 54 12 94.5t39 67t70 39.5t105 13q31 0 67 -4t94 -14l-2 -95q0 -29 -25 -29q-6 0 -9 1q-25 5 -51.5 9t-53.5 4q-31 0 -51.5 -5t-32.5 -16.5t-16.5 -31t-4.5 -48.5v-220q0 -29 5 -48t17.5 -30.5t32.5 -16.5
t50 -5q27 0 53 5l52 10q3 1 9 1q24 0 24 -28l1 -99q-51 -10 -89 -14.5t-71 -4.5zM402 814v-68q0 -23 -18 -23q-3 0 -11 2l-120 45l-119 -45q-8 -2 -11 -2q-19 0 -19 23v68l149 70z" />
    <glyph glyph-name="ccircumflex" unicode="&#x109;" horiz-adv-x="394" 
d="M228 523q29 0 61.5 -3.5t75.5 -11.5v-84q0 -26 -24 -26q-6 0 -9 1q-20 4 -42.5 7t-40.5 3q-48 0 -64.5 -16.5t-16.5 -59.5v-154q0 -22 4 -36.5t13 -23t25 -12t40 -3.5q19 0 40.5 3t41.5 7q3 1 9 1q23 0 23 -26l1 -85q-45 -8 -76.5 -12t-59.5 -4q-103 0 -146.5 42.5
t-43.5 131.5v187q0 91 43.5 132.5t145.5 41.5zM349 655v-63q0 -23 -19 -23q-3 0 -11 2l-100 38l-100 -38q-8 -2 -10 -2q-19 0 -19 23v63l129 62z" />
    <glyph glyph-name="Cdotaccent" unicode="&#x10a;" horiz-adv-x="454" 
d="M264 -12q-63 0 -106 13.5t-69.5 40t-38 66.5t-11.5 94v251q0 54 12 94.5t39 67t70 39.5t105 13q31 0 67 -4t94 -14l-2 -95q0 -29 -25 -29q-6 0 -9 1q-25 5 -51.5 9t-53.5 4q-31 0 -51.5 -5t-32.5 -16.5t-16.5 -31t-4.5 -48.5v-220q0 -29 5 -48t17.5 -30.5t32.5 -16.5
t50 -5q27 0 53 5l52 10q3 1 9 1q24 0 24 -28l1 -99q-51 -10 -89 -14.5t-71 -4.5zM253 868q79 0 79 -69v-25q0 -32 -20.5 -50t-58.5 -18t-58.5 18t-20.5 50v25q0 35 20.5 52t58.5 17z" />
    <glyph glyph-name="cdotaccent" unicode="&#x10b;" horiz-adv-x="394" 
d="M228 523q29 0 61.5 -3.5t75.5 -11.5v-84q0 -26 -24 -26q-6 0 -9 1q-20 4 -42.5 7t-40.5 3q-48 0 -64.5 -16.5t-16.5 -59.5v-154q0 -22 4 -36.5t13 -23t25 -12t40 -3.5q19 0 40.5 3t41.5 7q3 1 9 1q23 0 23 -26l1 -85q-45 -8 -76.5 -12t-59.5 -4q-103 0 -146.5 42.5
t-43.5 131.5v187q0 91 43.5 132.5t145.5 41.5zM219 729q79 0 79 -69v-25q0 -32 -20.5 -50t-58.5 -18t-58.5 18t-20.5 50v25q0 34 20.5 51.5t58.5 17.5z" />
    <glyph glyph-name="Ccaron" unicode="&#x10c;" horiz-adv-x="454" 
d="M264 -12q-63 0 -106 13.5t-69.5 40t-38 66.5t-11.5 94v251q0 54 12 94.5t39 67t70 39.5t105 13q31 0 67 -4t94 -14l-2 -95q0 -29 -25 -29q-6 0 -9 1q-25 5 -51.5 9t-53.5 4q-31 0 -51.5 -5t-32.5 -16.5t-16.5 -31t-4.5 -48.5v-220q0 -29 5 -48t17.5 -30.5t32.5 -16.5
t50 -5q27 0 53 5l52 10q3 1 9 1q24 0 24 -28l1 -99q-51 -10 -89 -14.5t-71 -4.5zM373 869q8 2 10 2q19 0 19 -23v-68l-149 -69l-149 69v68q0 23 19 23q2 0 10 -2l120 -45z" />
    <glyph glyph-name="ccaron" unicode="&#x10d;" horiz-adv-x="394" 
d="M228 523q29 0 61.5 -3.5t75.5 -11.5v-84q0 -26 -24 -26q-6 0 -9 1q-20 4 -42.5 7t-40.5 3q-48 0 -64.5 -16.5t-16.5 -59.5v-154q0 -22 4 -36.5t13 -23t25 -12t40 -3.5q19 0 40.5 3t41.5 7q3 1 9 1q23 0 23 -26l1 -85q-45 -8 -76.5 -12t-59.5 -4q-103 0 -146.5 42.5
t-43.5 131.5v187q0 91 43.5 132.5t145.5 41.5zM319 701q4 2 11 2q18 0 18 -23v-63l-129 -62l-130 62v63q0 23 18 23q7 0 11 -2l101 -38z" />
    <glyph glyph-name="Dcaron" unicode="&#x10e;" horiz-adv-x="534" 
d="M242 666q127 0 192.5 -70t65.5 -197v-151q0 -122 -65 -191t-204 -69q-46 0 -95.5 2t-91.5 5v666q42 2 94 3.5t104 1.5zM238 540h-27t-26 -1v-422q33 -3 53 -3q58 0 89.5 32.5t31.5 95.5v162q0 72 -31.5 104t-89.5 32zM361 869q8 2 10 2q19 0 19 -23v-68l-149 -69l-149 69
v68q0 23 19 23q2 0 10 -2l120 -45z" />
    <glyph glyph-name="dcaron" unicode="&#x10f;" horiz-adv-x="462" 
d="M210 522q104 0 161 -55.5t57 -160.5v-106q0 -102 -57 -157t-170 -55q-38 0 -76.5 1t-80.5 4v524q51 2 89.5 3.5t76.5 1.5zM208 410q-8 0 -17.5 -0.5t-18.5 -1.5v-305q11 -2 19.5 -2h16.5q44 0 67.5 23t23.5 68v111q0 61 -22 84t-69 23zM315 701q4 2 11 2q18 0 18 -23v-63
l-129 -62l-130 62v63q0 23 18 23q7 0 11 -2l101 -38z" />
    <glyph glyph-name="Dcroat" unicode="&#x110;" horiz-adv-x="556" 
d="M264 667q128 0 193 -70t65 -198v-151q0 -122 -65 -191t-204 -69q-41 0 -84.5 1.5t-102.5 5.5v289h-39q-27 0 -27 31v83h66v265q60 3 106 3.5t92 0.5zM260 542q-13 0 -26 -0.5t-27 -1.5v-142h77q28 0 28 -31v-83h-105v-167q33 -3 53 -3q58 0 89.5 32.5t31.5 95.5v162
q0 72 -31 105t-90 33z" />
    <glyph glyph-name="dcroat" unicode="&#x111;" horiz-adv-x="467" 
d="M215 522q104 0 161 -55.5t57 -160.5v-106q0 -102 -57 -157t-170 -55q-38 0 -75.5 1.5t-81.5 3.5v212h-19q-29 0 -29 29v67h48v216q51 2 89.5 3.5t76.5 1.5zM304 303q0 61 -22 84t-69 23q-8 0 -17.5 -0.5t-18.5 -1.5v-107h32q29 0 29 -29v-67h-61v-102q11 -2 19.5 -2h16.5
q44 0 67.5 23t23.5 68v111z" />
    <glyph glyph-name="Emacron" unicode="&#x112;" horiz-adv-x="455" 
d="M421 555q0 -30 -30 -30h-206v-128h186q30 0 30 -30v-68q0 -31 -30 -31h-186v-138h206q30 0 30 -30v-100h-377v655h377v-100zM341 816q25 0 25 -25v-82h-245q-26 0 -26 25v82h246z" />
    <glyph glyph-name="emacron" unicode="&#x113;" horiz-adv-x="398" 
d="M365 424q0 -29 -29 -29h-163v-81h146q29 0 29 -29v-55q0 -29 -29 -29h-146v-85h163q29 0 29 -29v-87h-321v511h321v-87zM294 673q26 0 26 -26v-77h-211q-25 0 -25 26v77h210z" />
    <glyph glyph-name="Ebreve" unicode="&#x114;" horiz-adv-x="455" 
d="M421 555q0 -30 -30 -30h-206v-128h186q30 0 30 -30v-68q0 -31 -30 -31h-186v-138h206q30 0 30 -30v-100h-377v655h377v-100zM350 850q8 7 17 7q13 0 13 -21v-72q-35 -31 -72.5 -45.5t-76.5 -14.5q-43 0 -78 15.5t-71 44.5v72q0 21 13 21q9 0 17 -7q20 -14 51 -28.5
t68 -14.5q36 0 67.5 14.5t51.5 28.5z" />
    <glyph glyph-name="ebreve" unicode="&#x115;" horiz-adv-x="398" 
d="M365 424q0 -29 -29 -29h-163v-81h146q29 0 29 -29v-55q0 -29 -29 -29h-146v-85h163q29 0 29 -29v-87h-321v511h321v-87zM299 692q7 5 16 5q15 0 15 -21v-70q-63 -48 -128 -48t-129 49v69q0 22 15 22q6 0 15 -6q19 -12 45.5 -23.5t53.5 -11.5q26 0 52 11.5t45 23.5z" />
    <glyph glyph-name="Edotaccent" unicode="&#x116;" horiz-adv-x="455" 
d="M421 555q0 -30 -30 -30h-206v-128h186q30 0 30 -30v-68q0 -31 -30 -31h-186v-138h206q30 0 30 -30v-100h-377v655h377v-100zM231 868q79 0 79 -69v-25q0 -32 -20.5 -50t-58.5 -18t-58.5 18t-20.5 50v25q0 35 20.5 52t58.5 17z" />
    <glyph glyph-name="edotaccent" unicode="&#x117;" horiz-adv-x="398" 
d="M365 424q0 -29 -29 -29h-163v-81h146q29 0 29 -29v-55q0 -29 -29 -29h-146v-85h163q29 0 29 -29v-87h-321v511h321v-87zM202 729q79 0 79 -69v-25q0 -32 -20.5 -50t-58.5 -18t-58.5 18t-20.5 50v25q0 34 20.5 51.5t58.5 17.5z" />
    <glyph glyph-name="Eogonek" unicode="&#x118;" horiz-adv-x="455" 
d="M185 397h186q30 0 30 -30v-68q0 -31 -30 -31h-186v-138h206q30 0 30 -30v-100h-76q-22 -9 -33.5 -25t-11.5 -29v-6q0 -28 29 -28q3 0 8.5 0.5t10.5 1.5q2 0 3 0.5t3 0.5q19 0 19 -24v-77q-20 -6 -38 -8.5t-36 -2.5q-56 0 -84 24.5t-28 62.5v10q0 29 18.5 55.5t50.5 44.5
h-212v655h377v-100q0 -30 -30 -30h-206v-128z" />
    <glyph glyph-name="eogonek" unicode="&#x119;" horiz-adv-x="398" 
d="M365 424q0 -29 -29 -29h-163v-81h146q29 0 29 -29v-55q0 -29 -29 -29h-146v-85h163q29 0 29 -29v-87h-66q-28 -14 -36.5 -27t-8.5 -27v-6q0 -28 28 -28q4 0 9.5 0.5t10.5 1.5q2 0 3 0.5t3 0.5q19 0 19 -24v-77q-35 -11 -74 -11q-57 0 -84.5 24.5t-27.5 62.5v10
q0 29 18 55.5t50 44.5h-165v511h321v-87z" />
    <glyph glyph-name="Ecaron" unicode="&#x11a;" horiz-adv-x="455" 
d="M421 555q0 -30 -30 -30h-206v-128h186q30 0 30 -30v-68q0 -31 -30 -31h-186v-138h206q30 0 30 -30v-100h-377v655h377v-100zM351 869q8 2 10 2q19 0 19 -23v-68l-149 -69l-149 69v68q0 23 19 23q2 0 10 -2l120 -45z" />
    <glyph glyph-name="ecaron" unicode="&#x11b;" horiz-adv-x="398" 
d="M365 424q0 -29 -29 -29h-163v-81h146q29 0 29 -29v-55q0 -29 -29 -29h-146v-85h163q29 0 29 -29v-87h-321v511h321v-87zM302 701q4 2 11 2q18 0 18 -23v-63l-129 -62l-130 62v63q0 23 18 23q7 0 11 -2l101 -38z" />
    <glyph glyph-name="Gcircumflex" unicode="&#x11c;" horiz-adv-x="522" 
d="M265 667q33 0 82 -5t109 -16l-1 -95q-2 -28 -25 -28q-5 0 -8 1q-35 6 -77 11t-73 5q-51 0 -71.5 -19.5t-20.5 -65.5v-252q0 -47 20 -67t67 -20q16 0 35 1.5t43 5.5v147h-55q-30 0 -30 31v95h220v-365q-127 -43 -219 -43q-62 0 -104 13.5t-68.5 40t-38 66.5t-11.5 94v251
q0 110 51.5 162t174.5 52zM409 814v-68q0 -23 -18 -23q-3 0 -11 2l-120 45l-119 -45q-8 -2 -11 -2q-19 0 -19 23v68l149 70z" />
    <glyph glyph-name="gcircumflex" unicode="&#x11d;" horiz-adv-x="453" 
d="M229 -12q-52 0 -88 10.5t-58.5 31.5t-33 53t-10.5 76v194q0 87 43 128.5t147 41.5q37 0 73 -4.5t87 -12.5v-81q0 -27 -24 -27q-2 0 -3.5 0.5t-3.5 0.5q-29 5 -64 8.5t-59 3.5q-38 0 -52.5 -13t-14.5 -42v-200q0 -28 14.5 -41t46.5 -13q10 0 23.5 1t29.5 3v103h-28
q-25 0 -25 28v72h153q29 0 29 -28v-264q-54 -15 -98 -22t-84 -7zM356 655v-63q0 -23 -19 -23q-3 0 -11 2l-100 38l-100 -38q-8 -2 -10 -2q-19 0 -19 23v63l129 62z" />
    <glyph glyph-name="Gbreve" unicode="&#x11e;" horiz-adv-x="522" 
d="M265 667q33 0 82 -5t109 -16l-1 -95q-2 -28 -25 -28q-5 0 -8 1q-35 6 -77 11t-73 5q-51 0 -71.5 -19.5t-20.5 -65.5v-252q0 -47 20 -67t67 -20q16 0 35 1.5t43 5.5v147h-55q-30 0 -30 31v95h220v-365q-127 -43 -219 -43q-62 0 -104 13.5t-68.5 40t-38 66.5t-11.5 94v251
q0 110 51.5 162t174.5 52zM379 850q8 7 17 7q13 0 13 -21v-72q-35 -31 -72.5 -45.5t-76.5 -14.5q-43 0 -78 15.5t-71 44.5v72q0 21 13 21q9 0 17 -7q20 -14 51 -28.5t68 -14.5q36 0 67.5 14.5t51.5 28.5z" />
    <glyph glyph-name="gbreve" unicode="&#x11f;" horiz-adv-x="453" 
d="M229 -12q-52 0 -88 10.5t-58.5 31.5t-33 53t-10.5 76v194q0 87 43 128.5t147 41.5q37 0 73 -4.5t87 -12.5v-81q0 -27 -24 -27q-2 0 -3.5 0.5t-3.5 0.5q-29 5 -64 8.5t-59 3.5q-38 0 -52.5 -13t-14.5 -42v-200q0 -28 14.5 -41t46.5 -13q10 0 23.5 1t29.5 3v103h-28
q-25 0 -25 28v72h153q29 0 29 -28v-264q-54 -15 -98 -22t-84 -7zM323 692q7 5 16 5q15 0 15 -21v-70q-63 -48 -128 -48t-129 49v69q0 22 15 22q6 0 15 -6q19 -12 45.5 -23.5t53.5 -11.5q26 0 52 11.5t45 23.5z" />
    <glyph glyph-name="Gdotaccent" unicode="&#x120;" horiz-adv-x="522" 
d="M265 667q33 0 82 -5t109 -16l-1 -95q-2 -28 -25 -28q-5 0 -8 1q-35 6 -77 11t-73 5q-51 0 -71.5 -19.5t-20.5 -65.5v-252q0 -47 20 -67t67 -20q16 0 35 1.5t43 5.5v147h-55q-30 0 -30 31v95h220v-365q-127 -43 -219 -43q-62 0 -104 13.5t-68.5 40t-38 66.5t-11.5 94v251
q0 110 51.5 162t174.5 52zM260 868q79 0 79 -69v-25q0 -32 -20.5 -50t-58.5 -18t-58.5 18t-20.5 50v25q0 35 20.5 52t58.5 17z" />
    <glyph glyph-name="gdotaccent" unicode="&#x121;" horiz-adv-x="453" 
d="M229 -12q-52 0 -88 10.5t-58.5 31.5t-33 53t-10.5 76v194q0 87 43 128.5t147 41.5q37 0 73 -4.5t87 -12.5v-81q0 -27 -24 -27q-2 0 -3.5 0.5t-3.5 0.5q-29 5 -64 8.5t-59 3.5q-38 0 -52.5 -13t-14.5 -42v-200q0 -28 14.5 -41t46.5 -13q10 0 23.5 1t29.5 3v103h-28
q-25 0 -25 28v72h153q29 0 29 -28v-264q-54 -15 -98 -22t-84 -7zM226 729q79 0 79 -69v-25q0 -32 -20.5 -50t-58.5 -18t-58.5 18t-20.5 50v25q0 34 20.5 51.5t58.5 17.5z" />
    <glyph glyph-name="uni0122" unicode="&#x122;" horiz-adv-x="522" 
d="M265 667q33 0 82 -5t109 -16l-1 -95q-2 -28 -25 -28q-5 0 -8 1q-35 6 -77 11t-73 5q-51 0 -71.5 -19.5t-20.5 -65.5v-252q0 -47 20 -67t67 -20q16 0 35 1.5t43 5.5v147h-55q-30 0 -30 31v95h220v-365q-127 -43 -219 -43q-62 0 -104 13.5t-68.5 40t-38 66.5t-11.5 94v251
q0 110 51.5 162t174.5 52zM263 -56q69 0 69 -59v-22q0 -14 -2 -26t-7 -28l-26 -80h-57q-23 0 -23 21q0 2 0.5 3.5t0.5 3.5l9 55q-31 11 -31 52v21q0 29 17.5 44t49.5 15z" />
    <glyph glyph-name="uni0123" unicode="&#x123;" horiz-adv-x="453" 
d="M229 -12q-52 0 -88 10.5t-58.5 31.5t-33 53t-10.5 76v194q0 87 43 128.5t147 41.5q37 0 73 -4.5t87 -12.5v-81q0 -27 -24 -27q-2 0 -3.5 0.5t-3.5 0.5q-29 5 -64 8.5t-59 3.5q-38 0 -52.5 -13t-14.5 -42v-200q0 -28 14.5 -41t46.5 -13q10 0 23.5 1t29.5 3v103h-28
q-25 0 -25 28v72h153q29 0 29 -28v-264q-54 -15 -98 -22t-84 -7zM232 -56q69 0 69 -59v-22q0 -14 -2.5 -26t-7.5 -28l-27 -80h-55q-23 0 -23 21q0 2 0.5 3.5t0.5 3.5l9 55q-31 11 -31 52v21q0 59 67 59z" />
    <glyph glyph-name="Hcircumflex" unicode="&#x124;" horiz-adv-x="543" 
d="M499 0h-111q-30 0 -30 31v241h-173v-241q0 -31 -31 -31h-110v655h110q31 0 31 -31v-223h173v223q0 31 30 31h111v-655zM420 814v-68q0 -23 -18 -23q-3 0 -11 2l-120 45l-119 -45q-8 -2 -11 -2q-19 0 -19 23v68l149 70z" />
    <glyph glyph-name="hcircumflex" unicode="&#x125;" horiz-adv-x="470" 
d="M427 0h-101q-29 0 -29 29v175h-124v-175q0 -29 -29 -29h-100v511h100q29 0 29 -29v-163h124v163q0 29 29 29h101v-511zM365 655v-63q0 -23 -19 -23q-3 0 -11 2l-100 38l-100 -38q-8 -2 -10 -2q-19 0 -19 23v63l129 62z" />
    <glyph glyph-name="Hbar" unicode="&#x126;" horiz-adv-x="553" 
d="M504 599h16q28 0 28 -30v-84h-44v-485h-111q-30 0 -30 31v241h-173v-241q0 -31 -31 -31h-110v485h-17q-28 0 -28 31v83h45v56h110q31 0 31 -31v-25h173v25q0 31 30 31h111v-56zM190 485v-84h173v84h-173z" />
    <glyph glyph-name="hbar" unicode="&#x127;" horiz-adv-x="473" 
d="M428 473h14q26 0 26 -28v-66h-40v-379h-100q-29 0 -29 27v177h-125v-177q0 -27 -28 -27h-101v379h-13q-27 0 -27 29v65h40v38h101q28 0 28 -27v-11h125v11q0 27 29 27h100v-38zM174 379v-60h125v60h-125z" />
    <glyph glyph-name="Itilde" unicode="&#x128;" horiz-adv-x="229" 
d="M154 655q31 0 31 -31v-624h-141v655h110zM234 836q7 3 13 3q17 0 17 -22v-65q-26 -18 -45.5 -27t-43.5 -9q-17 0 -32.5 4.5t-30.5 10.5t-29.5 10.5t-29.5 4.5q-14 0 -29 -5t-28 -10q-8 -3 -13 -3q-17 0 -17 22v65q20 17 42 26.5t47 9.5q21 0 37 -5t30.5 -10.5t27.5 -10.5
t27 -5t29 5t28 11z" />
    <glyph glyph-name="itilde" unicode="&#x129;" horiz-adv-x="216" 
d="M144 511q29 0 29 -29v-482h-129v511h100zM207 685q7 3 13 3q16 0 16 -22v-61q-18 -14 -36.5 -22t-41.5 -8q-15 0 -27.5 3.5t-25 8t-24.5 8.5t-25 4q-12 0 -24.5 -3t-23.5 -7q-8 -3 -13 -3q-16 0 -16 21v63q16 12 35.5 20t43.5 8q18 0 31.5 -4t25 -8.5t22.5 -8t23 -3.5
q11 0 23.5 3t23.5 8z" />
    <glyph glyph-name="Imacron" unicode="&#x12a;" horiz-adv-x="229" 
d="M154 655q31 0 31 -31v-624h-141v655h110zM225 816q25 0 25 -25v-82h-245q-26 0 -26 25v82h246z" />
    <glyph glyph-name="imacron" unicode="&#x12b;" horiz-adv-x="216" 
d="M144 511q29 0 29 -29v-482h-129v511h100zM200 673q26 0 26 -26v-77h-211q-25 0 -25 26v77h210z" />
    <glyph glyph-name="Ibreve" unicode="&#x12c;" horiz-adv-x="229" 
d="M154 655q31 0 31 -31v-624h-141v655h110zM234 850q8 7 17 7q13 0 13 -21v-72q-35 -31 -72.5 -45.5t-76.5 -14.5q-43 0 -78 15.5t-71 44.5v72q0 21 13 21q9 0 17 -7q20 -14 51 -28.5t68 -14.5q36 0 67.5 14.5t51.5 28.5z" />
    <glyph glyph-name="ibreve" unicode="&#x12d;" horiz-adv-x="216" 
d="M144 511q29 0 29 -29v-482h-129v511h100zM205 692q7 5 16 5q15 0 15 -21v-70q-63 -48 -128 -48t-129 49v69q0 22 15 22q6 0 15 -6q19 -12 45.5 -23.5t53.5 -11.5q26 0 52 11.5t45 23.5z" />
    <glyph glyph-name="Iogonek" unicode="&#x12e;" horiz-adv-x="229" 
d="M154 655q31 0 31 -31v-624h-56q-27 -12 -36.5 -26t-9.5 -28v-6q0 -28 29 -28q4 0 9.5 0.5t10.5 1.5q2 0 3 0.5t3 0.5q19 0 19 -24v-77q-21 -6 -39.5 -8.5t-35.5 -2.5q-56 0 -84 24.5t-28 62.5v10q0 31 20 57.5t54 45.5v652h110z" />
    <glyph glyph-name="iogonek" unicode="&#x12f;" horiz-adv-x="216" 
d="M144 511q29 0 29 -29v-482h-42q-29 -14 -37.5 -27.5t-8.5 -26.5v-6q0 -28 29 -28q3 0 8.5 0.5t10.5 1.5q2 0 3 0.5t3 0.5q19 0 19 -24v-77q-39 -11 -74 -11q-56 0 -84 24.5t-28 62.5v10q0 30 19.5 56.5t52.5 45.5v509h100z" />
    <glyph glyph-name="Idotaccent" unicode="&#x130;" horiz-adv-x="216" 
d="M144 511q29 0 29 -29v-482h-129v511h100zM108 729q79 0 79 -69v-25q0 -32 -20.5 -50t-58.5 -18t-58.5 18t-20.5 50v25q0 34 20.5 51.5t58.5 17.5z" />
    <glyph glyph-name="dotlessi" unicode="&#x131;" horiz-adv-x="216" 
d="M144 511q29 0 29 -29v-482h-129v511h100z" />
    <glyph glyph-name="IJ" unicode="&#x132;" horiz-adv-x="540" 
d="M154 655q31 0 31 -31v-624h-141v655h110zM465 655q31 0 31 -31v-441q0 -100 -43 -147.5t-129 -47.5q-14 0 -38 2t-59 11v89q0 29 26 29q2 0 3.5 -0.5t3.5 -0.5q11 -2 23 -3t23 -1q25 0 37 14t12 49v478h110z" />
    <glyph glyph-name="ij" unicode="&#x133;" horiz-adv-x="493" 
d="M144 511q29 0 29 -29v-482h-129v511h100zM421 511q28 0 28 -29v-329q0 -87 -36.5 -126t-109.5 -39q-47 0 -89 11v80q0 26 22 26q2 0 3.5 -0.5t3.5 -0.5q8 -2 18.5 -2.5t19.5 -0.5q21 0 30 10.5t9 38.5v361h101z" />
    <glyph glyph-name="Jcircumflex" unicode="&#x134;" horiz-adv-x="311" 
d="M236 655q31 0 31 -31v-441q0 -100 -43 -147.5t-129 -47.5q-14 0 -38 2t-59 11v89q0 29 26 29q2 0 3.5 -0.5t3.5 -0.5q11 -2 23 -3t23 -1q25 0 37 14t12 49v478h110zM345 814v-68q0 -23 -18 -23q-3 0 -11 2l-120 45l-119 -45q-8 -2 -11 -2q-19 0 -19 23v68l149 70z" />
    <glyph glyph-name="jcircumflex" unicode="&#x135;" horiz-adv-x="277" 
d="M205 511q28 0 28 -29v-329q0 -87 -36.5 -126t-109.5 -39q-47 0 -89 11v80q0 26 22 26q2 0 3.5 -0.5t3.5 -0.5q8 -2 18.5 -2.5t19.5 -0.5q21 0 30 10.5t9 38.5v361h101zM299 655v-63q0 -23 -19 -23q-3 0 -11 2l-100 38l-100 -38q-8 -2 -10 -2q-19 0 -19 23v63l129 62z" />
    <glyph glyph-name="uni0136" unicode="&#x136;" horiz-adv-x="538" 
d="M296 334l248 -334h-144q-24 0 -38 19l-177 251v-239q0 -31 -31 -31h-110v655h110q31 0 31 -31v-250l179 261q14 20 38 20h123zM272 -56q69 0 69 -59v-22q0 -14 -2 -26t-7 -28l-26 -80h-57q-23 0 -23 21q0 2 0.5 3.5t0.5 3.5l9 55q-31 11 -31 52v21q0 29 17.5 44t49.5 15z
" />
    <glyph glyph-name="uni0137" unicode="&#x137;" horiz-adv-x="464" 
d="M280 264l190 -264h-130q-23 0 -35 18l-132 187v-176q0 -29 -29 -29h-100v511h100q29 0 29 -29v-184l135 195q12 18 34 18h113zM239 -56q69 0 69 -59v-22q0 -14 -2.5 -26t-7.5 -28l-27 -80h-55q-23 0 -23 21q0 2 0.5 3.5t0.5 3.5l9 55q-31 11 -31 52v21q0 59 67 59z" />
    <glyph glyph-name="kgreenlandic" unicode="&#x138;" horiz-adv-x="464" 
d="M280 264l190 -264h-130q-23 0 -35 18l-132 187v-176q0 -29 -29 -29h-100v511h100q29 0 29 -29v-184l135 195q12 18 34 18h113z" />
    <glyph glyph-name="Lacute" unicode="&#x139;" horiz-adv-x="437" 
d="M154 655q31 0 31 -31v-495h209q30 0 30 -30v-99h-380v655h110zM168 723q-12 -16 -31 -16h-89l70 129q11 18 30 18h120z" />
    <glyph glyph-name="lacute" unicode="&#x13a;" horiz-adv-x="380" 
d="M144 511q29 0 29 -29v-366h166q29 0 29 -29v-87h-324v511h100zM173 569q-12 -15 -31 -15h-83l66 119q10 18 30 18h114z" />
    <glyph glyph-name="uni013B" unicode="&#x13b;" horiz-adv-x="437" 
d="M154 655q31 0 31 -31v-495h209q30 0 30 -30v-99h-380v655h110zM224 -56q69 0 69 -59v-22q0 -14 -2 -26t-7 -28l-26 -80h-57q-23 0 -23 21q0 2 0.5 3.5t0.5 3.5l9 55q-31 11 -31 52v21q0 29 17.5 44t49.5 15z" />
    <glyph glyph-name="uni013C" unicode="&#x13c;" horiz-adv-x="380" 
d="M144 511q29 0 29 -29v-366h166q29 0 29 -29v-87h-324v511h100zM197 -56q69 0 69 -59v-22q0 -14 -2.5 -26t-7.5 -28l-27 -80h-55q-23 0 -23 21q0 2 0.5 3.5t0.5 3.5l9 55q-31 11 -31 52v21q0 59 67 59z" />
    <glyph glyph-name="Lcaron" unicode="&#x13d;" horiz-adv-x="437" 
d="M154 655q31 0 31 -31v-495h209q30 0 30 -30v-99h-380v655h110zM296 668q69 0 69 -59v-22q0 -14 -2 -26t-7 -28l-27 -80h-56q-23 0 -23 21q0 2 0.5 3.5t0.5 3.5l9 55q-31 11 -31 52v21q0 29 17.5 44t49.5 15z" />
    <glyph glyph-name="lcaron" unicode="&#x13e;" horiz-adv-x="384" 
d="M144 511q29 0 29 -29v-366h166q29 0 29 -29v-87h-324v511h100zM279 524q69 0 69 -59v-22q0 -14 -2 -26t-7 -28l-27 -80h-56q-23 0 -23 21q0 2 0.5 3.5t0.5 3.5l9 55q-31 11 -31 52v21q0 29 17.5 44t49.5 15z" />
    <glyph glyph-name="Ldot" unicode="&#x13f;" horiz-adv-x="435" 
d="M154 655q31 0 31 -31v-495h209q30 0 30 -30v-99h-380v655h110zM326 463q79 0 79 -69v-25q0 -32 -20.5 -50t-58.5 -18t-58.5 18t-20.5 50v25q0 35 20.5 52t58.5 17z" />
    <glyph glyph-name="ldot" unicode="&#x140;" horiz-adv-x="395" 
d="M144 511q29 0 29 -29v-366h166q29 0 29 -29v-87h-324v511h100zM302 388q79 0 79 -69v-25q0 -32 -20.5 -50t-58.5 -18t-58.5 18t-20.5 50v25q0 34 20.5 51.5t58.5 17.5z" />
    <glyph glyph-name="Lslash" unicode="&#x141;" horiz-adv-x="460" 
d="M177 655q30 0 30 -31v-208l111 32v-91q0 -28 -26 -34l-85 -24v-170h209q31 0 31 -30v-99h-381v260l-64 -17v89q0 28 26 35l38 10v278h111z" />
    <glyph glyph-name="lslash" unicode="&#x142;" horiz-adv-x="385" 
d="M149 511q29 0 29 -29v-145l61 16v-61q0 -14 -5 -21t-19 -10l-37 -10v-135h166q29 0 29 -29v-87h-324v216l-45 -11v64q0 11 5 18.5t19 10.5l21 5v208h100z" />
    <glyph glyph-name="Nacute" unicode="&#x143;" horiz-adv-x="545" 
d="M44 655h154q26 0 35 -25l132 -382v376q0 31 31 31h105v-655h-147q-28 0 -38 27l-137 380v-376q0 -31 -30 -31h-105v655zM319 723q-12 -16 -31 -16h-89l70 129q11 18 30 18h120z" />
    <glyph glyph-name="nacute" unicode="&#x144;" horiz-adv-x="471" 
d="M428 0h-119q-24 0 -33 22l-108 268v-261q0 -29 -29 -29h-95v511h125q23 0 32 -23l104 -263v257q0 29 28 29h95v-511zM285 569q-12 -15 -31 -15h-83l66 119q10 18 30 18h114z" />
    <glyph glyph-name="uni0145" unicode="&#x145;" horiz-adv-x="545" 
d="M44 655h154q26 0 35 -25l132 -382v376q0 31 31 31h105v-655h-147q-28 0 -38 27l-137 380v-376q0 -31 -30 -31h-105v655zM274 -56q69 0 69 -59v-22q0 -14 -2 -26t-7 -28l-26 -80h-57q-23 0 -23 21q0 2 0.5 3.5t0.5 3.5l9 55q-31 11 -31 52v21q0 29 17.5 44t49.5 15z" />
    <glyph glyph-name="uni0146" unicode="&#x146;" horiz-adv-x="471" 
d="M428 0h-119q-24 0 -33 22l-108 268v-261q0 -29 -29 -29h-95v511h125q23 0 32 -23l104 -263v257q0 29 28 29h95v-511zM236 -56q69 0 69 -59v-22q0 -14 -2.5 -26t-7.5 -28l-27 -80h-55q-23 0 -23 21q0 2 0.5 3.5t0.5 3.5l9 55q-31 11 -31 52v21q0 59 67 59z" />
    <glyph glyph-name="Ncaron" unicode="&#x147;" horiz-adv-x="545" 
d="M44 655h154q26 0 35 -25l132 -382v376q0 31 31 31h105v-655h-147q-28 0 -38 27l-137 380v-376q0 -31 -30 -31h-105v655zM394 869q8 2 10 2q19 0 19 -23v-68l-149 -69l-149 69v68q0 23 19 23q2 0 10 -2l120 -45z" />
    <glyph glyph-name="ncaron" unicode="&#x148;" horiz-adv-x="471" 
d="M428 0h-119q-24 0 -33 22l-108 268v-261q0 -29 -29 -29h-95v511h125q23 0 32 -23l104 -263v257q0 29 28 29h95v-511zM337 701q4 2 11 2q18 0 18 -23v-63l-129 -62l-130 62v63q0 23 18 23q7 0 11 -2l101 -38z" />
    <glyph glyph-name="napostrophe" unicode="&#x149;" horiz-adv-x="471" 
d="M428 0h-119q-24 0 -33 22l-108 268v-261q0 -29 -29 -29h-95v511h125q23 0 32 -23l104 -263v257q0 29 28 29h95v-511z" />
    <glyph glyph-name="Eng" unicode="&#x14a;" horiz-adv-x="545" 
d="M501 15q0 -100 -43 -147.5t-129 -47.5q-24 0 -50 2.5t-47 8.5v91q0 29 25 29q2 0 3.5 -0.5t3.5 -0.5q11 -2 23.5 -3t23.5 -1q26 0 40.5 11t14.5 38v5h-15q-26 0 -35 25l-137 382v-376q0 -31 -30 -31h-105v655h154q26 0 35 -25l132 -382v376q0 31 31 31h105v-640z" />
    <glyph glyph-name="eng" unicode="&#x14b;" horiz-adv-x="471" 
d="M428 -12q0 -86 -36 -125t-109 -39q-19 0 -39.5 2.5t-40.5 7.5v81q0 26 22 26q2 0 3 -0.5t3 -0.5q15 -3 33 -3q20 0 31 10t11 39v15h-4q-10 0 -15.5 5t-10.5 16l-108 268v-261q0 -29 -29 -29h-95v511h125q23 0 32 -23l104 -263v257q0 29 28 29h95v-523z" />
    <glyph glyph-name="Omacron" unicode="&#x14c;" horiz-adv-x="538" 
d="M269 667q118 0 174 -58t56 -167v-229q0 -106 -55 -165.5t-175 -59.5q-121 0 -175.5 59.5t-54.5 165.5v229q0 109 55 167t175 58zM269 539q-89 0 -89 -88v-245q0 -90 89 -90t89 90v244q0 89 -89 89zM379 816q25 0 25 -25v-82h-245q-26 0 -26 25v82h246z" />
    <glyph glyph-name="omacron" unicode="&#x14d;" horiz-adv-x="464" 
d="M232 523q97 0 145.5 -46.5t48.5 -137.5v-167q0 -89 -47 -136.5t-147 -47.5t-146.5 47.5t-46.5 136.5v167q0 91 48 137.5t145 46.5zM232 409q-32 0 -48 -16t-16 -45v-181q0 -31 16 -48t48 -17t48.5 16.5t16.5 45.5v180q0 65 -65 65zM324 673q26 0 26 -26v-77h-211
q-25 0 -25 26v77h210z" />
    <glyph glyph-name="Obreve" unicode="&#x14e;" horiz-adv-x="538" 
d="M269 667q118 0 174 -58t56 -167v-229q0 -106 -55 -165.5t-175 -59.5q-121 0 -175.5 59.5t-54.5 165.5v229q0 109 55 167t175 58zM269 539q-89 0 -89 -88v-245q0 -90 89 -90t89 90v244q0 89 -89 89zM388 850q8 7 17 7q13 0 13 -21v-72q-35 -31 -72.5 -45.5t-76.5 -14.5
q-43 0 -78 15.5t-71 44.5v72q0 21 13 21q9 0 17 -7q20 -14 51 -28.5t68 -14.5q36 0 67.5 14.5t51.5 28.5z" />
    <glyph glyph-name="obreve" unicode="&#x14f;" horiz-adv-x="464" 
d="M232 523q97 0 145.5 -46.5t48.5 -137.5v-167q0 -89 -47 -136.5t-147 -47.5t-146.5 47.5t-46.5 136.5v167q0 91 48 137.5t145 46.5zM232 409q-32 0 -48 -16t-16 -45v-181q0 -31 16 -48t48 -17t48.5 16.5t16.5 45.5v180q0 65 -65 65zM329 692q7 5 16 5q15 0 15 -21v-70
q-63 -48 -128 -48t-129 49v69q0 22 15 22q6 0 15 -6q19 -12 45.5 -23.5t53.5 -11.5q26 0 52 11.5t45 23.5z" />
    <glyph glyph-name="Ohungarumlaut" unicode="&#x150;" horiz-adv-x="538" 
d="M269 667q118 0 174 -58t56 -167v-229q0 -106 -55 -165.5t-175 -59.5q-121 0 -175.5 59.5t-54.5 165.5v229q0 109 55 167t175 58zM269 539q-89 0 -89 -88v-245q0 -90 89 -90t89 90v244q0 89 -89 89zM417 725q-11 -18 -30 -18h-93l62 140q9 19 29 19h112zM241 725
q-12 -18 -31 -18h-92l61 140q9 19 30 19h111z" />
    <glyph glyph-name="ohungarumlaut" unicode="&#x151;" horiz-adv-x="464" 
d="M232 523q97 0 145.5 -46.5t48.5 -137.5v-167q0 -89 -47 -136.5t-147 -47.5t-146.5 47.5t-46.5 136.5v167q0 91 48 137.5t145 46.5zM232 409q-32 0 -48 -16t-16 -45v-181q0 -31 16 -48t48 -17t48.5 16.5t16.5 45.5v180q0 65 -65 65zM369 571q-11 -17 -31 -17h-82l61 126
q10 18 31 18h100zM206 571q-11 -17 -31 -17h-81l60 126q10 18 30 18h101z" />
    <glyph glyph-name="OE" unicode="&#x152;" horiz-adv-x="741" 
d="M255 667q21 0 45.5 -3.5t45.5 -8.5h361v-100q0 -30 -31 -30h-201v-128h181q31 0 31 -30v-68q0 -31 -31 -31h-181v-138h201q31 0 31 -30v-100h-368q-38 -12 -79 -12q-110 0 -165.5 57.5t-55.5 167.5v229q0 111 55.5 168t160.5 57zM268 541q-88 0 -88 -88v-249
q0 -46 22 -68t62 -22q21 0 37.5 2.5t33.5 9.5v401q-14 6 -30 10t-37 4z" />
    <glyph glyph-name="oe" unicode="&#x153;" horiz-adv-x="633" 
d="M229 523q23 0 46.5 -3.5t41.5 -8.5h283v-87q0 -29 -29 -29h-163v-81h146q29 0 29 -29v-55q0 -29 -29 -29h-146v-85h163q29 0 29 -29v-87h-295q-17 -5 -36.5 -8.5t-36.5 -3.5q-100 0 -146.5 47.5t-46.5 136.5v167q0 91 47.5 137.5t142.5 46.5zM231 409q-32 0 -47.5 -16
t-15.5 -45v-181q0 -31 16 -48t48 -17q27 0 47 6v290q-22 11 -48 11z" />
    <glyph glyph-name="Racute" unicode="&#x154;" horiz-adv-x="523" 
d="M233 666q127 0 183.5 -51t56.5 -138v-22q0 -51 -25.5 -94.5t-76.5 -69.5l157 -291h-128q-28 0 -39 23l-120 228q-4 0 -9 -0.5t-11 -0.5q-8 0 -17.5 0.5t-18.5 1.5v-221q0 -31 -31 -31h-110v661q71 2 117.5 3.5t71.5 1.5zM235 542q-9 0 -24 -0.5t-26 -2.5v-163
q16 -2 27 -2.5t22 -0.5q53 0 75.5 21.5t22.5 59.5v14q0 36 -22.5 55t-74.5 19zM287 723q-12 -16 -31 -16h-89l70 129q11 18 30 18h120z" />
    <glyph glyph-name="racute" unicode="&#x155;" horiz-adv-x="451" 
d="M204 522q105 0 153.5 -40.5t48.5 -109.5v-13q0 -43 -21.5 -79t-60.5 -56l132 -224h-120q-24 0 -34 20l-97 173h-17t-15 1v-165q0 -29 -29 -29h-100v517q44 2 83 3.5t77 1.5zM209 412q-8 0 -18 -0.5t-18 -1.5v-110q9 -2 18 -2h17q36 0 52.5 14.5t16.5 39.5v10q0 50 -68 50
zM251 569q-12 -15 -31 -15h-83l66 119q10 18 30 18h114z" />
    <glyph glyph-name="uni0156" unicode="&#x156;" horiz-adv-x="523" 
d="M233 666q127 0 183.5 -51t56.5 -138v-22q0 -51 -25.5 -94.5t-76.5 -69.5l157 -291h-128q-28 0 -39 23l-120 228q-4 0 -9 -0.5t-11 -0.5q-8 0 -17.5 0.5t-18.5 1.5v-221q0 -31 -31 -31h-110v661q71 2 117.5 3.5t71.5 1.5zM235 542q-9 0 -24 -0.5t-26 -2.5v-163
q16 -2 27 -2.5t22 -0.5q53 0 75.5 21.5t22.5 59.5v14q0 36 -22.5 55t-74.5 19zM264 -56q69 0 69 -59v-22q0 -14 -2 -26t-7 -28l-26 -80h-57q-23 0 -23 21q0 2 0.5 3.5t0.5 3.5l9 55q-31 11 -31 52v21q0 29 17.5 44t49.5 15z" />
    <glyph glyph-name="uni0157" unicode="&#x157;" horiz-adv-x="451" 
d="M204 522q105 0 153.5 -40.5t48.5 -109.5v-13q0 -43 -21.5 -79t-60.5 -56l132 -224h-120q-24 0 -34 20l-97 173h-17t-15 1v-165q0 -29 -29 -29h-100v517q44 2 83 3.5t77 1.5zM209 412q-8 0 -18 -0.5t-18 -1.5v-110q9 -2 18 -2h17q36 0 52.5 14.5t16.5 39.5v10q0 50 -68 50
zM244 -56q69 0 69 -59v-22q0 -14 -2.5 -26t-7.5 -28l-27 -80h-55q-23 0 -23 21q0 2 0.5 3.5t0.5 3.5l9 55q-31 11 -31 52v21q0 59 67 59z" />
    <glyph glyph-name="Rcaron" unicode="&#x158;" horiz-adv-x="523" 
d="M233 666q127 0 183.5 -51t56.5 -138v-22q0 -51 -25.5 -94.5t-76.5 -69.5l157 -291h-128q-28 0 -39 23l-120 228q-4 0 -9 -0.5t-11 -0.5q-8 0 -17.5 0.5t-18.5 1.5v-221q0 -31 -31 -31h-110v661q71 2 117.5 3.5t71.5 1.5zM235 542q-9 0 -24 -0.5t-26 -2.5v-163
q16 -2 27 -2.5t22 -0.5q53 0 75.5 21.5t22.5 59.5v14q0 36 -22.5 55t-74.5 19zM362 869q8 2 10 2q19 0 19 -23v-68l-149 -69l-149 69v68q0 23 19 23q2 0 10 -2l120 -45z" />
    <glyph glyph-name="rcaron" unicode="&#x159;" horiz-adv-x="451" 
d="M204 522q105 0 153.5 -40.5t48.5 -109.5v-13q0 -43 -21.5 -79t-60.5 -56l132 -224h-120q-24 0 -34 20l-97 173h-17t-15 1v-165q0 -29 -29 -29h-100v517q44 2 83 3.5t77 1.5zM209 412q-8 0 -18 -0.5t-18 -1.5v-110q9 -2 18 -2h17q36 0 52.5 14.5t16.5 39.5v10q0 50 -68 50
zM303 701q4 2 11 2q18 0 18 -23v-63l-129 -62l-130 62v63q0 23 18 23q7 0 11 -2l101 -38z" />
    <glyph glyph-name="Sacute" unicode="&#x15a;" horiz-adv-x="458" 
d="M236 667q29 0 67 -4t95 -13l-2 -97q-2 -30 -27 -30q-6 0 -9 1q-32 6 -64.5 10.5t-56.5 4.5q-39 0 -55.5 -15t-16.5 -42v-17q0 -21 10 -32.5t42 -22.5l85 -28q36 -12 61.5 -27.5t41.5 -37t23 -51t7 -68.5v-19q0 -93 -53 -142t-176 -49q-29 0 -69 5t-99 18l2 100
q0 28 22 28q3 0 11 -2q34 -8 68.5 -13.5t60.5 -5.5q51 0 71.5 16t20.5 43v22q0 22 -9.5 34t-32.5 20l-93 31q-38 13 -64 28.5t-41.5 36.5t-22.5 50t-7 68v10q0 92 49.5 141t160.5 49zM275 723q-12 -16 -31 -16h-89l70 129q11 18 30 18h120z" />
    <glyph glyph-name="sacute" unicode="&#x15b;" horiz-adv-x="390" 
d="M201 523q31 0 65 -3t70 -10l-1 -86q0 -27 -22 -27q-6 0 -9 1q-28 5 -54.5 8t-44.5 3q-29 0 -40.5 -9.5t-11.5 -26.5v-11q0 -14 7.5 -22t29.5 -14l69 -22q31 -10 52.5 -22.5t35 -29.5t19.5 -40t6 -54v-18q0 -74 -43.5 -113t-142.5 -39q-26 0 -67 5t-81 14l1 87q0 26 23 26
q5 0 8 -1q29 -6 56.5 -10.5t47.5 -4.5q39 0 53.5 10t14.5 28v14q0 14 -6.5 22.5t-25.5 14.5l-71 22q-32 10 -54 23t-35.5 30t-19.5 40t-6 53v10q0 73 41.5 112.5t135.5 39.5zM233 569q-12 -15 -31 -15h-83l66 119q10 18 30 18h114z" />
    <glyph glyph-name="Scircumflex" unicode="&#x15c;" horiz-adv-x="458" 
d="M236 667q29 0 67 -4t95 -13l-2 -97q-2 -30 -27 -30q-6 0 -9 1q-32 6 -64.5 10.5t-56.5 4.5q-39 0 -55.5 -15t-16.5 -42v-17q0 -21 10 -32.5t42 -22.5l85 -28q36 -12 61.5 -27.5t41.5 -37t23 -51t7 -68.5v-19q0 -93 -53 -142t-176 -49q-29 0 -69 5t-99 18l2 100
q0 28 22 28q3 0 11 -2q34 -8 68.5 -13.5t60.5 -5.5q51 0 71.5 16t20.5 43v22q0 22 -9.5 34t-32.5 20l-93 31q-38 13 -64 28.5t-41.5 36.5t-22.5 50t-7 68v10q0 92 49.5 141t160.5 49zM379 814v-68q0 -23 -18 -23q-3 0 -11 2l-120 45l-119 -45q-8 -2 -11 -2q-19 0 -19 23v68
l149 70z" />
    <glyph glyph-name="scircumflex" unicode="&#x15d;" horiz-adv-x="390" 
d="M201 523q31 0 65 -3t70 -10l-1 -86q0 -27 -22 -27q-6 0 -9 1q-28 5 -54.5 8t-44.5 3q-29 0 -40.5 -9.5t-11.5 -26.5v-11q0 -14 7.5 -22t29.5 -14l69 -22q31 -10 52.5 -22.5t35 -29.5t19.5 -40t6 -54v-18q0 -74 -43.5 -113t-142.5 -39q-26 0 -67 5t-81 14l1 87q0 26 23 26
q5 0 8 -1q29 -6 56.5 -10.5t47.5 -4.5q39 0 53.5 10t14.5 28v14q0 14 -6.5 22.5t-25.5 14.5l-71 22q-32 10 -54 23t-35.5 30t-19.5 40t-6 53v10q0 73 41.5 112.5t135.5 39.5zM315 655v-63q0 -23 -19 -23q-3 0 -11 2l-100 38l-100 -38q-8 -2 -10 -2q-19 0 -19 23v63l129 62z
" />
    <glyph glyph-name="Scedilla" unicode="&#x15e;" horiz-adv-x="458" 
d="M236 667q31 0 70.5 -4t91.5 -13l-2 -96q0 -31 -27 -31q-6 0 -9 1q-33 7 -65 11t-56 4q-39 0 -55.5 -15t-16.5 -42v-17q0 -21 10 -32.5t42 -22.5l85 -28q36 -12 61.5 -27.5t41.5 -37t23 -51t7 -68.5v-19q0 -79 -37 -126t-123 -60l-7 -24h9q29 0 45 -19t16 -45v-18
q0 -39 -27 -61.5t-87 -22.5q-26 0 -41.5 2t-32.5 5v54q0 12 3 16.5t10 4.5h5q7 -2 15.5 -2.5t14.5 -0.5q29 0 29 21v6q0 23 -27 23h-15q-18 0 -18 15q0 9 4 18l7 24q-20 2 -58 7t-82 15l2 100q0 28 22 28q3 0 11 -2q34 -8 68.5 -13.5t60.5 -5.5q51 0 71.5 16t20.5 43v22
q0 22 -9.5 34t-32.5 20l-93 31q-38 13 -64 28.5t-41.5 36.5t-22.5 50t-7 68v10q0 92 49.5 141t160.5 49z" />
    <glyph glyph-name="scedilla" unicode="&#x15f;" horiz-adv-x="390" 
d="M259 304q31 -10 52.5 -22.5t35 -29.5t19.5 -40t6 -54v-18q0 -64 -32 -101.5t-104 -47.5l-7 -22h9q29 0 45 -19t16 -45v-18q0 -39 -26.5 -61.5t-87.5 -22.5q-22 0 -39.5 2t-34.5 5v54q0 12 3 16.5t10 4.5h5q15 -3 31 -3t22 5.5t6 15.5v6q0 23 -27 23h-15q-18 0 -18 15
q0 9 4 18l8 26q-20 2 -44 5t-58 11l1 87q0 26 23 26q5 0 8 -1q29 -6 56.5 -10.5t47.5 -4.5q39 0 53.5 10t14.5 28v14q0 14 -6.5 22.5t-25.5 14.5l-71 22q-32 10 -54 23t-35.5 30t-19.5 40t-6 53v10q0 73 41.5 112.5t135.5 39.5q25 0 59 -2.5t76 -10.5l-1 -86q0 -27 -22 -27
q-6 0 -9 1q-28 5 -54.5 8t-44.5 3q-29 0 -40.5 -9.5t-11.5 -26.5v-11q0 -14 7.5 -22t29.5 -14z" />
    <glyph glyph-name="Scaron" unicode="&#x160;" horiz-adv-x="458" 
d="M236 667q29 0 67 -4t95 -13l-2 -97q-2 -30 -27 -30q-6 0 -9 1q-32 6 -64.5 10.5t-56.5 4.5q-39 0 -55.5 -15t-16.5 -42v-17q0 -21 10 -32.5t42 -22.5l85 -28q36 -12 61.5 -27.5t41.5 -37t23 -51t7 -68.5v-19q0 -93 -53 -142t-176 -49q-29 0 -69 5t-99 18l2 100
q0 28 22 28q3 0 11 -2q34 -8 68.5 -13.5t60.5 -5.5q51 0 71.5 16t20.5 43v22q0 22 -9.5 34t-32.5 20l-93 31q-38 13 -64 28.5t-41.5 36.5t-22.5 50t-7 68v10q0 92 49.5 141t160.5 49zM350 869q8 2 10 2q19 0 19 -23v-68l-149 -69l-149 69v68q0 23 19 23q2 0 10 -2l120 -45z
" />
    <glyph glyph-name="scaron" unicode="&#x161;" horiz-adv-x="390" 
d="M201 523q31 0 65 -3t70 -10l-1 -86q0 -27 -22 -27q-6 0 -9 1q-28 5 -54.5 8t-44.5 3q-29 0 -40.5 -9.5t-11.5 -26.5v-11q0 -14 7.5 -22t29.5 -14l69 -22q31 -10 52.5 -22.5t35 -29.5t19.5 -40t6 -54v-18q0 -74 -43.5 -113t-142.5 -39q-26 0 -67 5t-81 14l1 87q0 26 23 26
q5 0 8 -1q29 -6 56.5 -10.5t47.5 -4.5q39 0 53.5 10t14.5 28v14q0 14 -6.5 22.5t-25.5 14.5l-71 22q-32 10 -54 23t-35.5 30t-19.5 40t-6 53v10q0 73 41.5 112.5t135.5 39.5zM285 701q4 2 11 2q18 0 18 -23v-63l-129 -62l-130 62v63q0 23 18 23q7 0 11 -2l101 -38z" />
    <glyph glyph-name="uni0162" unicode="&#x162;" horiz-adv-x="520" 
d="M504 555q0 -30 -31 -30h-142v-494q0 -31 -31 -31h-25l-10 -31h10q29 0 45 -19t16 -45v-18q0 -39 -27 -61.5t-88 -22.5q-23 0 -38.5 1.5t-35.5 5.5v54q0 12 3.5 16.5t10.5 4.5h4q15 -3 31 -3t22 5.5t6 15.5v6q0 11 -6 17t-21 6h-15q-17 0 -17 15q0 7 3 18l21 65v495h-142
q-31 0 -31 30v100h488v-100z" />
    <glyph glyph-name="uni0163" unicode="&#x163;" horiz-adv-x="441" 
d="M425 424q0 -29 -29 -29h-111v-366q0 -29 -28 -29h-15l-11 -31h9q29 0 45 -19t16 -45v-18q0 -39 -26.5 -61.5t-87.5 -22.5q-19 0 -35 1t-39 6v54q0 12 3 16.5t10 4.5h5q15 -3 31 -3t22 5.5t6 15.5v6q0 23 -27 23h-15q-18 0 -18 15q0 9 4 18l23 68v362h-112q-29 0 -29 29
v87h409v-87z" />
    <glyph glyph-name="Tcaron" unicode="&#x164;" horiz-adv-x="520" 
d="M504 555q0 -30 -31 -30h-142v-494q0 -31 -31 -31h-111v525h-142q-31 0 -31 30v100h488v-100zM380 869q8 2 10 2q19 0 19 -23v-68l-149 -69l-149 69v68q0 23 19 23q2 0 10 -2l120 -45z" />
    <glyph glyph-name="tcaron" unicode="&#x165;" horiz-adv-x="441" 
d="M425 424q0 -29 -29 -29h-111v-366q0 -29 -28 -29h-100v395h-112q-29 0 -29 29v87h409v-87zM319 701q4 2 11 2q18 0 18 -23v-63l-129 -62l-130 62v63q0 23 18 23q7 0 11 -2l101 -38z" />
    <glyph glyph-name="Tbar" unicode="&#x166;" horiz-adv-x="519" 
d="M503 555q0 -30 -30 -30h-142v-128h63q28 0 28 -30v-85h-91v-251q0 -31 -31 -31h-111v282h-63q-27 0 -27 30v85h90v128h-142q-31 0 -31 30v100h487v-100z" />
    <glyph glyph-name="tbar" unicode="&#x167;" horiz-adv-x="441" 
d="M425 424q0 -29 -29 -29h-111v-94h38q29 0 29 -29v-66h-67v-177q0 -29 -28 -29h-100v206h-39q-28 0 -28 29v66h67v94h-112q-29 0 -29 29v87h409v-87z" />
    <glyph glyph-name="Utilde" unicode="&#x168;" horiz-adv-x="539" 
d="M495 214q0 -106 -54 -166t-172 -60q-116 0 -170.5 59t-54.5 166v442h110q31 0 31 -31v-418q0 -45 21.5 -67.5t62.5 -22.5q85 0 85 90v418q0 31 30 31h111v-441zM389 836q7 3 13 3q17 0 17 -22v-65q-26 -18 -45.5 -27t-43.5 -9q-17 0 -32.5 4.5t-30.5 10.5t-29.5 10.5
t-29.5 4.5q-14 0 -29 -5t-28 -10q-8 -3 -13 -3q-17 0 -17 22v65q20 17 42 26.5t47 9.5q21 0 37 -5t30.5 -10.5t27.5 -10.5t27 -5t29 5t28 11z" />
    <glyph glyph-name="utilde" unicode="&#x169;" horiz-adv-x="468" 
d="M424 169q0 -87 -46.5 -134t-143.5 -47t-143.5 47t-46.5 134v342h100q29 0 29 -29v-317q0 -31 16 -47t45 -16t44.5 16.5t15.5 46.5v317q0 29 29 29h101v-342zM333 685q7 3 13 3q16 0 16 -22v-61q-18 -14 -36.5 -22t-41.5 -8q-15 0 -27.5 3.5t-25 8t-24.5 8.5t-25 4
q-12 0 -24.5 -3t-23.5 -7q-8 -3 -13 -3q-16 0 -16 21v63q16 12 35.5 20t43.5 8q18 0 31.5 -4t25 -8.5t22.5 -8t23 -3.5q11 0 23.5 3t23.5 8z" />
    <glyph glyph-name="Umacron" unicode="&#x16a;" horiz-adv-x="539" 
d="M495 214q0 -106 -54 -166t-172 -60q-116 0 -170.5 59t-54.5 166v442h110q31 0 31 -31v-418q0 -45 21.5 -67.5t62.5 -22.5q85 0 85 90v418q0 31 30 31h111v-441zM380 816q25 0 25 -25v-82h-245q-26 0 -26 25v82h246z" />
    <glyph glyph-name="umacron" unicode="&#x16b;" horiz-adv-x="468" 
d="M424 169q0 -87 -46.5 -134t-143.5 -47t-143.5 47t-46.5 134v342h100q29 0 29 -29v-317q0 -31 16 -47t45 -16t44.5 16.5t15.5 46.5v317q0 29 29 29h101v-342zM326 673q26 0 26 -26v-77h-211q-25 0 -25 26v77h210z" />
    <glyph glyph-name="Ubreve" unicode="&#x16c;" horiz-adv-x="539" 
d="M495 214q0 -106 -54 -166t-172 -60q-116 0 -170.5 59t-54.5 166v442h110q31 0 31 -31v-418q0 -45 21.5 -67.5t62.5 -22.5q85 0 85 90v418q0 31 30 31h111v-441zM389 850q8 7 17 7q13 0 13 -21v-72q-35 -31 -72.5 -45.5t-76.5 -14.5q-43 0 -78 15.5t-71 44.5v72
q0 21 13 21q9 0 17 -7q20 -14 51 -28.5t68 -14.5q36 0 67.5 14.5t51.5 28.5z" />
    <glyph glyph-name="ubreve" unicode="&#x16d;" horiz-adv-x="468" 
d="M424 169q0 -87 -46.5 -134t-143.5 -47t-143.5 47t-46.5 134v342h100q29 0 29 -29v-317q0 -31 16 -47t45 -16t44.5 16.5t15.5 46.5v317q0 29 29 29h101v-342zM331 692q7 5 16 5q15 0 15 -21v-70q-63 -48 -128 -48t-129 49v69q0 22 15 22q6 0 15 -6q19 -12 45.5 -23.5
t53.5 -11.5q26 0 52 11.5t45 23.5z" />
    <glyph glyph-name="Uring" unicode="&#x16e;" horiz-adv-x="539" 
d="M495 214q0 -106 -54 -166t-172 -60q-116 0 -170.5 59t-54.5 166v442h110q31 0 31 -31v-418q0 -45 21.5 -67.5t62.5 -22.5q85 0 85 90v418q0 31 30 31h111v-441zM270 910q63 0 98 -29.5t35 -87.5t-35 -88t-98 -30q-62 0 -97 30t-35 88t34.5 87.5t97.5 29.5zM270 829
q-31 0 -31 -34q0 -16 7.5 -25.5t23.5 -9.5q17 0 24.5 9.5t7.5 25.5q0 34 -32 34z" />
    <glyph glyph-name="uring" unicode="&#x16f;" horiz-adv-x="468" 
d="M424 169q0 -87 -46.5 -134t-143.5 -47t-143.5 47t-46.5 134v342h100q29 0 29 -29v-317q0 -31 16 -47t45 -16t44.5 16.5t15.5 46.5v317q0 29 29 29h101v-342zM234 760q57 0 92 -27.5t35 -84.5t-34.5 -84.5t-92.5 -27.5t-92.5 27.5t-34.5 84.5t34.5 84.5t92.5 27.5z
M234 681q-27 0 -27 -31q0 -30 27 -30q28 0 28 30q0 31 -28 31z" />
    <glyph glyph-name="Uhungarumlaut" unicode="&#x170;" horiz-adv-x="539" 
d="M495 214q0 -106 -54 -166t-172 -60q-116 0 -170.5 59t-54.5 166v442h110q31 0 31 -31v-418q0 -45 21.5 -67.5t62.5 -22.5q85 0 85 90v418q0 31 30 31h111v-441zM418 725q-11 -18 -30 -18h-93l62 140q9 19 29 19h112zM242 725q-12 -18 -31 -18h-92l61 140q9 19 30 19h111z
" />
    <glyph glyph-name="uhungarumlaut" unicode="&#x171;" horiz-adv-x="468" 
d="M424 169q0 -87 -46.5 -134t-143.5 -47t-143.5 47t-46.5 134v342h100q29 0 29 -29v-317q0 -31 16 -47t45 -16t44.5 16.5t15.5 46.5v317q0 29 29 29h101v-342zM371 571q-11 -17 -31 -17h-82l61 126q10 18 31 18h100zM208 571q-11 -17 -31 -17h-81l60 126q10 18 30 18h101z
" />
    <glyph glyph-name="Uogonek" unicode="&#x172;" horiz-adv-x="539" 
d="M495 214q0 -75 -27.5 -129t-81.5 -74q-42 -16 -55.5 -32t-13.5 -33v-6q0 -28 29 -28q3 0 8.5 0.5t10.5 1.5q2 0 3 0.5t3 0.5q19 0 19 -24v-77q-38 -11 -74 -11q-56 0 -84 24.5t-28 62.5v10q0 26 13.5 48.5t38.5 40.5q-110 4 -161 62.5t-51 161.5v442h110q31 0 31 -31
v-418q0 -45 21.5 -67.5t62.5 -22.5q85 0 85 90v418q0 31 30 31h111v-441z" />
    <glyph glyph-name="uogonek" unicode="&#x173;" horiz-adv-x="468" 
d="M154 -100q0 26 13.5 49t38.5 40q-82 8 -122 53.5t-40 126.5v342h100q29 0 29 -29v-317q0 -31 16 -47t45 -16t44.5 16.5t15.5 46.5v317q0 29 29 29h101v-342q0 -63 -24 -105t-69 -57q-38 -14 -51.5 -29t-13.5 -32v-6q0 -28 29 -28q4 0 9.5 0.5t10.5 1.5q2 0 3 0.5t3 0.5
q19 0 19 -24v-77q-22 -5 -40 -8t-34 -3q-57 0 -84.5 24.5t-27.5 62.5v10z" />
    <glyph glyph-name="Wcircumflex" unicode="&#x174;" horiz-adv-x="822" 
d="M676 0h-140q-28 0 -32 28l-92 479l-92 -479q-4 -28 -32 -28h-142l-136 655h119q29 0 33 -28l74 -485l92 485q4 28 32 28h101q29 0 33 -28l93 -483l73 483q4 28 33 28h120zM561 814v-68q0 -23 -18 -23q-3 0 -11 2l-120 45l-119 -45q-8 -2 -11 -2q-19 0 -19 23v68l149 70z
" />
    <glyph glyph-name="wcircumflex" unicode="&#x175;" horiz-adv-x="690" 
d="M570 0h-124q-27 0 -31 26l-70 356l-69 -356q-4 -26 -31 -26h-125l-110 511h108q27 0 30 -26l52 -361l70 361q4 26 32 26h85q28 0 32 -26l71 -359l51 359q5 26 30 26h109zM475 655v-63q0 -23 -19 -23q-3 0 -11 2l-100 38l-100 -38q-8 -2 -10 -2q-19 0 -19 23v63l129 62z
" />
    <glyph glyph-name="Ycircumflex" unicode="&#x176;" horiz-adv-x="526" 
d="M334 227v-196q0 -31 -31 -31h-110v227l-189 428h131q27 0 36 -25l93 -271l94 271q9 25 36 25h128zM412 814v-68q0 -23 -18 -23q-3 0 -11 2l-120 45l-119 -45q-8 -2 -11 -2q-19 0 -19 23v68l149 70z" />
    <glyph glyph-name="ycircumflex" unicode="&#x177;" horiz-adv-x="451" 
d="M290 177v-148q0 -29 -28 -29h-101v177l-157 334h119q26 0 33 -24l70 -197l71 197q7 24 33 24h117zM355 655v-63q0 -23 -19 -23q-3 0 -11 2l-100 38l-100 -38q-8 -2 -10 -2q-19 0 -19 23v63l129 62z" />
    <glyph glyph-name="Ydieresis" unicode="&#x178;" horiz-adv-x="526" 
d="M334 227v-196q0 -31 -31 -31h-110v227l-189 428h131q27 0 36 -25l93 -271l94 271q9 25 36 25h128zM365 861q36 0 55.5 -16.5t19.5 -48.5v-24q0 -30 -19.5 -47.5t-55.5 -17.5q-35 0 -55 17.5t-20 47.5v24q0 32 20 48.5t55 16.5zM159 861q75 0 75 -65v-24q0 -30 -19 -47.5
t-56 -17.5q-34 0 -54 17.5t-20 47.5v24q0 32 20 48.5t54 16.5z" />
    <glyph glyph-name="Zacute" unicode="&#x179;" horiz-adv-x="474" 
d="M446 568q0 -20 -11 -38l-243 -401h224q30 0 30 -31v-98h-425v86q0 20 11 38l244 402h-217q-30 0 -30 31v98h417v-87zM282 723q-12 -16 -31 -16h-89l70 129q11 18 30 18h120z" />
    <glyph glyph-name="zacute" unicode="&#x17a;" horiz-adv-x="408" 
d="M380 434q0 -20 -11 -35l-189 -283h171q29 0 29 -29v-87h-359v76q0 20 11 35l191 284h-167q-28 0 -28 29v87h352v-77zM250 569q-12 -15 -31 -15h-83l66 119q10 18 30 18h114z" />
    <glyph glyph-name="Zdotaccent" unicode="&#x17b;" horiz-adv-x="474" 
d="M446 568q0 -20 -11 -38l-243 -401h224q30 0 30 -31v-98h-425v86q0 20 11 38l244 402h-217q-30 0 -30 31v98h417v-87zM237 868q79 0 79 -69v-25q0 -32 -20.5 -50t-58.5 -18t-58.5 18t-20.5 50v25q0 35 20.5 52t58.5 17z" />
    <glyph glyph-name="zdotaccent" unicode="&#x17c;" horiz-adv-x="408" 
d="M380 434q0 -20 -11 -35l-189 -283h171q29 0 29 -29v-87h-359v76q0 20 11 35l191 284h-167q-28 0 -28 29v87h352v-77zM202 729q79 0 79 -69v-25q0 -32 -20.5 -50t-58.5 -18t-58.5 18t-20.5 50v25q0 34 20.5 51.5t58.5 17.5z" />
    <glyph glyph-name="Zcaron" unicode="&#x17d;" horiz-adv-x="474" 
d="M446 568q0 -20 -11 -38l-243 -401h224q30 0 30 -31v-98h-425v86q0 20 11 38l244 402h-217q-30 0 -30 31v98h417v-87zM357 869q8 2 10 2q19 0 19 -23v-68l-149 -69l-149 69v68q0 23 19 23q2 0 10 -2l120 -45z" />
    <glyph glyph-name="zcaron" unicode="&#x17e;" horiz-adv-x="408" 
d="M380 434q0 -20 -11 -35l-189 -283h171q29 0 29 -29v-87h-359v76q0 20 11 35l191 284h-167q-28 0 -28 29v87h352v-77zM302 701q4 2 11 2q18 0 18 -23v-63l-129 -62l-130 62v63q0 23 18 23q7 0 11 -2l101 -38z" />
    <glyph glyph-name="longs" unicode="&#x17f;" horiz-adv-x="390" 
d="M201 523q31 0 65 -3t70 -10l-1 -86q0 -27 -22 -27q-6 0 -9 1q-28 5 -54.5 8t-44.5 3q-29 0 -40.5 -9.5t-11.5 -26.5v-11q0 -14 7.5 -22t29.5 -14l69 -22q31 -10 52.5 -22.5t35 -29.5t19.5 -40t6 -54v-18q0 -74 -43.5 -113t-142.5 -39q-26 0 -67 5t-81 14l1 87q0 26 23 26
q5 0 8 -1q29 -6 56.5 -10.5t47.5 -4.5q39 0 53.5 10t14.5 28v14q0 14 -6.5 22.5t-25.5 14.5l-71 22q-32 10 -54 23t-35.5 30t-19.5 40t-6 53v10q0 73 41.5 112.5t135.5 39.5z" />
    <glyph glyph-name="florin" unicode="&#x192;" horiz-adv-x="330" 
d="M233 612q23 0 44 -2.5t46 -7.5v-85q0 -29 -23 -29q-5 0 -8 1q-9 2 -20 3t-17 1q-24 0 -36.5 -13.5t-12.5 -48.5v-26h55q31 0 31 -30v-90h-86v-439q0 -31 -31 -31h-106v470h-29q-30 0 -30 31v89h59v36q1 84 43 127.5t121 43.5z" />
    <glyph glyph-name="AEacute" unicode="&#x1fc;" horiz-adv-x="756" 
d="M254 655h468v-100q0 -30 -30 -30h-206v-128h186q30 0 30 -30v-68q0 -31 -30 -31h-186v-138h206q30 0 30 -30v-100h-347q-30 0 -30 31v106h-147l-41 -112q-9 -25 -35 -25h-125zM345 267v275l-102 -275h102zM564 723q-12 -16 -31 -16h-89l70 129q11 18 30 18h120z" />
    <glyph glyph-name="aeacute" unicode="&#x1fd;" horiz-adv-x="639" 
d="M606 424q0 -29 -29 -29h-163v-81h146q29 0 29 -29v-55q0 -29 -29 -29h-146v-85h163q29 0 29 -29v-87h-292q-29 0 -29 29v65h-115l-26 -71q-7 -23 -32 -23h-115l205 511h404v-87zM206 197h79v216zM465 569q-12 -15 -31 -15h-83l66 119q10 18 30 18h114z" />
    <glyph glyph-name="Oslashacute" unicode="&#x1fe;" horiz-adv-x="538" 
d="M469 574q30 -53 30 -132v-229q0 -106 -55 -165.5t-175 -59.5q-65 0 -112 19l-21 -36q-11 -21 -36 -21h-107l75 133q-29 51 -29 130v229q0 109 55 167t175 58q32 0 59.5 -5t50.5 -14l19 36q13 21 37 21h106zM210 132q20 -16 59 -16q89 0 89 90v170v11t-1 11zM269 539
q-89 0 -89 -88v-171v-12t1 -11l146 265q-23 17 -58 17zM313 723q-12 -16 -31 -16h-89l70 129q11 18 30 18h120z" />
    <glyph glyph-name="oslashacute" unicode="&#x1ff;" horiz-adv-x="464" 
d="M407 434q19 -41 19 -95v-167q0 -89 -47 -136.5t-147 -47.5q-51 0 -88 14l-19 -31q-11 -18 -34 -18h-113l80 123q-19 39 -19 96v167q0 91 48 137.5t145 46.5q51 0 88 -14l20 31q11 18 33 18h114zM232 409q-32 0 -48 -16t-16 -45v-141l109 188q-17 14 -45 14zM188 115
q16 -13 44 -13q32 0 48.5 16.5t16.5 45.5v125q0 3 -0.5 6.5t-0.5 5.5zM280 569q-12 -15 -31 -15h-83l66 119q10 18 30 18h114z" />
    <glyph glyph-name="uni0218" unicode="&#x218;" horiz-adv-x="458" 
d="M236 667q29 0 67 -4t95 -13l-2 -97q-2 -30 -27 -30q-6 0 -9 1q-32 6 -64.5 10.5t-56.5 4.5q-39 0 -55.5 -15t-16.5 -42v-17q0 -21 10 -32.5t42 -22.5l85 -28q36 -12 61.5 -27.5t41.5 -37t23 -51t7 -68.5v-19q0 -93 -53 -142t-176 -49q-29 0 -69 5t-99 18l2 100
q0 28 22 28q3 0 11 -2q34 -8 68.5 -13.5t60.5 -5.5q51 0 71.5 16t20.5 43v22q0 22 -9.5 34t-32.5 20l-93 31q-38 13 -64 28.5t-41.5 36.5t-22.5 50t-7 68v10q0 92 49.5 141t160.5 49zM229 -56q69 0 69 -59v-22q0 -14 -2 -26t-7 -28l-26 -80h-57q-23 0 -23 21q0 2 0.5 3.5
t0.5 3.5l9 55q-31 11 -31 52v21q0 29 17.5 44t49.5 15z" />
    <glyph glyph-name="uni0219" unicode="&#x219;" horiz-adv-x="390" 
d="M201 523q31 0 65 -3t70 -10l-1 -86q0 -27 -22 -27q-6 0 -9 1q-28 5 -54.5 8t-44.5 3q-29 0 -40.5 -9.5t-11.5 -26.5v-11q0 -14 7.5 -22t29.5 -14l69 -22q31 -10 52.5 -22.5t35 -29.5t19.5 -40t6 -54v-18q0 -74 -43.5 -113t-142.5 -39q-26 0 -67 5t-81 14l1 87q0 26 23 26
q5 0 8 -1q29 -6 56.5 -10.5t47.5 -4.5q39 0 53.5 10t14.5 28v14q0 14 -6.5 22.5t-25.5 14.5l-71 22q-32 10 -54 23t-35.5 30t-19.5 40t-6 53v10q0 73 41.5 112.5t135.5 39.5zM213 -56q69 0 69 -59v-22q0 -14 -2.5 -26t-7.5 -28l-27 -80h-55q-23 0 -23 21q0 2 0.5 3.5
t0.5 3.5l9 55q-31 11 -31 52v21q0 59 67 59z" />
    <glyph glyph-name="uni021A" unicode="&#x21a;" horiz-adv-x="520" 
d="M504 555q0 -30 -31 -30h-142v-494q0 -31 -31 -31h-111v525h-142q-31 0 -31 30v100h488v-100zM258 -56q69 0 69 -59v-22q0 -14 -2 -26t-7 -28l-26 -80h-57q-23 0 -23 21q0 2 0.5 3.5t0.5 3.5l9 55q-31 11 -31 52v21q0 29 17.5 44t49.5 15z" />
    <glyph glyph-name="uni021B" unicode="&#x21b;" horiz-adv-x="441" 
d="M425 424q0 -29 -29 -29h-111v-366q0 -29 -28 -29h-100v395h-112q-29 0 -29 29v87h409v-87zM220 -56q69 0 69 -59v-22q0 -14 -2.5 -26t-7.5 -28l-27 -80h-55q-23 0 -23 21q0 2 0.5 3.5t0.5 3.5l9 55q-31 11 -31 52v21q0 59 67 59z" />
    <glyph glyph-name="uni0237" unicode="&#x237;" horiz-adv-x="277" 
d="M205 511q28 0 28 -29v-329q0 -87 -36.5 -126t-109.5 -39q-47 0 -89 11v80q0 26 22 26q2 0 3.5 -0.5t3.5 -0.5q8 -2 18.5 -2.5t19.5 -0.5q21 0 30 10.5t9 38.5v361h101z" />
    <glyph glyph-name="uni02BB" unicode="&#x2bb;" horiz-adv-x="196" 
d="M122 771q23 0 23 -20q0 -2 -0.5 -4t-0.5 -4l-9 -54q31 -13 31 -53v-21q0 -29 -17.5 -44t-49.5 -15q-69 0 -69 59v23q0 14 2 25.5t7 27.5l28 80h55z" />
    <glyph glyph-name="uni02BC" unicode="&#x2bc;" horiz-adv-x="205" 
d="M106 695q69 0 69 -59v-22q0 -14 -2 -26t-7 -28l-27 -80h-56q-23 0 -23 21q0 2 0.5 3.5t0.5 3.5l9 55q-31 11 -31 52v21q0 29 17.5 44t49.5 15z" />
    <glyph glyph-name="circumflex" unicode="&#x2c6;" horiz-adv-x="338" 
d="M308 639v-67q0 -22 -17 -22q-7 0 -14 4l-108 54l-109 -54q-7 -4 -14 -4q-16 0 -16 22v67l139 82z" />
    <glyph glyph-name="caron" unicode="&#x2c7;" horiz-adv-x="338" 
d="M277 702q10 4 14 4q17 0 17 -23v-66l-139 -83l-139 83v66q0 23 17 23q3 0 6 -1t7 -3l109 -55z" />
    <glyph glyph-name="uni02C9" unicode="&#x2c9;" horiz-adv-x="311" 
d="M256 691q25 0 25 -26v-82h-225q-26 0 -26 26v82h226z" />
    <glyph glyph-name="breve" unicode="&#x2d8;" horiz-adv-x="334" 
d="M275 693q10 8 17 8q12 0 12 -21v-71q-56 -59 -137 -59q-41 0 -74.5 15t-62.5 44v71q0 21 12 21q7 0 17 -8q18 -14 45.5 -27t62.5 -13t62.5 13t45.5 27z" />
    <glyph glyph-name="dotaccent" unicode="&#x2d9;" horiz-adv-x="216" 
d="M108 720q78 0 78 -69v-24q0 -32 -20 -50t-58 -18q-37 0 -57.5 18t-20.5 50v24q0 34 20.5 51.5t57.5 17.5z" />
    <glyph glyph-name="ring" unicode="&#x2da;" horiz-adv-x="322" 
d="M161 759q62 0 96.5 -29.5t34.5 -86.5t-34 -86.5t-97 -29.5t-97 29.5t-34 86.5t34 86.5t97 29.5zM161 680q-16 0 -24 -9.5t-8 -25.5t8 -25.5t24 -9.5t23.5 9.5t7.5 25.5t-7.5 25.5t-23.5 9.5z" />
    <glyph glyph-name="ogonek" unicode="&#x2db;" horiz-adv-x="247" 
d="M217 8q-30 -7 -52 -23t-22 -39v-6q0 -28 29 -28q4 0 9.5 0.5t10.5 1.5q2 0 3 0.5t3 0.5q19 0 19 -24v-77q-17 -5 -36 -8t-39 -3q-56 0 -84 24.5t-28 62.5v10q0 45 42 81t114 47z" />
    <glyph glyph-name="tilde" unicode="&#x2dc;" horiz-adv-x="338" 
d="M278 693q7 3 13 3q17 0 17 -21v-65q-42 -36 -86 -36q-16 0 -29.5 4.5t-26.5 10.5t-25.5 10.5t-27.5 4.5q-13 0 -27 -4.5t-26 -9.5q-8 -3 -14 -3q-16 0 -16 21v64q41 37 85 37q20 0 34.5 -5t26.5 -10.5t23 -10.5t25 -5q13 0 27.5 4.5t26.5 10.5z" />
    <glyph glyph-name="hungarumlaut" unicode="&#x2dd;" horiz-adv-x="414" 
d="M314 563q-11 -17 -31 -17h-89l62 145q8 20 29 20h112zM139 563q-10 -17 -30 -17h-89l62 145q8 20 29 20h112z" />
    <glyph glyph-name="gravecomb" unicode="&#x300;" horiz-adv-x="0" 
d="M-247 691q19 0 30 -18l65 -119h-80q-18 0 -31 15l-94 122h110z" />
    <glyph glyph-name="acutecomb" unicode="&#x301;" horiz-adv-x="0" 
d="M-188 569q-12 -15 -31 -15h-83l66 119q10 18 30 18h114z" />
    <glyph glyph-name="uni0302" unicode="&#x302;" horiz-adv-x="0" 
d="M-102 655v-63q0 -23 -19 -23q-3 0 -11 2l-100 38l-100 -38q-8 -2 -10 -2q-19 0 -19 23v63l129 62z" />
    <glyph glyph-name="tildecomb" unicode="&#x303;" horiz-adv-x="0" 
d="M-134 685q7 3 13 3q16 0 16 -22v-61q-18 -14 -36.5 -22t-41.5 -8q-15 0 -27.5 3.5t-25 8t-24.5 8.5t-25 4q-12 0 -24.5 -3t-23.5 -7q-8 -3 -13 -3q-16 0 -16 21v63q16 12 35.5 20t43.5 8q18 0 31.5 -4t25 -8.5t22.5 -8t23 -3.5q11 0 23.5 3t23.5 8z" />
    <glyph glyph-name="uni0304" unicode="&#x304;" horiz-adv-x="0" 
d="M-144 673q26 0 26 -26v-77h-211q-25 0 -25 26v77h210z" />
    <glyph glyph-name="uni0306" unicode="&#x306;" horiz-adv-x="0" 
d="M-137 692q7 5 16 5q15 0 15 -21v-70q-63 -48 -128 -48t-129 49v69q0 22 15 22q6 0 15 -6q19 -12 45.5 -23.5t53.5 -11.5q26 0 52 11.5t45 23.5z" />
    <glyph glyph-name="uni0307" unicode="&#x307;" horiz-adv-x="0" 
d="M-235 729q79 0 79 -69v-25q0 -32 -20.5 -50t-58.5 -18t-58.5 18t-20.5 50v25q0 34 20.5 51.5t58.5 17.5z" />
    <glyph glyph-name="uni0308" unicode="&#x308;" horiz-adv-x="0" 
d="M-130 724q75 0 75 -65v-24q0 -31 -19 -48t-56 -17q-34 0 -54 17t-20 48v24q0 32 20 48.5t54 16.5zM-335 724q36 0 55.5 -16.5t19.5 -48.5v-24q0 -31 -19.5 -48t-55.5 -17q-35 0 -54.5 17t-19.5 48v24q0 32 19.5 48.5t54.5 16.5z" />
    <glyph glyph-name="uni030A" unicode="&#x30a;" horiz-adv-x="0" 
d="M-235 760q57 0 92 -27.5t35 -84.5t-34.5 -84.5t-92.5 -27.5t-92.5 27.5t-34.5 84.5t34.5 84.5t92.5 27.5zM-235 681q-27 0 -27 -31q0 -30 27 -30q28 0 28 30q0 31 -28 31z" />
    <glyph glyph-name="uni030B" unicode="&#x30b;" horiz-adv-x="0" 
d="M-88 571q-11 -17 -31 -17h-82l61 126q10 18 31 18h100zM-251 571q-11 -17 -31 -17h-81l60 126q10 18 30 18h101z" />
    <glyph glyph-name="uni030C" unicode="&#x30c;" horiz-adv-x="0" 
d="M-129 701q4 2 11 2q18 0 18 -23v-63l-129 -62l-130 62v63q0 23 18 23q7 0 11 -2l101 -38z" />
    <glyph glyph-name="uni030F" unicode="&#x30f;" horiz-adv-x="0" 
d="M-85 691q20 0 30 -18l65 -119h-79q-19 0 -31 15l-95 122h110zM99 691q20 0 30 -18l66 -119h-80q-19 0 -31 15l-95 122h110z" />
    <glyph glyph-name="uni0312" unicode="&#x312;" horiz-adv-x="0" 
d="M-194 771q23 0 23 -20q0 -2 -0.5 -4t-0.5 -4l-9 -54q31 -13 31 -53v-21q0 -29 -17.5 -44t-49.5 -15q-69 0 -69 59v23q0 14 2 25.5t7 27.5l28 80h55z" />
    <glyph glyph-name="uni0313" unicode="&#x313;" horiz-adv-x="0" 
d="M-99 695q69 0 69 -59v-22q0 -14 -2 -26t-7 -28l-27 -80h-56q-23 0 -23 21q0 2 0.5 3.5t0.5 3.5l9 55q-31 11 -31 52v21q0 29 17.5 44t49.5 15z" />
    <glyph glyph-name="uni0324" unicode="&#x324;" horiz-adv-x="0" 
d="M101 -56q36 0 55.5 -16.5t19.5 -48.5v-24q0 -30 -19.5 -47.5t-55.5 -17.5q-35 0 -54.5 17.5t-19.5 47.5v24q0 32 19.5 48.5t54.5 16.5zM-105 -56q75 0 75 -65v-24q0 -30 -19 -47.5t-56 -17.5q-34 0 -53.5 17.5t-19.5 47.5v24q0 32 19.5 48.5t53.5 16.5z" />
    <glyph glyph-name="uni0325" unicode="&#x325;" horiz-adv-x="0" 
d="M0 -52q62 0 96.5 -29.5t34.5 -86.5t-34 -86.5t-97 -29.5t-97 29.5t-34 86.5t34 86.5t97 29.5zM0 -131q-16 0 -24 -9.5t-8 -25.5t8 -25.5t24 -9.5t23.5 9.5t7.5 25.5t-7.5 25.5t-23.5 9.5z" />
    <glyph glyph-name="uni0326" unicode="&#x326;" horiz-adv-x="0" 
d="M-216 -56q69 0 69 -59v-22q0 -14 -2.5 -26t-7.5 -28l-27 -80h-55q-23 0 -23 21q0 2 0.5 3.5t0.5 3.5l9 55q-31 11 -31 52v21q0 59 67 59z" />
    <glyph glyph-name="uni0327" unicode="&#x327;" horiz-adv-x="0" 
d="M-174 -31h9q29 0 45 -19t16 -45v-18q0 -39 -26.5 -61.5t-87.5 -22.5q-40 0 -74 7v54q0 12 3 16.5t10 4.5h5q15 -3 31 -3t22 5.5t6 15.5v6q0 23 -27 23h-15q-18 0 -18 15q0 9 4 18l27 84h97z" />
    <glyph glyph-name="uni0328" unicode="&#x328;" horiz-adv-x="0" 
d="M-111 8q-30 -7 -52 -23t-22 -39v-6q0 -28 29 -28q4 0 9.5 0.5t10.5 1.5q2 0 3 0.5t3 0.5q19 0 19 -24v-77q-17 -5 -36 -8t-39 -3q-56 0 -84 24.5t-28 62.5v10q0 45 42 81t114 47z" />
    <glyph glyph-name="uni0330" unicode="&#x330;" horiz-adv-x="0" 
d="M109 -82q7 3 13 3q17 0 17 -21v-65q-42 -36 -86 -36q-16 0 -29.5 4.5t-26.5 10.5t-25.5 10.5t-27.5 4.5q-13 0 -27 -4.5t-26 -9.5q-8 -3 -14 -3q-16 0 -16 21v64q41 37 85 37q20 0 34.5 -5t26.5 -10.5t23 -10.5t25 -5q13 0 27.5 4.5t26.5 10.5z" />
    <glyph glyph-name="uni0331" unicode="&#x331;" horiz-adv-x="0" 
d="M100 -71q25 0 25 -26v-82h-225q-26 0 -26 26v82h226z" />
    <glyph glyph-name="uni0335" unicode="&#x335;" horiz-adv-x="0" 
d="M91 353q31 0 31 -31v-85h-211q-30 0 -30 31v85h210z" />
    <glyph glyph-name="uni0336" unicode="&#x336;" horiz-adv-x="0" 
d="M271 353q31 0 31 -31v-85h-571q-30 0 -30 31v85h570z" />
    <glyph glyph-name="uni0351" unicode="&#x351;" horiz-adv-x="0" 
d="M64 536q-60 0 -94 28t-34 84q0 54 33 83t95 29v-64q0 -8 -4.5 -12t-9.5 -7q-15 -5 -15 -27q0 -9 3.5 -16t11.5 -10q5 -4 9.5 -8t4.5 -12v-68z" />
    <glyph glyph-name="uni0357" unicode="&#x357;" horiz-adv-x="0" 
d="M-64 604q0 8 4.5 12t9.5 8q8 3 11.5 10t3.5 16q0 22 -15 27q-5 3 -9.5 7t-4.5 12v64q62 0 95 -29t33 -83q0 -56 -34 -84t-94 -28v68z" />
    <glyph glyph-name="uni037E" unicode="&#x37e;" horiz-adv-x="214" 
d="M106 152q79 0 79 -68v-28q0 -31 -7 -53l-53 -164h-67q-23 0 -23 19q0 6 1 9l33 128q-41 14 -41 63v26q0 32 19.5 50t58.5 18zM107 480q80 0 80 -70v-25q0 -33 -20.5 -51t-59.5 -18t-59.5 18t-20.5 51v25q0 70 80 70z" />
    <glyph glyph-name="tonos" unicode="&#x384;" horiz-adv-x="263" 
d="M155 563q-10 -19 -30 -19h-95l52 162q6 22 28 22h132z" />
    <glyph glyph-name="dieresistonos" unicode="&#x385;" horiz-adv-x="432" 
d="M280 775q-9 -18 -29 -18h-95l40 142q6 21 28 21h132zM103 725q31 0 52.5 -18t21.5 -49v-20q0 -31 -21.5 -49.5t-52.5 -18.5q-29 0 -51 18.5t-22 49.5v20q0 31 22 49t51 18zM328 725q30 0 52 -18t22 -49v-20q0 -31 -22 -49.5t-52 -18.5t-51.5 18.5t-21.5 49.5v20
q0 31 21.5 49t51.5 18z" />
    <glyph glyph-name="Alphatonos" unicode="&#x386;" horiz-adv-x="599" 
d="M602 0h-123q-27 0 -33 27l-24 101h-188l-24 -101q-6 -27 -34 -27h-119l190 655h165zM259 246h138l-69 295zM126 500q-10 -19 -30 -19h-95l43 153q6 21 28 21h132z" />
    <glyph glyph-name="anoteleia" unicode="&#x387;" horiz-adv-x="215" 
d="M107 480q80 0 80 -70v-25q0 -33 -20.5 -51t-59.5 -18t-59.5 18t-20.5 51v25q0 70 80 70z" />
    <glyph glyph-name="Epsilontonos" unicode="&#x388;" horiz-adv-x="640" 
d="M606 555q0 -30 -30 -30h-206v-128h186q30 0 30 -30v-68q0 -31 -30 -31h-186v-138h206q30 0 30 -30v-100h-377v655h377v-100zM126 500q-10 -19 -30 -19h-95l43 153q6 21 28 21h132z" />
    <glyph glyph-name="Etatonos" unicode="&#x389;" horiz-adv-x="731" 
d="M687 0h-111q-30 0 -30 31v241h-173v-241q0 -31 -31 -31h-110v655h110q31 0 31 -31v-223h173v223q0 31 30 31h111v-655zM126 500q-10 -19 -30 -19h-95l43 153q6 21 28 21h132z" />
    <glyph glyph-name="Iotatonos" unicode="&#x38a;" horiz-adv-x="414" 
d="M339 655q31 0 31 -31v-624h-141v655h110zM126 500q-10 -19 -30 -19h-95l43 153q6 21 28 21h132z" />
    <glyph glyph-name="Omicrontonos" unicode="&#x38c;" horiz-adv-x="675" 
d="M406 667q118 0 174 -58t56 -167v-229q0 -106 -55 -165.5t-175 -59.5q-121 0 -175.5 59.5t-54.5 165.5v229q0 109 55 167t175 58zM406 539q-89 0 -89 -88v-245q0 -90 89 -90t89 90v244q0 89 -89 89zM126 500q-10 -19 -30 -19h-95l43 153q6 21 28 21h132z" />
    <glyph glyph-name="Upsilontonos" unicode="&#x38e;" horiz-adv-x="729" 
d="M126 500q-10 -19 -30 -19h-95l43 153q6 21 28 21h132zM537 227v-196q0 -31 -31 -31h-110v227l-189 428h131q27 0 36 -25l93 -271l94 271q9 25 36 25h128z" />
    <glyph glyph-name="Omegatonos" unicode="&#x38f;" horiz-adv-x="672" 
d="M403 667q117 0 174 -58t57 -164v-171q0 -43 -16 -82t-47 -63h41q31 0 31 -31v-98h-210v113q0 9 7 9h1q23 1 37.5 23.5t14.5 64.5v243q0 43 -23 65t-67 22q-43 0 -66 -22t-23 -65v-243q0 -42 14.5 -65t37.5 -23h1q7 0 7 -9v-113h-211v98q0 31 31 31h41q-31 24 -46.5 63
t-15.5 82v171q0 106 56.5 164t173.5 58zM126 500q-10 -19 -30 -19h-95l43 153q6 21 28 21h132z" />
    <glyph glyph-name="iotadieresistonos" unicode="&#x390;" horiz-adv-x="216" 
d="M144 511q29 0 29 -29v-482h-129v511h100zM172 775q-9 -18 -29 -18h-95l40 142q6 21 28 21h132zM-5 725q31 0 52.5 -18t21.5 -49v-20q0 -31 -21.5 -49.5t-52.5 -18.5q-29 0 -51 18.5t-22 49.5v20q0 31 22 49t51 18zM220 725q30 0 52 -18t22 -49v-20q0 -31 -22 -49.5
t-52 -18.5t-51.5 18.5t-21.5 49.5v20q0 31 21.5 49t51.5 18z" />
    <glyph glyph-name="Alpha" unicode="&#x391;" horiz-adv-x="539" 
d="M542 0h-123q-27 0 -33 27l-24 101h-188l-24 -101q-6 -27 -34 -27h-119l190 655h165zM199 246h138l-69 295z" />
    <glyph glyph-name="Beta" unicode="&#x392;" horiz-adv-x="503" 
d="M234 666q57 0 100 -12.5t71.5 -34.5t43 -52t14.5 -64v-16q0 -49 -25 -86.5t-78 -57.5q60 -11 93.5 -50.5t33.5 -98.5v-18q0 -41 -13.5 -75.5t-43.5 -59.5t-77 -39t-114 -14q-42 0 -85.5 0.5t-109.5 4.5v668q19 1 44.5 1.5t52 1.5t51 1.5t42.5 0.5zM185 272v-157
q20 -2 30.5 -2h26.5q57 0 80.5 20t23.5 53v17q0 32 -23 50.5t-76 18.5h-62zM229 544h-20.5t-23.5 -2v-151h57q40 0 60 20t20 54v14q0 32 -21 48.5t-72 16.5z" />
    <glyph glyph-name="Gamma" unicode="&#x393;" horiz-adv-x="433" 
d="M417 555q0 -30 -30 -30h-202v-494q0 -31 -31 -31h-110v655h373v-100z" />
    <glyph glyph-name="uni0394" unicode="&#x394;" horiz-adv-x="526" 
d="M514 85v-85h-502v85l169 570h162zM159 125h201l-98 417z" />
    <glyph glyph-name="Epsilon" unicode="&#x395;" horiz-adv-x="455" 
d="M421 555q0 -30 -30 -30h-206v-128h186q30 0 30 -30v-68q0 -31 -30 -31h-186v-138h206q30 0 30 -30v-100h-377v655h377v-100z" />
    <glyph glyph-name="Zeta" unicode="&#x396;" horiz-adv-x="474" 
d="M446 568q0 -20 -11 -38l-243 -401h224q30 0 30 -31v-98h-425v86q0 20 11 38l244 402h-217q-30 0 -30 31v98h417v-87z" />
    <glyph glyph-name="Eta" unicode="&#x397;" horiz-adv-x="543" 
d="M499 0h-111q-30 0 -30 31v241h-173v-241q0 -31 -31 -31h-110v655h110q31 0 31 -31v-223h173v223q0 31 30 31h111v-655z" />
    <glyph glyph-name="Theta" unicode="&#x398;" horiz-adv-x="538" 
d="M295 385q29 0 29 -29v-48q0 -29 -29 -29h-52q-29 0 -29 29v48q0 29 29 29h52zM269 667q118 0 174 -58t56 -167v-229q0 -106 -55 -165.5t-175 -59.5q-121 0 -175.5 59.5t-54.5 165.5v229q0 109 55 167t175 58zM269 539q-89 0 -89 -88v-245q0 -90 89 -90t89 90v244
q0 89 -89 89z" />
    <glyph glyph-name="Iota" unicode="&#x399;" horiz-adv-x="229" 
d="M154 655q31 0 31 -31v-624h-141v655h110z" />
    <glyph glyph-name="Kappa" unicode="&#x39a;" horiz-adv-x="538" 
d="M296 334l248 -334h-144q-24 0 -38 19l-177 251v-239q0 -31 -31 -31h-110v655h110q31 0 31 -31v-250l179 261q14 20 38 20h123z" />
    <glyph glyph-name="Lambda" unicode="&#x39b;" horiz-adv-x="532" 
d="M535 0h-123q-28 0 -34 27l-114 514l-115 -514q-6 -27 -33 -27h-119l186 655h165z" />
    <glyph glyph-name="Mu" unicode="&#x39c;" horiz-adv-x="668" 
d="M525 0q-30 0 -31 31l-6 373l-76 -303q-6 -26 -33 -26h-91q-27 0 -33 26l-76 303l-5 -373q-1 -31 -31 -31h-103l6 655h146q27 0 34 -26l109 -411l109 410q7 27 33 27h144l7 -655h-103z" />
    <glyph glyph-name="Nu" unicode="&#x39d;" horiz-adv-x="545" 
d="M44 655h154q26 0 35 -25l132 -382v376q0 31 31 31h105v-655h-147q-28 0 -38 27l-137 380v-376q0 -31 -30 -31h-105v655z" />
    <glyph glyph-name="Xi" unicode="&#x39e;" horiz-adv-x="469" 
d="M442 552q0 -31 -31 -31h-353q-30 0 -30 31v103h414v-103zM411 134q31 0 31 -31v-103h-414v103q0 31 30 31h353zM349 398q31 0 31 -31v-70q0 -31 -31 -31h-229q-31 0 -31 31v70q0 31 31 31h229z" />
    <glyph glyph-name="Omicron" unicode="&#x39f;" horiz-adv-x="538" 
d="M269 667q118 0 174 -58t56 -167v-229q0 -106 -55 -165.5t-175 -59.5q-121 0 -175.5 59.5t-54.5 165.5v229q0 109 55 167t175 58zM269 539q-89 0 -89 -88v-245q0 -90 89 -90t89 90v244q0 89 -89 89z" />
    <glyph glyph-name="Pi" unicode="&#x3a0;" horiz-adv-x="543" 
d="M499 0h-111q-30 0 -30 31v494h-173v-494q0 -31 -31 -31h-110v655h455v-655z" />
    <glyph glyph-name="Rho" unicode="&#x3a1;" horiz-adv-x="492" 
d="M232 666q125 1 184.5 -52.5t59.5 -142.5v-21q0 -97 -57.5 -152.5t-170.5 -55.5q-12 0 -27.5 1t-35.5 4v-216q0 -31 -31 -31h-110v660q50 3 99.5 4.5t88.5 1.5zM233 543h-26.5t-21.5 -2v-169q17 -2 29 -3t23 -1q98 0 98 86v14q0 35 -24 55t-78 20z" />
    <glyph glyph-name="Sigma" unicode="&#x3a3;" horiz-adv-x="457" 
d="M439 555q0 -30 -31 -30h-216l115 -152q12 -16 12 -36v-13q0 -19 -12 -35l-119 -159h220q31 0 31 -30v-100h-417v84q0 14 3 23t9 18l146 206l-146 199q-6 9 -9 18t-3 23v84h417v-100z" />
    <glyph glyph-name="Tau" unicode="&#x3a4;" horiz-adv-x="520" 
d="M504 555q0 -30 -31 -30h-142v-494q0 -31 -31 -31h-111v525h-142q-31 0 -31 30v100h488v-100z" />
    <glyph glyph-name="Upsilon" unicode="&#x3a5;" horiz-adv-x="526" 
d="M334 227v-196q0 -31 -31 -31h-110v227l-189 428h131q27 0 36 -25l93 -271l94 271q9 25 36 25h128z" />
    <glyph glyph-name="Phi" unicode="&#x3a6;" horiz-adv-x="689" 
d="M385 695q30 0 30 -31v-42h26q115 0 167 -52t52 -162v-132q0 -112 -52.5 -163t-164.5 -51h-28v-74h-110q-31 0 -31 31v43h-28q-109 0 -163 49.5t-54 164.5v132q0 107 51 160.5t168 53.5h26v73h111zM248 496q-41 0 -59 -18.5t-18 -60.5v-151q0 -44 19 -62t58 -18h28v310
h-28zM413 496v-310h28q40 0 58.5 18.5t18.5 61.5v151q0 43 -18.5 61t-58.5 18h-28z" />
    <glyph glyph-name="Chi" unicode="&#x3a7;" horiz-adv-x="539" 
d="M351 335l191 -335h-141q-26 0 -36 23l-97 198l-98 -198q-10 -23 -36 -23h-137l192 335l-182 320h140q23 0 35 -23l90 -183l90 183q10 23 35 23h136z" />
    <glyph glyph-name="Psi" unicode="&#x3a8;" horiz-adv-x="686" 
d="M646 348q0 -97 -48 -145.5t-141 -48.5h-43v-123q0 -31 -31 -31h-109v154h-44q-94 0 -141.5 48.5t-47.5 145.5v307h110q31 0 31 -31v-286q0 -29 13 -43.5t35 -14.5h44v344q0 31 31 31h78q31 0 31 -31v-344h43q22 0 35 14.5t13 43.5v286q0 31 30 31h111v-307z" />
    <glyph glyph-name="uni03A9" unicode="&#x3a9;" horiz-adv-x="538" 
d="M269 667q117 0 174 -58t57 -164v-171q0 -43 -16 -82t-47 -63h41q31 0 31 -31v-98h-210v113q0 9 7 9h1q23 1 37.5 23.5t14.5 64.5v243q0 43 -23 65t-67 22q-43 0 -66 -22t-23 -65v-243q0 -42 14.5 -65t37.5 -23h1q7 0 7 -9v-113h-211v98q0 31 31 31h41q-31 24 -46.5 63
t-15.5 82v171q0 106 56.5 164t173.5 58z" />
    <glyph glyph-name="Iotadieresis" unicode="&#x3aa;" horiz-adv-x="229" 
d="M154 655q31 0 31 -31v-624h-141v655h110zM217 861q36 0 55.5 -16.5t19.5 -48.5v-24q0 -30 -19.5 -47.5t-55.5 -17.5q-35 0 -55 17.5t-20 47.5v24q0 32 20 48.5t55 16.5zM11 861q75 0 75 -65v-24q0 -30 -19 -47.5t-56 -17.5q-34 0 -54 17.5t-20 47.5v24q0 32 20 48.5
t54 16.5z" />
    <glyph glyph-name="Upsilondieresis" unicode="&#x3ab;" horiz-adv-x="526" 
d="M365 861q36 0 55.5 -16.5t19.5 -48.5v-24q0 -30 -19.5 -47.5t-55.5 -17.5q-35 0 -55 17.5t-20 47.5v24q0 32 20 48.5t55 16.5zM159 861q75 0 75 -65v-24q0 -30 -19 -47.5t-56 -17.5q-34 0 -54 17.5t-20 47.5v24q0 32 20 48.5t54 16.5zM334 227v-196q0 -31 -31 -31h-110
v227l-189 428h131q27 0 36 -25l93 -271l94 271q9 25 36 25h128z" />
    <glyph glyph-name="alphatonos" unicode="&#x3ac;" horiz-adv-x="454" 
d="M457 0h-112q-25 0 -31 25l-16 69h-145l-16 -69q-6 -25 -32 -25h-108l155 511h150zM174 197h101l-49 215z" />
    <glyph glyph-name="epsilontonos" unicode="&#x3ad;" horiz-adv-x="398" 
d="M365 424q0 -29 -29 -29h-163v-81h146q29 0 29 -29v-55q0 -29 -29 -29h-146v-85h163q29 0 29 -29v-87h-321v511h321v-87z" />
    <glyph glyph-name="etatonos" unicode="&#x3ae;" horiz-adv-x="470" 
d="M427 0h-101q-29 0 -29 29v175h-124v-175q0 -29 -29 -29h-100v511h100q29 0 29 -29v-163h124v163q0 29 29 29h101v-511z" />
    <glyph glyph-name="iotatonos" unicode="&#x3af;" horiz-adv-x="216" 
d="M144 511q29 0 29 -29v-482h-129v511h100z" />
    <glyph glyph-name="upsilondieresistonos" unicode="&#x3b0;" horiz-adv-x="451" 
d="M288 775q-9 -18 -29 -18h-95l40 142q6 21 28 21h132zM111 725q31 0 52.5 -18t21.5 -49v-20q0 -31 -21.5 -49.5t-52.5 -18.5q-29 0 -51 18.5t-22 49.5v20q0 31 22 49t51 18zM336 725q30 0 52 -18t22 -49v-20q0 -31 -22 -49.5t-52 -18.5t-51.5 18.5t-21.5 49.5v20
q0 31 21.5 49t51.5 18zM290 177v-148q0 -29 -28 -29h-101v177l-157 334h119q26 0 33 -24l70 -197l71 197q7 24 33 24h117z" />
    <glyph glyph-name="alpha" unicode="&#x3b1;" horiz-adv-x="454" 
d="M457 0h-112q-25 0 -31 25l-16 69h-145l-16 -69q-6 -25 -32 -25h-108l155 511h150zM174 197h101l-49 215z" />
    <glyph glyph-name="beta" unicode="&#x3b2;" horiz-adv-x="436" 
d="M210 522q47 0 82 -9.5t58.5 -26.5t35 -40t11.5 -49v-16q0 -40 -19.5 -69.5t-63.5 -42.5q49 -10 76 -41t27 -79v-12q0 -68 -49 -108.5t-159 -40.5h-41.5t-37 1t-39 1.5t-47.5 2.5v524q45 2 88 3.5t78 1.5zM173 208v-108q12 -2 21 -2h20q41 0 57.5 13.5t16.5 36.5v12
q0 23 -15.5 35.5t-52.5 12.5h-47zM206 414q-6 0 -13.5 -0.5t-19.5 -1.5v-103h41q28 0 41.5 13t13.5 35v13q0 21 -15 32.5t-48 11.5z" />
    <glyph glyph-name="gamma" unicode="&#x3b3;" horiz-adv-x="375" 
d="M358 424q0 -29 -28 -29h-157v-366q0 -29 -29 -29h-100v511h314v-87z" />
    <glyph glyph-name="delta" unicode="&#x3b4;" horiz-adv-x="446" 
d="M436 74v-74h-426v73l139 438h148zM144 111h153l-75 302z" />
    <glyph glyph-name="epsilon" unicode="&#x3b5;" horiz-adv-x="398" 
d="M365 424q0 -29 -29 -29h-163v-81h146q29 0 29 -29v-55q0 -29 -29 -29h-146v-85h163q29 0 29 -29v-87h-321v511h321v-87z" />
    <glyph glyph-name="zeta" unicode="&#x3b6;" horiz-adv-x="408" 
d="M380 434q0 -20 -11 -35l-189 -283h171q29 0 29 -29v-87h-359v76q0 20 11 35l191 284h-167q-28 0 -28 29v87h352v-77z" />
    <glyph glyph-name="eta" unicode="&#x3b7;" horiz-adv-x="470" 
d="M427 0h-101q-29 0 -29 29v175h-124v-175q0 -29 -29 -29h-100v511h100q29 0 29 -29v-163h124v163q0 29 29 29h101v-511z" />
    <glyph glyph-name="theta" unicode="&#x3b8;" horiz-adv-x="464" 
d="M248 294q23 0 23 -26v-17q0 -26 -23 -26h-31q-24 0 -24 26v17q0 26 24 26h31zM232 523q97 0 145.5 -46.5t48.5 -137.5v-167q0 -89 -47 -136.5t-147 -47.5t-146.5 47.5t-46.5 136.5v167q0 91 48 137.5t145 46.5zM232 409q-32 0 -48 -16t-16 -45v-181q0 -31 16 -48t48 -17
t48.5 16.5t16.5 45.5v180q0 65 -65 65z" />
    <glyph glyph-name="iota" unicode="&#x3b9;" horiz-adv-x="216" 
d="M144 511q29 0 29 -29v-482h-129v511h100z" />
    <glyph glyph-name="kappa" unicode="&#x3ba;" horiz-adv-x="464" 
d="M280 264l190 -264h-130q-23 0 -35 18l-132 187v-176q0 -29 -29 -29h-100v511h100q29 0 29 -29v-184l135 195q12 18 34 18h113z" />
    <glyph glyph-name="lambda" unicode="&#x3bb;" horiz-adv-x="454" 
d="M457 0h-112q-27 0 -31 25l-88 386l-89 -386q-6 -25 -32 -25h-108l154 511h150z" />
    <glyph glyph-name="uni03BC" unicode="&#x3bc;" horiz-adv-x="577" 
d="M537 0h-97q-28 0 -30 29l-4 268l-55 -212q-6 -24 -31 -24h-65q-25 0 -31 24l-56 211l-4 -267q0 -29 -29 -29h-95l4 511h128q25 0 32 -25l85 -306l85 306q6 25 32 25h126z" />
    <glyph glyph-name="nu" unicode="&#x3bd;" horiz-adv-x="471" 
d="M428 0h-119q-24 0 -33 22l-108 268v-261q0 -29 -29 -29h-95v511h125q23 0 32 -23l104 -263v257q0 29 28 29h95v-511z" />
    <glyph glyph-name="xi" unicode="&#x3be;" horiz-adv-x="405" 
d="M378 420q0 -29 -29 -29h-293q-28 0 -28 29v91h350v-91zM349 120q29 0 29 -29v-91h-350v91q0 29 28 29h293zM299 318q28 0 28 -28v-63q0 -28 -28 -28h-193q-28 0 -28 28v63q0 28 28 28h193z" />
    <glyph glyph-name="omicron" unicode="&#x3bf;" horiz-adv-x="464" 
d="M232 523q97 0 145.5 -46.5t48.5 -137.5v-167q0 -89 -47 -136.5t-147 -47.5t-146.5 47.5t-46.5 136.5v167q0 91 48 137.5t145 46.5zM232 409q-32 0 -48 -16t-16 -45v-181q0 -31 16 -48t48 -17t48.5 16.5t16.5 45.5v180q0 65 -65 65z" />
    <glyph glyph-name="pi" unicode="&#x3c0;" horiz-adv-x="470" 
d="M427 0h-101q-29 0 -29 29v366h-124v-366q0 -29 -29 -29h-100v511h383v-511z" />
    <glyph glyph-name="rho" unicode="&#x3c1;" horiz-adv-x="425" 
d="M203 522q105 0 155 -42.5t50 -115.5v-19q0 -79 -46.5 -122t-132.5 -43q-10 0 -25.5 1t-30.5 4v-156q0 -29 -29 -29h-100v517q53 2 88.5 3.5t70.5 1.5zM206 412h-18t-15 -1v-119q10 -2 19.5 -2.5t16.5 -0.5q36 0 53 15.5t17 44.5v10q0 25 -18 39t-55 14z" />
    <glyph glyph-name="sigma1" unicode="&#x3c2;" horiz-adv-x="392" 
d="M373 424q0 -29 -28 -29h-166l83 -100q14 -15 14 -32v-9q0 -11 -3 -17.5t-10 -15.5l-89 -105h171q28 0 28 -29v-87h-351v76q0 11 3 19t9 16l111 147l-111 142q-12 16 -12 36v75h351v-87z" />
    <glyph glyph-name="sigma" unicode="&#x3c3;" horiz-adv-x="392" 
d="M373 424q0 -29 -28 -29h-166l83 -100q14 -15 14 -32v-9q0 -11 -3 -17.5t-10 -15.5l-89 -105h171q28 0 28 -29v-87h-351v76q0 11 3 19t9 16l111 147l-111 142q-12 16 -12 36v75h351v-87z" />
    <glyph glyph-name="tau" unicode="&#x3c4;" horiz-adv-x="441" 
d="M425 424q0 -29 -29 -29h-111v-366q0 -29 -28 -29h-100v395h-112q-29 0 -29 29v87h409v-87z" />
    <glyph glyph-name="upsilon" unicode="&#x3c5;" horiz-adv-x="451" 
d="M290 177v-148q0 -29 -28 -29h-101v177l-157 334h119q26 0 33 -24l70 -197l71 197q7 24 33 24h117z" />
    <glyph glyph-name="phi" unicode="&#x3c6;" horiz-adv-x="588" 
d="M330 540q29 0 29 -28v-27h15q99 0 142 -41.5t43 -128.5v-101q0 -90 -44 -129.5t-141 -39.5h-15v-57h-101q-28 0 -28 29v27h-16q-97 0 -141 40t-44 130v101q0 87 43 128.5t142 41.5h16v55h100zM213 373q-29 0 -42 -11.5t-13 -39.5v-116q0 -27 14 -39.5t48 -12.5h15v219
h-22zM353 373v-219h16q33 0 47 12.5t14 39.5v116q0 28 -13 39.5t-42 11.5h-22z" />
    <glyph glyph-name="chi" unicode="&#x3c7;" horiz-adv-x="451" 
d="M297 261l157 -261h-125q-25 0 -33 21l-70 140l-70 -140q-11 -21 -34 -21h-125l157 261l-149 250h124q24 0 34 -22l63 -129l64 129q8 22 33 22h123z" />
    <glyph glyph-name="psi" unicode="&#x3c8;" horiz-adv-x="589" 
d="M548 272q0 -76 -39.5 -115.5t-120.5 -39.5h-30v-88q0 -29 -29 -29h-97v117h-31q-160 0 -160 155v239h99q28 0 28 -29v-218q0 -35 32 -35h32v253q0 29 29 29h68q29 0 29 -29v-253h32q31 0 31 35v218q0 29 28 29h99v-239z" />
    <glyph glyph-name="omega" unicode="&#x3c9;" horiz-adv-x="465" 
d="M232 523q98 0 146.5 -46.5t48.5 -131.5v-111q0 -38 -14.5 -70t-37.5 -49h30q29 0 29 -29v-86h-176v99q0 9 8 9h1q12 0 21 13.5t9 42.5v184q0 29 -17 45t-48 16q-30 0 -47 -16t-17 -45v-184q0 -29 9 -42.5t22 -13.5h1q9 0 9 -9v-99h-178v86q0 29 29 29h30q-23 17 -37 49
t-14 70v111q0 85 47 131.5t146 46.5z" />
    <glyph glyph-name="iotadieresis" unicode="&#x3ca;" horiz-adv-x="216" 
d="M144 511q29 0 29 -29v-482h-129v511h100zM209 724q75 0 75 -65v-24q0 -31 -19 -48t-56 -17q-34 0 -54 17t-20 48v24q0 32 20 48.5t54 16.5zM4 724q36 0 55.5 -16.5t19.5 -48.5v-24q0 -31 -19.5 -48t-55.5 -17q-35 0 -54.5 17t-19.5 48v24q0 32 19.5 48.5t54.5 16.5z" />
    <glyph glyph-name="upsilondieresis" unicode="&#x3cb;" horiz-adv-x="451" 
d="M326 724q75 0 75 -65v-24q0 -31 -19 -48t-56 -17q-34 0 -54 17t-20 48v24q0 32 20 48.5t54 16.5zM121 724q36 0 55.5 -16.5t19.5 -48.5v-24q0 -31 -19.5 -48t-55.5 -17q-35 0 -54.5 17t-19.5 48v24q0 32 19.5 48.5t54.5 16.5zM290 177v-148q0 -29 -28 -29h-101v177
l-157 334h119q26 0 33 -24l70 -197l71 197q7 24 33 24h117z" />
    <glyph glyph-name="omicrontonos" unicode="&#x3cc;" horiz-adv-x="464" 
d="M232 523q97 0 145.5 -46.5t48.5 -137.5v-167q0 -89 -47 -136.5t-147 -47.5t-146.5 47.5t-46.5 136.5v167q0 91 48 137.5t145 46.5zM232 409q-32 0 -48 -16t-16 -45v-181q0 -31 16 -48t48 -17t48.5 16.5t16.5 45.5v180q0 65 -65 65z" />
    <glyph glyph-name="upsilontonos" unicode="&#x3cd;" horiz-adv-x="451" 
d="M290 177v-148q0 -29 -28 -29h-101v177l-157 334h119q26 0 33 -24l70 -197l71 197q7 24 33 24h117z" />
    <glyph glyph-name="omegatonos" unicode="&#x3ce;" horiz-adv-x="465" 
d="M232 523q98 0 146.5 -46.5t48.5 -131.5v-111q0 -38 -14.5 -70t-37.5 -49h30q29 0 29 -29v-86h-176v99q0 9 8 9h1q12 0 21 13.5t9 42.5v184q0 29 -17 45t-48 16q-30 0 -47 -16t-17 -45v-184q0 -29 9 -42.5t22 -13.5h1q9 0 9 -9v-99h-178v86q0 29 29 29h30q-23 17 -37 49
t-14 70v111q0 85 47 131.5t146 46.5z" />
    <glyph glyph-name="uni0401" unicode="&#x401;" horiz-adv-x="455" 
d="M421 555q0 -30 -30 -30h-206v-128h186q30 0 30 -30v-68q0 -31 -30 -31h-186v-138h206q30 0 30 -30v-100h-377v655h377v-100zM333 861q36 0 55.5 -16.5t19.5 -48.5v-24q0 -30 -19.5 -47.5t-55.5 -17.5q-35 0 -55 17.5t-20 47.5v24q0 32 20 48.5t55 16.5zM127 861
q75 0 75 -65v-24q0 -30 -19 -47.5t-56 -17.5q-34 0 -54 17.5t-20 47.5v24q0 32 20 48.5t54 16.5z" />
    <glyph glyph-name="uni0402" unicode="&#x402;" horiz-adv-x="670" 
d="M503 555q0 -30 -30 -30h-142v-91q20 3 41.5 5t44.5 2q107 0 165.5 -54t58.5 -169v-35q0 -100 -43 -147.5t-130 -47.5q-22 0 -39.5 2t-38.5 6v91q0 33 27 30q11 -2 18 -2.5t17 -0.5q23 0 35.5 13t12.5 45v55q0 45 -22 67t-63 22q-27 0 -49.5 -2t-34.5 -4v-279
q0 -31 -31 -31h-111v525h-142q-31 0 -31 30v100h487v-100z" />
    <glyph glyph-name="uni0403" unicode="&#x403;" horiz-adv-x="433" 
d="M417 555q0 -30 -30 -30h-202v-494q0 -31 -31 -31h-110v655h373v-100zM268 723q-12 -16 -31 -16h-89l70 129q11 18 30 18h120z" />
    <glyph glyph-name="uni0404" unicode="&#x404;" horiz-adv-x="454" 
d="M262 667q37 0 73 -4.5t87 -14.5l-1 -95q0 -28 -25 -28q-6 0 -9 1q-25 5 -51.5 9t-53.5 4q-30 0 -49.5 -5t-31.5 -16.5t-16.5 -31t-4.5 -48.5v-41h167q31 0 31 -31v-68q0 -31 -31 -31h-167v-49q0 -58 22 -79t80 -21q27 0 53 5l52 10q3 1 9 1q24 0 24 -28l2 -97
q-49 -11 -87 -16t-74 -5q-62 0 -104 13.5t-68.5 40t-38 66.5t-11.5 94v251q0 54 12 94.5t38.5 67t69 39.5t103.5 13z" />
    <glyph glyph-name="uni0405" unicode="&#x405;" horiz-adv-x="458" 
d="M236 667q29 0 67 -4t95 -13l-2 -97q-2 -30 -27 -30q-6 0 -9 1q-32 6 -64.5 10.5t-56.5 4.5q-39 0 -55.5 -15t-16.5 -42v-17q0 -21 10 -32.5t42 -22.5l85 -28q36 -12 61.5 -27.5t41.5 -37t23 -51t7 -68.5v-19q0 -93 -53 -142t-176 -49q-29 0 -69 5t-99 18l2 100
q0 28 22 28q3 0 11 -2q34 -8 68.5 -13.5t60.5 -5.5q51 0 71.5 16t20.5 43v22q0 22 -9.5 34t-32.5 20l-93 31q-38 13 -64 28.5t-41.5 36.5t-22.5 50t-7 68v10q0 92 49.5 141t160.5 49z" />
    <glyph glyph-name="uni0406" unicode="&#x406;" horiz-adv-x="229" 
d="M154 655q31 0 31 -31v-624h-141v655h110z" />
    <glyph glyph-name="uni0407" unicode="&#x407;" horiz-adv-x="229" 
d="M154 655q31 0 31 -31v-624h-141v655h110zM217 861q36 0 55.5 -16.5t19.5 -48.5v-24q0 -30 -19.5 -47.5t-55.5 -17.5q-35 0 -55 17.5t-20 47.5v24q0 32 20 48.5t55 16.5zM11 861q75 0 75 -65v-24q0 -30 -19 -47.5t-56 -17.5q-34 0 -54 17.5t-20 47.5v24q0 32 20 48.5
t54 16.5z" />
    <glyph glyph-name="uni0408" unicode="&#x408;" horiz-adv-x="311" 
d="M236 655q31 0 31 -31v-441q0 -100 -43 -147.5t-129 -47.5q-14 0 -38 2t-59 11v89q0 29 26 29q2 0 3.5 -0.5t3.5 -0.5q11 -2 23 -3t23 -1q25 0 37 14t12 49v478h110z" />
    <glyph glyph-name="uni0409" unicode="&#x409;" horiz-adv-x="823" 
d="M367 540q-14 2 -27 2.5t-30 0.5q-39 0 -61.5 -22t-23.5 -68l-3 -247q-2 -112 -43.5 -165t-115.5 -53q-19 0 -35.5 2.5t-34.5 7.5v89q0 32 21 29q10 -2 15 -2h10q19 0 29.5 16t11.5 59l4 256q3 222 224 222q48 0 94 -2.5t106 -7.5v-251q22 3 41 4.5t32 1.5q106 0 165 -50
t59 -149v-24q0 -92 -59 -146.5t-182 -54.5q-16 0 -36.5 0.5t-43 1.5t-45 2.5t-42.5 3.5q-30 3 -30 33v511zM561 286q-12 0 -26.5 -1t-26.5 -2v-167q33 -3 52 -3q56 0 80 21t24 58v20q0 35 -24.5 54.5t-78.5 19.5z" />
    <glyph glyph-name="uni040A" unicode="&#x40a;" horiz-adv-x="814" 
d="M358 272h-173v-241q0 -31 -31 -31h-110v655h110q31 0 31 -31v-223h173v223q0 31 30 31h111v-249q22 3 40.5 4.5t31.5 1.5q106 0 165.5 -50t59.5 -149v-24q0 -92 -59.5 -146.5t-181.5 -54.5q-17 0 -37.5 0.5t-43 1.5t-45 2.5t-42.5 3.5q-29 3 -29 33v243zM551 286
q-12 0 -26.5 -1t-25.5 -2v-167q31 -3 52 -3q55 0 79 21t24 58v20q0 35 -24.5 54.5t-78.5 19.5z" />
    <glyph glyph-name="uni040B" unicode="&#x40b;" horiz-adv-x="669" 
d="M504 555q0 -30 -31 -30h-142v-83q20 2 40.5 4t43.5 2q107 0 165.5 -54t58.5 -169v-225h-111q-31 0 -31 31v203q0 45 -22 67t-62 22q-28 0 -49 -2t-33 -4v-286q0 -31 -31 -31h-111v525h-142q-31 0 -31 30v100h488v-100z" />
    <glyph glyph-name="uni040C" unicode="&#x40c;" horiz-adv-x="555" 
d="M340 350l224 -350h-143q-23 0 -36 20l-158 256h-42v-245q0 -31 -31 -31h-110v655h110q31 0 31 -31v-233h40l151 244q13 20 37 20h124zM320 723q-12 -16 -31 -16h-89l70 129q11 18 30 18h120z" />
    <glyph glyph-name="uni040D" unicode="&#x40d;" horiz-adv-x="543" 
d="M499 0h-111q-30 0 -30 31v357l-174 -365q-12 -23 -36 -23h-104v655h110q31 0 31 -31v-359l174 367q10 23 35 23h105v-655zM227 854q20 0 30 -18l70 -129h-89q-19 0 -31 16l-100 131h120z" />
    <glyph glyph-name="uni040E" unicode="&#x40e;" horiz-adv-x="514" 
d="M230 0h-108q-27 0 -27 21q0 8 4 16l88 197l-186 421h133q28 0 35 -25l89 -259l100 260q8 24 35 24h126zM378 850q8 7 17 7q13 0 13 -21v-72q-35 -31 -72.5 -45.5t-76.5 -14.5q-43 0 -78 15.5t-71 44.5v72q0 21 13 21q9 0 17 -7q20 -14 51 -28.5t68 -14.5q36 0 67.5 14.5
t51.5 28.5z" />
    <glyph glyph-name="uni040F" unicode="&#x40f;" horiz-adv-x="543" 
d="M499 0h-163v-130h-130v130h-162v655h110q31 0 31 -31v-494h173v494q0 31 30 31h111v-655z" />
    <glyph glyph-name="uni0410" unicode="&#x410;" horiz-adv-x="539" 
d="M542 0h-123q-27 0 -33 27l-24 101h-188l-24 -101q-6 -27 -34 -27h-119l190 655h165zM199 246h138l-69 295z" />
    <glyph glyph-name="uni0411" unicode="&#x411;" horiz-adv-x="500" 
d="M417 556q0 -31 -32 -31h-200v-119q22 3 40.5 4.5t32.5 1.5q106 0 165 -50t59 -149v-24q0 -92 -59 -146.5t-182 -54.5q-44 0 -94.5 2.5t-102.5 7.5v657h373v-99zM238 286q-13 0 -27.5 -1t-25.5 -2v-167q31 -3 52 -3q55 0 79.5 21t24.5 58v20q0 35 -24.5 54.5t-78.5 19.5z
" />
    <glyph glyph-name="uni0412" unicode="&#x412;" horiz-adv-x="503" 
d="M234 666q57 0 100 -12.5t71.5 -34.5t43 -52t14.5 -64v-16q0 -49 -25 -86.5t-78 -57.5q60 -11 93.5 -50.5t33.5 -98.5v-18q0 -41 -13.5 -75.5t-43.5 -59.5t-77 -39t-114 -14q-42 0 -85.5 0.5t-109.5 4.5v668q19 1 44.5 1.5t52 1.5t51 1.5t42.5 0.5zM185 272v-157
q20 -2 30.5 -2h26.5q57 0 80.5 20t23.5 53v17q0 32 -23 50.5t-76 18.5h-62zM229 544h-20.5t-23.5 -2v-151h57q40 0 60 20t20 54v14q0 32 -21 48.5t-72 16.5z" />
    <glyph glyph-name="uni0413" unicode="&#x413;" horiz-adv-x="433" 
d="M417 555q0 -30 -30 -30h-202v-494q0 -31 -31 -31h-110v655h373v-100z" />
    <glyph glyph-name="uni0414" unicode="&#x414;" horiz-adv-x="575" 
d="M308 667q50 0 98 -2.5t105 -8.5v-526h61v-260h-100q-30 0 -30 31v99h-309v-99q0 -31 -30 -31h-100v260h62v311q0 115 57.5 170.5t185.5 55.5zM303 544q-51 0 -74 -22.5t-23 -68.5v-323h163v410q-18 2 -34 3t-32 1z" />
    <glyph glyph-name="uni0415" unicode="&#x415;" horiz-adv-x="455" 
d="M421 555q0 -30 -30 -30h-206v-128h186q30 0 30 -30v-68q0 -31 -30 -31h-186v-138h206q30 0 30 -30v-100h-377v655h377v-100z" />
    <glyph glyph-name="uni0416" unicode="&#x416;" horiz-adv-x="802" 
d="M637 341l161 -341h-132q-26 0 -36 23l-111 253h-47v-245q0 -31 -31 -31h-80q-31 0 -31 31v244l-48 1l-111 -253q-10 -23 -36 -23h-131l162 340l-154 315h124q23 0 35 -23l112 -241h47v233q0 31 31 31h80q31 0 31 -31v-233h48l113 241q10 23 35 23h122z" />
    <glyph glyph-name="uni0417" unicode="&#x417;" horiz-adv-x="449" 
d="M184 667q120 0 174 -43.5t54 -124.5v-16q0 -45 -24.5 -81t-77.5 -57q57 -17 88 -57t31 -95v-22q0 -42 -14 -75.5t-44 -57.5t-76.5 -37t-111.5 -13q-38 0 -76.5 4t-85.5 15l1 93q0 29 25 29q5 0 8 -1q32 -7 66 -11t60 -4q60 0 83 17.5t23 49.5v24q0 35 -23 52.5t-77 17.5
h-73q-31 0 -31 31v63q0 31 31 31h73q44 0 64 18t20 49v16q0 29 -21 44.5t-70 15.5q-27 0 -60 -3.5t-65 -8.5q-3 -1 -8 -1q-25 0 -25 28l-1 90q51 10 89 15t74 5z" />
    <glyph glyph-name="uni0418" unicode="&#x418;" horiz-adv-x="543" 
d="M499 0h-111q-30 0 -30 31v357l-174 -365q-12 -23 -36 -23h-104v655h110q31 0 31 -31v-359l174 367q10 23 35 23h105v-655z" />
    <glyph glyph-name="uni0419" unicode="&#x419;" horiz-adv-x="543" 
d="M499 0h-111q-30 0 -30 31v357l-174 -365q-12 -23 -36 -23h-104v655h110q31 0 31 -31v-359l174 367q10 23 35 23h105v-655zM390 850q8 7 17 7q13 0 13 -21v-72q-35 -31 -72.5 -45.5t-76.5 -14.5q-43 0 -78 15.5t-71 44.5v72q0 21 13 21q9 0 17 -7q20 -14 51 -28.5
t68 -14.5q36 0 67.5 14.5t51.5 28.5z" />
    <glyph glyph-name="uni041A" unicode="&#x41a;" horiz-adv-x="555" 
d="M340 350l224 -350h-143q-23 0 -36 20l-158 256h-42v-245q0 -31 -31 -31h-110v655h110q31 0 31 -31v-233h40l151 244q13 20 37 20h124z" />
    <glyph glyph-name="uni041B" unicode="&#x41b;" horiz-adv-x="552" 
d="M309 667q48 0 94 -2.5t105 -7.5v-657h-110q-31 0 -31 31v509q-14 2 -27 2.5t-30 0.5q-39 0 -61.5 -22t-23.5 -68l-3 -247q-2 -112 -43.5 -165t-113.5 -53q-21 0 -38 3t-34 8v88q0 32 21 29q10 -2 15 -2h10q19 0 29.5 16t11.5 59l4 256q2 111 57 166.5t168 55.5z" />
    <glyph glyph-name="uni041C" unicode="&#x41c;" horiz-adv-x="668" 
d="M525 0q-30 0 -31 31l-6 373l-76 -303q-6 -26 -33 -26h-91q-27 0 -33 26l-76 303l-5 -373q-1 -31 -31 -31h-103l6 655h146q27 0 34 -26l109 -411l109 410q7 27 33 27h144l7 -655h-103z" />
    <glyph glyph-name="uni041D" unicode="&#x41d;" horiz-adv-x="543" 
d="M499 0h-111q-30 0 -30 31v241h-173v-241q0 -31 -31 -31h-110v655h110q31 0 31 -31v-223h173v223q0 31 30 31h111v-655z" />
    <glyph glyph-name="uni041E" unicode="&#x41e;" horiz-adv-x="538" 
d="M269 667q118 0 174 -58t56 -167v-229q0 -106 -55 -165.5t-175 -59.5q-121 0 -175.5 59.5t-54.5 165.5v229q0 109 55 167t175 58zM269 539q-89 0 -89 -88v-245q0 -90 89 -90t89 90v244q0 89 -89 89z" />
    <glyph glyph-name="uni041F" unicode="&#x41f;" horiz-adv-x="543" 
d="M499 0h-111q-30 0 -30 31v494h-173v-494q0 -31 -31 -31h-110v655h455v-655z" />
    <glyph glyph-name="uni0420" unicode="&#x420;" horiz-adv-x="492" 
d="M232 666q125 1 184.5 -52.5t59.5 -142.5v-21q0 -97 -57.5 -152.5t-170.5 -55.5q-12 0 -27.5 1t-35.5 4v-216q0 -31 -31 -31h-110v660q50 3 99.5 4.5t88.5 1.5zM233 543h-26.5t-21.5 -2v-169q17 -2 29 -3t23 -1q98 0 98 86v14q0 35 -24 55t-78 20z" />
    <glyph glyph-name="uni0421" unicode="&#x421;" horiz-adv-x="454" 
d="M264 -12q-63 0 -106 13.5t-69.5 40t-38 66.5t-11.5 94v251q0 54 12 94.5t39 67t70 39.5t105 13q31 0 67 -4t94 -14l-2 -95q0 -29 -25 -29q-6 0 -9 1q-25 5 -51.5 9t-53.5 4q-31 0 -51.5 -5t-32.5 -16.5t-16.5 -31t-4.5 -48.5v-220q0 -29 5 -48t17.5 -30.5t32.5 -16.5
t50 -5q27 0 53 5l52 10q3 1 9 1q24 0 24 -28l1 -99q-51 -10 -89 -14.5t-71 -4.5z" />
    <glyph glyph-name="uni0422" unicode="&#x422;" horiz-adv-x="520" 
d="M504 555q0 -30 -31 -30h-142v-494q0 -31 -31 -31h-111v525h-142q-31 0 -31 30v100h488v-100z" />
    <glyph glyph-name="uni0423" unicode="&#x423;" horiz-adv-x="514" 
d="M230 0h-108q-27 0 -27 21q0 8 4 16l88 197l-186 421h133q28 0 35 -25l89 -259l100 260q8 24 35 24h126z" />
    <glyph glyph-name="uni0424" unicode="&#x424;" horiz-adv-x="723" 
d="M402 695q31 0 31 -31v-20q6 1 12 1h12q122 0 175 -54.5t53 -173.5v-180q0 -119 -52.5 -174t-175.5 -55q-6 0 -12.5 0.5t-12.5 0.5v-50h-110q-30 0 -30 30v20q-6 0 -12.5 -0.5t-12.5 -0.5q-62 0 -105.5 13.5t-70.5 41.5t-39.5 71t-12.5 103v180q0 119 52.5 173.5
t175.5 54.5h12.5t12.5 -1v51h110zM267 520q-46 0 -66 -20t-20 -73v-200q0 -53 19.5 -74t66.5 -21q6 0 13.5 0.5t13.5 0.5v386q-6 1 -13.5 1h-13.5zM457 520h-13t-13 -1v-386q6 -1 13 -1h13q46 0 66 21t20 74v200q0 53 -20 73t-66 20z" />
    <glyph glyph-name="uni0425" unicode="&#x425;" horiz-adv-x="539" 
d="M351 335l191 -335h-141q-26 0 -36 23l-97 198l-98 -198q-10 -23 -36 -23h-137l192 335l-182 320h140q23 0 35 -23l90 -183l90 183q10 23 35 23h136z" />
    <glyph glyph-name="uni0426" unicode="&#x426;" horiz-adv-x="555" 
d="M491 130h61v-260h-100q-31 0 -31 31v99h-377v655h110q31 0 31 -31v-494h165v494q0 31 30 31h111v-525z" />
    <glyph glyph-name="uni0427" unicode="&#x427;" horiz-adv-x="521" 
d="M477 0h-111q-31 0 -31 31v182q-44 -6 -82 -6q-221 0 -221 216v232h111q31 0 31 -31v-204q0 -89 87 -89q21 0 39 1.5t35 3.5v288q0 31 31 31h111v-655z" />
    <glyph glyph-name="uni0428" unicode="&#x428;" horiz-adv-x="717" 
d="M673 0h-629v655h110q30 0 30 -31v-494h106v494q0 31 30 31h77q30 0 30 -31v-494h106v494q0 31 30 31h110v-655z" />
    <glyph glyph-name="uni0429" unicode="&#x429;" horiz-adv-x="737" 
d="M673 130h61v-260h-99q-31 0 -31 31v99h-560v655h110q30 0 30 -31v-494h106v494q0 31 30 31h77q30 0 30 -31v-494h106v494q0 31 30 31h110v-525z" />
    <glyph glyph-name="uni042A" unicode="&#x42a;" horiz-adv-x="649" 
d="M304 655q30 0 30 -31v-218q22 3 40.5 4.5t32.5 1.5q106 0 165 -50t59 -149v-24q0 -92 -59 -146.5t-182 -54.5q-45 0 -93.5 2.5t-103.5 6.5v527h-149q-31 0 -31 30v101h291zM387 286q-13 0 -27.5 -1t-25.5 -2v-167q33 -3 52 -3q56 0 80 21t24 58v20q0 35 -24.5 54.5
t-78.5 19.5z" />
    <glyph glyph-name="uni042B" unicode="&#x42b;" horiz-adv-x="734" 
d="M690 0h-111q-30 0 -30 31v593q0 31 30 31h111v-655zM154 655q31 0 31 -31v-218q22 3 40.5 4.5t32.5 1.5q106 0 165 -50t59 -149v-24q0 -92 -59 -146.5t-182 -54.5q-20 0 -45 0.5t-51.5 2t-52.5 3.5t-48 4v657h110zM238 286q-13 0 -27.5 -1t-25.5 -2v-167q31 -3 52 -3
q55 0 79.5 21t24.5 58v20q0 35 -24.5 54.5t-78.5 19.5z" />
    <glyph glyph-name="uni042C" unicode="&#x42c;" horiz-adv-x="500" 
d="M154 655q31 0 31 -31v-218q22 3 40.5 4.5t32.5 1.5q106 0 165 -50t59 -149v-24q0 -92 -59 -146.5t-182 -54.5q-45 0 -95.5 2.5t-101.5 6.5v658h110zM238 286q-13 0 -27.5 -1t-25.5 -2v-167q31 -3 52 -3q55 0 79.5 21t24.5 58v20q0 35 -24.5 54.5t-78.5 19.5z" />
    <glyph glyph-name="uni042D" unicode="&#x42d;" horiz-adv-x="457" 
d="M193 667q119 0 172 -50.5t53 -163.5v-251q0 -54 -12 -94t-38.5 -67t-69.5 -40t-105 -13q-36 0 -75.5 4.5t-84.5 15.5l1 95q0 13 6 21t17 8q3 0 11 -2q26 -6 53 -10t52 -4q30 0 50 5t32 17t17 31t5 47v51h-187q-30 0 -30 31v68q0 15 9 23t21 8h187v43q0 28 -4.5 47.5
t-16.5 31t-32 16.5t-51 5q-25 0 -52.5 -3.5t-53.5 -8.5q-3 -1 -8 -1q-25 0 -25 28l-1 93q56 10 92 14.5t68 4.5z" />
    <glyph glyph-name="uni042E" unicode="&#x42e;" horiz-adv-x="734" 
d="M479 667q106 0 161 -55.5t55 -166.5v-234q0 -109 -54 -166t-162 -57q-109 0 -162.5 57t-53.5 166v60h-79v-240q0 -31 -30 -31h-110v655h110q30 0 30 -31v-224h79v45q0 109 54 165.5t162 56.5zM479 543q-35 0 -55 -21t-20 -64v-260q0 -44 20 -64.5t55 -20.5t55 21t20 64
v259q0 44 -20 65t-55 21z" />
    <glyph glyph-name="uni042F" unicode="&#x42f;" horiz-adv-x="513" 
d="M265 667q54 0 101 -2t103 -6v-659h-111q-30 0 -30 31v222q-20 -2 -33.5 -2h-33.5l-101 -228q-10 -23 -35 -23h-128l134 276q-52 24 -76 69t-24 107v15q0 94 55 147t179 53zM265 543q-48 0 -70.5 -19.5t-22.5 -53.5v-19q0 -35 22.5 -55t70.5 -20h31t32 2v163
q-18 2 -30.5 2h-32.5z" />
    <glyph glyph-name="uni0430" unicode="&#x430;" horiz-adv-x="454" 
d="M457 0h-112q-25 0 -31 25l-16 69h-145l-16 -69q-6 -25 -32 -25h-108l155 511h150zM174 197h101l-49 215z" />
    <glyph glyph-name="uni0431" unicode="&#x431;" horiz-adv-x="431" 
d="M358 424q0 -29 -28 -29h-157v-69q15 2 28.5 2.5t21.5 0.5q97 0 143.5 -40.5t46.5 -117.5v-23q0 -72 -49 -116t-153 -44q-45 0 -84.5 2t-82.5 6v515h314v-87zM209 220q-9 0 -18 -0.5t-18 -1.5v-118q12 -2 19.5 -2h15.5q42 0 59 14t17 38v15q0 26 -18 40.5t-57 14.5z" />
    <glyph glyph-name="uni0432" unicode="&#x432;" horiz-adv-x="436" 
d="M210 522q47 0 82 -9.5t58.5 -26.5t35 -40t11.5 -49v-16q0 -40 -19.5 -69.5t-63.5 -42.5q49 -10 76 -41t27 -79v-12q0 -68 -49 -108.5t-159 -40.5h-41.5t-37 1t-39 1.5t-47.5 2.5v524q45 2 88 3.5t78 1.5zM173 208v-108q12 -2 21 -2h20q41 0 57.5 13.5t16.5 36.5v12
q0 23 -15.5 35.5t-52.5 12.5h-47zM206 414q-6 0 -13.5 -0.5t-19.5 -1.5v-103h41q28 0 41.5 13t13.5 35v13q0 21 -15 32.5t-48 11.5z" />
    <glyph glyph-name="uni0433" unicode="&#x433;" horiz-adv-x="375" 
d="M358 424q0 -29 -28 -29h-157v-366q0 -29 -29 -29h-100v511h314v-87z" />
    <glyph glyph-name="uni0434" unicode="&#x434;" horiz-adv-x="491" 
d="M262 523q36 0 77 -2.5t95 -7.5v-398h51v-245h-90q-28 0 -28 29v101h-243v-101q0 -29 -28 -29h-90v245h52v225q0 92 47.5 137.5t156.5 45.5zM259 412q-38 0 -55 -15.5t-17 -47.5v-234h117v295q-14 2 -24 2h-21z" />
    <glyph glyph-name="uni0435" unicode="&#x435;" horiz-adv-x="398" 
d="M365 424q0 -29 -29 -29h-163v-81h146q29 0 29 -29v-55q0 -29 -29 -29h-146v-85h163q29 0 29 -29v-87h-321v511h321v-87z" />
    <glyph glyph-name="uni0436" unicode="&#x436;" horiz-adv-x="670" 
d="M534 269l132 -269h-110q-24 0 -35 21l-92 194h-34v-186q0 -29 -28 -29h-64q-28 0 -28 29v186h-35l-93 -194q-10 -21 -34 -21h-109l133 267l-124 244h103q25 0 33 -21l93 -181h33v173q0 29 28 29h64q28 0 28 -29v-173h33l93 182q9 20 33 20h103z" />
    <glyph glyph-name="uni0437" unicode="&#x437;" horiz-adv-x="391" 
d="M162 523q102 0 147.5 -35.5t45.5 -95.5v-13q0 -35 -20 -64t-65 -46q48 -13 73 -45.5t25 -77.5v-13q0 -33 -11 -59.5t-36 -45.5t-64.5 -29.5t-97.5 -10.5q-32 0 -65.5 4t-72.5 12l1 81q0 26 23 26q5 0 8 -1q28 -5 57 -8.5t49 -3.5q46 0 63.5 12t17.5 34v13q0 23 -17 36
t-58 13h-62q-29 0 -29 29v53q0 29 29 29h63q31 0 45.5 12t14.5 32v11q0 19 -15.5 30t-54.5 11q-24 0 -52 -3.5t-51 -7.5q-2 0 -3.5 -0.5t-3.5 -0.5q-24 0 -24 27l-1 79q42 8 78.5 12t62.5 4z" />
    <glyph glyph-name="uni0438" unicode="&#x438;" horiz-adv-x="470" 
d="M427 0h-101q-29 0 -29 29v244l-126 -252q-10 -21 -33 -21h-94v511h100q29 0 29 -29v-248l127 256q10 21 34 21h93v-511z" />
    <glyph glyph-name="uni0439" unicode="&#x439;" horiz-adv-x="470" 
d="M427 0h-101q-29 0 -29 29v244l-126 -252q-10 -21 -33 -21h-94v511h100q29 0 29 -29v-248l127 256q10 21 34 21h93v-511zM332 692q7 5 16 5q15 0 15 -21v-70q-63 -48 -128 -48t-129 49v69q0 22 15 22q6 0 15 -6q19 -12 45.5 -23.5t53.5 -11.5q26 0 52 11.5t45 23.5z" />
    <glyph glyph-name="uni043A" unicode="&#x43a;" horiz-adv-x="482" 
d="M309 272l181 -272h-128q-23 0 -34 18l-126 192h-29v-181q0 -29 -29 -29h-100v511h100q29 0 29 -29v-171h28l117 182q12 18 35 18h114z" />
    <glyph glyph-name="uni043B" unicode="&#x43b;" horiz-adv-x="469" 
d="M257 523q21 0 39 -0.5t37.5 -2t41.5 -3t51 -4.5v-513h-101q-28 0 -28 29v381q-10 1 -19 1.5t-20 0.5q-28 0 -44.5 -16.5t-17.5 -46.5l-4 -188q-2 -91 -36 -132t-95 -41q-20 0 -35.5 2t-32.5 7v82q0 14 4.5 19t13.5 4q10 -1 13.5 -1h7.5q16 0 23.5 11t8.5 40l4 191
q2 89 48.5 134.5t140.5 45.5z" />
    <glyph glyph-name="uni043C" unicode="&#x43c;" horiz-adv-x="577" 
d="M537 0h-97q-28 0 -30 29l-4 268l-55 -212q-6 -24 -31 -24h-65q-25 0 -31 24l-56 211l-4 -267q0 -29 -29 -29h-95l4 511h128q25 0 32 -25l85 -306l85 306q6 25 32 25h126z" />
    <glyph glyph-name="uni043D" unicode="&#x43d;" horiz-adv-x="470" 
d="M427 0h-101q-29 0 -29 29v175h-124v-175q0 -29 -29 -29h-100v511h100q29 0 29 -29v-163h124v163q0 29 29 29h101v-511z" />
    <glyph glyph-name="uni043E" unicode="&#x43e;" horiz-adv-x="464" 
d="M232 523q97 0 145.5 -46.5t48.5 -137.5v-167q0 -89 -47 -136.5t-147 -47.5t-146.5 47.5t-46.5 136.5v167q0 91 48 137.5t145 46.5zM232 409q-32 0 -48 -16t-16 -45v-181q0 -31 16 -48t48 -17t48.5 16.5t16.5 45.5v180q0 65 -65 65z" />
    <glyph glyph-name="uni043F" unicode="&#x43f;" horiz-adv-x="470" 
d="M427 0h-101q-29 0 -29 29v366h-124v-366q0 -29 -29 -29h-100v511h383v-511z" />
    <glyph glyph-name="uni0440" unicode="&#x440;" horiz-adv-x="425" 
d="M203 522q105 0 155 -42.5t50 -115.5v-19q0 -79 -46.5 -122t-132.5 -43q-10 0 -25.5 1t-30.5 4v-156q0 -29 -29 -29h-100v517q53 2 88.5 3.5t70.5 1.5zM206 412h-18t-15 -1v-119q10 -2 19.5 -2.5t16.5 -0.5q36 0 53 15.5t17 44.5v10q0 25 -18 39t-55 14z" />
    <glyph glyph-name="uni0441" unicode="&#x441;" horiz-adv-x="394" 
d="M228 523q29 0 61.5 -3.5t75.5 -11.5v-84q0 -26 -24 -26q-6 0 -9 1q-20 4 -42.5 7t-40.5 3q-48 0 -64.5 -16.5t-16.5 -59.5v-154q0 -22 4 -36.5t13 -23t25 -12t40 -3.5q19 0 40.5 3t41.5 7q3 1 9 1q23 0 23 -26l1 -85q-45 -8 -76.5 -12t-59.5 -4q-103 0 -146.5 42.5
t-43.5 131.5v187q0 91 43.5 132.5t145.5 41.5z" />
    <glyph glyph-name="uni0442" unicode="&#x442;" horiz-adv-x="441" 
d="M425 424q0 -29 -29 -29h-111v-366q0 -29 -28 -29h-100v395h-112q-29 0 -29 29v87h409v-87z" />
    <glyph glyph-name="uni0443" unicode="&#x443;" horiz-adv-x="437" 
d="M204 0h-98q-25 0 -25 20q0 6 3 14l71 148l-154 329h122q25 0 32 -24l64 -185l77 187q10 22 33 22h115z" />
    <glyph glyph-name="uni0444" unicode="&#x444;" horiz-adv-x="619" 
d="M345 543q29 0 29 -29v-9q4 0 7 0.5t8 0.5q54 0 90.5 -11t59 -36t32 -64t9.5 -94v-96q0 -54 -9.5 -92.5t-32 -63t-59 -36t-90.5 -11.5q-5 0 -8 0.5t-7 0.5v-38h-101q-28 0 -28 29v9q-4 0 -7.5 -0.5t-7.5 -0.5q-54 0 -91 11.5t-59 36t-31.5 63.5t-9.5 94v94q0 55 9.5 94
t31.5 63.5t59 36t91 11.5q4 0 7 -0.5t8 -0.5v38h100zM386 394h-9.5t-8.5 -1v-279h18q37 0 50.5 14t13.5 46v162q0 32 -13.5 45t-50.5 13zM233 394q-37 0 -51 -13t-14 -45v-159q0 -36 14 -49.5t51 -13.5h17v279q-4 1 -8.5 1h-8.5z" />
    <glyph glyph-name="uni0445" unicode="&#x445;" horiz-adv-x="451" 
d="M297 261l157 -261h-125q-25 0 -33 21l-70 140l-70 -140q-11 -21 -34 -21h-125l157 261l-149 250h124q24 0 34 -22l63 -129l64 129q8 22 33 22h123z" />
    <glyph glyph-name="uni0446" unicode="&#x446;" horiz-adv-x="477" 
d="M419 115h52v-245h-90q-29 0 -29 29v101h-308v511h100q29 0 29 -29v-367h117v367q0 29 29 29h100v-396z" />
    <glyph glyph-name="uni0447" unicode="&#x447;" horiz-adv-x="447" 
d="M404 0h-101q-28 0 -28 29v132q-33 -6 -63 -6q-89 0 -135 44.5t-46 134.5v177h100q29 0 29 -29v-153q0 -63 60 -63q16 0 30.5 1t24.5 3v212q0 29 28 29h101v-511z" />
    <glyph glyph-name="uni0448" unicode="&#x448;" horiz-adv-x="615" 
d="M572 0h-528v511h99q29 0 29 -29v-367h73v367q0 29 28 29h69q28 0 28 -29v-367h73v367q0 29 28 29h101v-511z" />
    <glyph glyph-name="uni0449" unicode="&#x449;" horiz-adv-x="629" 
d="M572 115h51v-245h-90q-28 0 -28 29v101h-461v511h99q29 0 29 -29v-367h73v367q0 29 28 29h69q28 0 28 -29v-367h73v367q0 29 28 29h101v-396z" />
    <glyph glyph-name="uni044A" unicode="&#x44a;" horiz-adv-x="551" 
d="M164 392h-122q-29 0 -29 29v90h251q29 0 29 -29v-156q30 3 50 3q97 0 143.5 -40.5t46.5 -117.5v-23q0 -72 -49 -116t-153 -44q-45 0 -85.5 2.5t-81.5 5.5v396zM329 220q-9 0 -18 -0.5t-18 -1.5v-118q12 -2 19.5 -2h15.5q42 0 59 14t17 38v15q0 26 -18 40.5t-57 14.5z" />
    <glyph glyph-name="uni044B" unicode="&#x44b;" horiz-adv-x="650" 
d="M607 0h-101q-29 0 -29 29v453q0 29 29 29h101v-511zM144 511q29 0 29 -29v-156q15 2 28.5 2.5t21.5 0.5q97 0 143.5 -40.5t46.5 -117.5v-23q0 -72 -49 -116t-153 -44q-45 0 -85 2.5t-82 5.5v515h100zM209 220q-9 0 -18 -0.5t-18 -1.5v-118q12 -2 19.5 -2h15.5q42 0 59 14
t17 38v15q0 26 -18 40.5t-57 14.5z" />
    <glyph glyph-name="uni044C" unicode="&#x44c;" horiz-adv-x="431" 
d="M144 511q29 0 29 -29v-156q15 2 28.5 2.5t21.5 0.5q97 0 143.5 -40.5t46.5 -117.5v-23q0 -72 -49 -116t-153 -44q-45 0 -88 2.5t-79 5.5v515h100zM209 220q-9 0 -18 -0.5t-18 -1.5v-118q12 -2 19.5 -2h15.5q42 0 59 14t17 38v15q0 26 -18 40.5t-57 14.5z" />
    <glyph glyph-name="uni044D" unicode="&#x44d;" horiz-adv-x="397" 
d="M168 523q102 0 146 -42t44 -133v-185q0 -89 -44 -132t-146 -43q-34 0 -67 4.5t-71 12.5l1 83q0 26 22 26q7 0 10 -1q21 -4 43 -7t41 -3q45 0 63.5 15.5t18.5 56.5v26h-149q-28 0 -28 29v55q0 29 28 29h149v24q0 42 -18.5 56.5t-63.5 14.5q-20 0 -42 -2.5t-43 -6.5
q-3 -1 -8 -1q-23 0 -23 27l-1 80q43 8 73 12.5t65 4.5z" />
    <glyph glyph-name="uni044E" unicode="&#x44e;" horiz-adv-x="627" 
d="M407 523q90 0 136 -46t46 -135v-172q0 -89 -46 -135.5t-136 -46.5t-135.5 46.5t-45.5 135.5v34h-54v-175q0 -29 -29 -29h-99v511h99q29 0 29 -29v-163h54v23q0 88 45.5 134.5t135.5 46.5zM407 412q-24 0 -38 -14.5t-14 -42.5v-198q0 -57 52 -57q53 0 53 57v197
q0 58 -53 58z" />
    <glyph glyph-name="uni044F" unicode="&#x44f;" horiz-adv-x="453" 
d="M231 522q37 0 78 -1.5t101 -4.5v-516h-99q-28 0 -28 29v165q-11 -2 -21 -2h-20h-12l-82 -171q-10 -21 -33 -21h-118l112 216q-81 39 -81 134v15q0 72 48.5 114.5t154.5 42.5zM231 422q-39 0 -57.5 -16t-18.5 -39v-14q0 -28 19.5 -44t56.5 -16h24t28 2v125q-16 2 -26 2
h-26z" />
    <glyph glyph-name="uni0451" unicode="&#x451;" horiz-adv-x="398" 
d="M365 424q0 -29 -29 -29h-163v-81h146q29 0 29 -29v-55q0 -29 -29 -29h-146v-85h163q29 0 29 -29v-87h-321v511h321v-87zM303 724q75 0 75 -65v-24q0 -31 -19 -48t-56 -17q-34 0 -54 17t-20 48v24q0 32 20 48.5t54 16.5zM98 724q36 0 55.5 -16.5t19.5 -48.5v-24
q0 -31 -19.5 -48t-55.5 -17q-35 0 -54.5 17t-19.5 48v24q0 32 19.5 48.5t54.5 16.5z" />
    <glyph glyph-name="uni0452" unicode="&#x452;" horiz-adv-x="564" 
d="M425 424q0 -29 -29 -29h-111v-73q15 2 30.5 3t32.5 1q94 0 140.5 -43.5t48.5 -125.5v-19q0 -73 -36 -111.5t-104 -38.5q-16 0 -29 1.5t-33 5.5v92q0 17 15 16q7 -2 11 -2h9q37 0 37 38v21q0 55 -58 55q-17 0 -33.5 -1t-30.5 -3v-182q0 -29 -28 -29h-100v395h-112
q-29 0 -29 29v87h409v-87z" />
    <glyph glyph-name="uni0453" unicode="&#x453;" horiz-adv-x="375" 
d="M358 424q0 -29 -28 -29h-157v-366q0 -29 -29 -29h-100v511h314v-87zM238 569q-12 -15 -31 -15h-83l66 119q10 18 30 18h114z" />
    <glyph glyph-name="uni0454" unicode="&#x454;" horiz-adv-x="399" 
d="M229 523q32 0 62 -4t76 -12l-1 -82q0 -26 -24 -26q-5 0 -8 1q-21 4 -42.5 6.5t-41.5 2.5q-49 0 -65.5 -16.5t-16.5 -57.5v-21h131q28 0 28 -29v-55q0 -29 -28 -29h-131v-23q0 -42 17.5 -58t64.5 -16q20 0 41.5 2.5t42.5 7.5q2 0 3.5 0.5t3.5 0.5q25 0 25 -26l1 -85
q-44 -8 -76 -12t-62 -4q-104 0 -147 44t-43 131v185q0 89 44 132t146 43z" />
    <glyph glyph-name="uni0455" unicode="&#x455;" horiz-adv-x="390" 
d="M201 523q31 0 65 -3t70 -10l-1 -86q0 -27 -22 -27q-6 0 -9 1q-28 5 -54.5 8t-44.5 3q-29 0 -40.5 -9.5t-11.5 -26.5v-11q0 -14 7.5 -22t29.5 -14l69 -22q31 -10 52.5 -22.5t35 -29.5t19.5 -40t6 -54v-18q0 -74 -43.5 -113t-142.5 -39q-26 0 -67 5t-81 14l1 87q0 26 23 26
q5 0 8 -1q29 -6 56.5 -10.5t47.5 -4.5q39 0 53.5 10t14.5 28v14q0 14 -6.5 22.5t-25.5 14.5l-71 22q-32 10 -54 23t-35.5 30t-19.5 40t-6 53v10q0 73 41.5 112.5t135.5 39.5z" />
    <glyph glyph-name="uni0456" unicode="&#x456;" horiz-adv-x="216" 
d="M144 511q29 0 29 -29v-482h-129v511h100z" />
    <glyph glyph-name="uni0457" unicode="&#x457;" horiz-adv-x="216" 
d="M144 511q29 0 29 -29v-482h-129v511h100zM209 724q75 0 75 -65v-24q0 -31 -19 -48t-56 -17q-34 0 -54 17t-20 48v24q0 32 20 48.5t54 16.5zM4 724q36 0 55.5 -16.5t19.5 -48.5v-24q0 -31 -19.5 -48t-55.5 -17q-35 0 -54.5 17t-19.5 48v24q0 32 19.5 48.5t54.5 16.5z" />
    <glyph glyph-name="uni0458" unicode="&#x458;" horiz-adv-x="277" 
d="M205 511q28 0 28 -29v-329q0 -87 -36.5 -126t-109.5 -39q-47 0 -89 11v80q0 26 22 26q2 0 3.5 -0.5t3.5 -0.5q8 -2 18.5 -2.5t19.5 -0.5q21 0 30 10.5t9 38.5v361h101z" />
    <glyph glyph-name="uni0459" unicode="&#x459;" horiz-adv-x="685" 
d="M257 523q21 0 38.5 -0.5t36.5 -1.5t41.5 -3t52.5 -5v-187q31 3 51 3q96 0 143 -40.5t47 -117.5v-23q0 -72 -49 -116t-154 -44q-29 0 -65 1t-74 5q-27 1 -27 30v386q-10 1 -19.5 1.5t-20.5 0.5q-28 0 -44.5 -16.5t-17.5 -46.5l-4 -188q-2 -91 -36 -132t-95 -41
q-18 0 -33 2t-35 8v81q0 14 4.5 19t13.5 4q10 -1 13.5 -1h7.5q16 0 23.5 11t8.5 40l4 191q2 89 48.5 134.5t140.5 45.5zM463 220q-9 0 -18 -0.5t-19 -1.5v-118q13 -2 20.5 -2h14.5q42 0 59.5 14t17.5 38v15q0 26 -18 40.5t-57 14.5z" />
    <glyph glyph-name="uni045A" unicode="&#x45a;" horiz-adv-x="685" 
d="M427 326q30 3 50 3q97 0 143.5 -40.5t46.5 -117.5v-23q0 -72 -49 -116t-153 -44q-30 0 -66 1t-74 5q-27 1 -27 30v180h-125v-175q0 -29 -29 -29h-100v511h100q29 0 29 -29v-163h125v163q0 29 28 29h101v-185zM463 220q-9 0 -18 -0.5t-18 -1.5v-118q12 -2 19.5 -2h15.5
q42 0 59 14t17 38v15q0 26 -18 40.5t-57 14.5z" />
    <glyph glyph-name="uni045B" unicode="&#x45b;" horiz-adv-x="565" 
d="M425 424q0 -29 -29 -29h-111v-73q17 2 33.5 3.5t34.5 1.5q91 0 137.5 -45t46.5 -132v-150h-100q-28 0 -28 29v128q0 29 -16.5 43.5t-45.5 14.5q-18 0 -35 -1t-27 -3v-182q0 -29 -28 -29h-100v395h-112q-29 0 -29 29v87h409v-87z" />
    <glyph glyph-name="uni045C" unicode="&#x45c;" horiz-adv-x="482" 
d="M309 272l181 -272h-128q-23 0 -34 18l-126 192h-29v-181q0 -29 -29 -29h-100v511h100q29 0 29 -29v-171h28l117 182q12 18 35 18h114zM289 569q-12 -15 -31 -15h-83l66 119q10 18 30 18h114z" />
    <glyph glyph-name="uni045D" unicode="&#x45d;" horiz-adv-x="470" 
d="M427 0h-101q-29 0 -29 29v244l-126 -252q-10 -21 -33 -21h-94v511h100q29 0 29 -29v-248l127 256q10 21 34 21h93v-511zM199 691q19 0 30 -18l65 -119h-80q-18 0 -31 15l-94 122h110z" />
    <glyph glyph-name="uni045E" unicode="&#x45e;" horiz-adv-x="437" 
d="M204 0h-98q-25 0 -25 20q0 6 3 14l71 148l-154 329h122q25 0 32 -24l64 -185l77 187q10 22 33 22h115zM318 692q7 5 16 5q15 0 15 -21v-70q-63 -48 -128 -48t-129 49v69q0 22 15 22q6 0 15 -6q19 -12 45.5 -23.5t53.5 -11.5q26 0 52 11.5t45 23.5z" />
    <glyph glyph-name="uni045F" unicode="&#x45f;" horiz-adv-x="462" 
d="M419 0h-128v-130h-119v130h-128v511h100q29 0 29 -29v-367h117v367q0 29 29 29h100v-511z" />
    <glyph glyph-name="uni0462" unicode="&#x462;" horiz-adv-x="646" 
d="M504 555q0 -30 -31 -30h-142v-119q22 3 40.5 4.5t31.5 1.5q106 0 165.5 -50t59.5 -149v-24q0 -92 -59.5 -146.5t-182.5 -54.5q-23 0 -49.5 1t-53.5 2.5t-51.5 3t-42.5 2.5v528h-142q-31 0 -31 30v100h488v-100zM383 286q-12 0 -26.5 -1t-25.5 -2v-167q31 -3 51 -3
q56 0 80 21t24 58v20q0 35 -24.5 54.5t-78.5 19.5z" />
    <glyph glyph-name="uni0463" unicode="&#x463;" horiz-adv-x="544" 
d="M425 424q0 -29 -29 -29h-111v-69q31 3 51 3q96 0 143 -40.5t47 -117.5v-23q0 -72 -49 -116t-154 -44q-49 0 -89.5 2.5t-76.5 5.5v399h-112q-29 0 -29 29v87h409v-87zM322 220q-9 0 -18 -0.5t-19 -1.5v-118q13 -2 20.5 -2h14.5q42 0 59.5 14t17.5 38v15q0 26 -18 40.5
t-57 14.5z" />
    <glyph glyph-name="uni0472" unicode="&#x472;" horiz-adv-x="538" 
d="M269 667q118 0 174 -58t56 -167v-229q0 -106 -55 -165.5t-175 -59.5q-121 0 -175.5 59.5t-54.5 165.5v229q0 109 55 167t175 58zM180 276v-70q0 -90 89 -90t89 90v70h-178zM269 539q-89 0 -89 -88v-60h178v59q0 89 -89 89z" />
    <glyph glyph-name="uni0473" unicode="&#x473;" horiz-adv-x="464" 
d="M232 523q97 0 145.5 -46.5t48.5 -137.5v-167q0 -89 -47 -136.5t-147 -47.5t-146.5 47.5t-46.5 136.5v167q0 91 48 137.5t145 46.5zM168 210v-43q0 -31 16 -48t48 -17t48.5 16.5t16.5 45.5v46h-129zM232 409q-32 0 -48 -16t-16 -45v-37h129v33q0 65 -65 65z" />
    <glyph glyph-name="uni0474" unicode="&#x474;" horiz-adv-x="591" 
d="M515 667q23 0 41 -2.5t43 -7.5v-84q0 -29 -24 -29h-6q-18 3 -28 3q-20 0 -29.5 -10t-19.5 -42l-137 -495h-163l-188 655h121q28 0 34 -27l114 -507l80 361q12 56 26 92t33 56.5t44 28.5t59 8z" />
    <glyph glyph-name="uni0475" unicode="&#x475;" horiz-adv-x="496" 
d="M428 523q38 0 78 -10v-77q0 -28 -20 -28q-2 0 -3 0.5t-3 0.5q-17 3 -26 3q-16 0 -25 -8t-16 -29l-107 -375h-148l-154 511h110q27 0 31 -25l87 -381l57 265q9 44 20.5 73.5t28 47t38.5 25t52 7.5z" />
    <glyph glyph-name="uni0490" unicode="&#x490;" horiz-adv-x="433" 
d="M44 655h242v99q0 31 31 31h100v-230q0 -30 -30 -30h-202v-494q0 -31 -31 -31h-110v655z" />
    <glyph glyph-name="uni0491" unicode="&#x491;" horiz-adv-x="375" 
d="M358 424q0 -29 -28 -29h-157v-366q0 -29 -29 -29h-100v511h196v101q0 28 29 28h89v-216z" />
    <glyph glyph-name="uni0492" unicode="&#x492;" horiz-adv-x="456" 
d="M439 555q0 -30 -30 -30h-202v-128h87q29 0 29 -31v-85h-116v-250q0 -31 -30 -31h-111v281h-38q-28 0 -28 31v85h66v258h373v-100z" />
    <glyph glyph-name="uni0493" unicode="&#x493;" horiz-adv-x="386" 
d="M370 424q0 -29 -28 -29h-157v-85h58q29 0 29 -29v-72h-87v-180q0 -29 -29 -29h-100v209h-25q-29 0 -29 29v72h54v201h314v-87z" />
    <glyph glyph-name="uni0496" unicode="&#x496;" horiz-adv-x="812" 
d="M710 -130q-31 0 -31 31v99h-14q-26 0 -36 23l-110 253h-47v-245q0 -31 -31 -31h-80q-31 0 -31 31v244l-48 1l-111 -253q-10 -23 -36 -23h-131l162 340l-154 315h123q25 0 35 -23l112 -241h48v233q0 31 31 31h80q31 0 31 -31v-233h48l113 241q10 23 35 23h122l-153 -314
l97 -211h76v-260h-100z" />
    <glyph glyph-name="uni0497" unicode="&#x497;" horiz-adv-x="667" 
d="M534 269l76 -154h55v-245h-89q-29 0 -29 29v101h-1q-8 0 -13.5 5t-11.5 16l-92 194h-34v-186q0 -29 -28 -29h-64q-28 0 -28 29v186h-35l-93 -194q-10 -21 -34 -21h-109l133 267l-124 244h103q25 0 33 -21l93 -181h33v173q0 29 28 29h64q28 0 28 -29v-173h33l93 182
q9 20 33 20h103z" />
    <glyph glyph-name="uni0498" unicode="&#x498;" horiz-adv-x="449" 
d="M310 345q57 -17 88 -57t31 -95v-22q0 -71 -41.5 -117.5t-133.5 -60.5l-8 -24h10q29 0 45 -19t16 -45v-18q0 -39 -27 -61.5t-88 -22.5q-23 0 -41 2t-33 5v54q0 12 3.5 16.5t10.5 4.5h4q15 -3 31 -3t22 5.5t6 15.5v6q0 11 -6 17t-21 6h-15q-17 0 -17 15q0 7 3 18l8 24
q-34 1 -67.5 6t-68.5 13l1 92q0 29 25 29q5 0 8 -1q32 -7 66 -11t60 -4q60 0 83 17.5t23 49.5v24q0 35 -23 52.5t-77 17.5h-73q-31 0 -31 31v63q0 31 31 31h73q44 0 64 18t20 49v16q0 29 -21 44.5t-70 15.5q-27 0 -60 -3.5t-65 -8.5q-3 -1 -8 -1q-25 0 -25 28l-1 92
q54 9 92 13.5t71 4.5q120 0 174 -43.5t54 -124.5v-16q0 -45 -24.5 -81t-77.5 -57z" />
    <glyph glyph-name="uni0499" unicode="&#x499;" horiz-adv-x="391" 
d="M270 269q48 -13 73 -45.5t25 -77.5v-13q0 -54 -32 -91.5t-108 -48.5l-8 -24h10q29 0 45 -19t16 -45v-18q0 -39 -27 -61.5t-88 -22.5q-18 0 -36.5 1.5t-37.5 5.5v54q0 12 3.5 16.5t10.5 4.5h4q8 -2 16.5 -2.5t14.5 -0.5q16 0 22 5.5t6 15.5v6q0 11 -6 17t-21 6h-15
q-17 0 -17 15q0 7 3 18l8 24q-25 2 -51 5.5t-59 9.5l1 81q0 26 23 26q5 0 8 -1q28 -5 57 -8.5t49 -3.5q46 0 63.5 12t17.5 34v13q0 23 -17 36t-58 13h-62q-29 0 -29 29v53q0 29 29 29h63q31 0 45.5 12t14.5 32v11q0 19 -15.5 30t-54.5 11q-24 0 -52 -3.5t-51 -7.5
q-2 0 -3.5 -0.5t-3.5 -0.5q-24 0 -24 27l-1 79q38 8 74 12t67 4q102 0 147.5 -35.5t45.5 -95.5v-13q0 -35 -20 -64t-65 -46z" />
    <glyph glyph-name="uni049A" unicode="&#x49a;" horiz-adv-x="562" 
d="M340 350l141 -220h82v-260h-101q-30 0 -30 31v99h-13q-21 0 -34 20l-158 256h-42v-245q0 -31 -31 -31h-110v655h110q31 0 31 -31v-233h40l151 244q13 20 37 20h124z" />
    <glyph glyph-name="uni049B" unicode="&#x49b;" horiz-adv-x="488" 
d="M309 272l105 -157h78v-245h-90q-28 0 -28 29v101h-12q-23 0 -34 18l-126 192h-29v-181q0 -29 -29 -29h-100v511h100q29 0 29 -29v-171h28l117 182q12 18 35 18h114z" />
    <glyph glyph-name="uni049C" unicode="&#x49c;" horiz-adv-x="601" 
d="M403 342l206 -342h-141q-25 0 -36 21l-144 246h-14v-124q0 -15 -6.5 -20.5t-20.5 -5.5h-16q-15 0 -21 5.5t-6 20.5v124h-19v-236q0 -31 -31 -31h-110v655h110q31 0 31 -31v-227h19v105q0 15 6 20.5t21 5.5h16q15 0 21 -5.5t6 -20.5v-105h9l138 237q13 21 37 21h130z" />
    <glyph glyph-name="uni049D" unicode="&#x49d;" horiz-adv-x="524" 
d="M354 274l178 -274h-129q-22 0 -34 19l-118 190h-13v-124q0 -15 -14 -15h-15q-14 0 -14 15v124h-22v-180q0 -29 -29 -29h-100v511h100q29 0 29 -29v-171h22v94q0 16 14 16h15q14 0 14 -16v-94h10l114 181q12 19 34 19h114z" />
    <glyph glyph-name="uni04A0" unicode="&#x4a0;" horiz-adv-x="704" 
d="M489 350l224 -350h-143q-23 0 -36 20l-158 256h-42v-245q0 -31 -30 -31h-111v524h-149q-31 0 -31 30v101h291q30 0 30 -31v-233h40l151 244q13 20 37 20h124z" />
    <glyph glyph-name="uni04A1" unicode="&#x4a1;" horiz-adv-x="602" 
d="M428 272l182 -272h-129q-22 0 -34 18l-125 192h-30v-181q0 -29 -29 -29h-100v392h-121q-29 0 -29 29v90h250q29 0 29 -29v-171h28l118 182q11 18 34 18h115z" />
    <glyph glyph-name="uni04A2" unicode="&#x4a2;" horiz-adv-x="563" 
d="M499 130h61v-260h-100q-31 0 -31 31v99h-41q-30 0 -30 31v241h-173v-241q0 -31 -31 -31h-110v655h110q31 0 31 -31v-223h173v223q0 31 30 31h111v-525z" />
    <glyph glyph-name="uni04A3" unicode="&#x4a3;" horiz-adv-x="484" 
d="M427 115h51v-245h-90q-28 0 -28 29v101h-34q-29 0 -29 29v175h-124v-175q0 -29 -29 -29h-100v511h100q29 0 29 -29v-163h124v163q0 29 29 29h101v-396z" />
    <glyph glyph-name="uni04AA" unicode="&#x4aa;" horiz-adv-x="453" 
d="M265 667q38 0 75 -4.5t85 -15.5l-1 -94q0 -28 -25 -28q-6 0 -9 1q-25 5 -51.5 9t-53.5 4q-31 0 -51.5 -5t-32.5 -16.5t-16.5 -31t-4.5 -48.5v-220q0 -29 5 -48t17.5 -30.5t33 -16.5t51.5 -5q24 0 50.5 4.5t52.5 9.5q3 1 9 1q24 0 24 -28l1 -97q-32 -8 -53 -22.5
t-21 -39.5v-6q0 -28 29 -28q4 0 9.5 0.5t10.5 1.5q2 0 3 0.5t3 0.5q19 0 19 -24v-77q-39 -11 -74 -11q-57 0 -86 24.5t-29 62.5v10q0 52 53 89q-5 -1 -10.5 -1h-11.5q-63 0 -106.5 13.5t-70.5 40t-38.5 66.5t-11.5 94v251q0 54 12 94.5t39 67t70 39.5t105 13z" />
    <glyph glyph-name="uni04AB" unicode="&#x4ab;" horiz-adv-x="395" 
d="M228 523q32 0 64 -4.5t74 -12.5l-1 -82q0 -26 -24 -26q-6 0 -9 1q-20 4 -42.5 7t-40.5 3q-48 0 -64.5 -16.5t-16.5 -59.5v-154q0 -22 4 -36.5t13 -23t25 -12t40 -3.5q19 0 40.5 3t41.5 7q3 1 9 1q23 0 23 -26l1 -85l-50 -9q-19 -10 -27 -24t-8 -25v-6q0 -28 29 -28
q4 0 9.5 0.5t10.5 1.5q2 0 3 0.5t3 0.5q19 0 19 -24v-77q-22 -5 -39 -8t-36 -3q-56 0 -84 24.5t-28 62.5v10q0 25 14 48t38 40q-98 4 -139 46t-41 128v187q0 91 43.5 132.5t145.5 41.5z" />
    <glyph glyph-name="uni04AE" unicode="&#x4ae;" horiz-adv-x="526" 
d="M334 227v-196q0 -31 -31 -31h-110v227l-189 428h131q27 0 36 -25l93 -271l94 271q9 25 36 25h128z" />
    <glyph glyph-name="uni04AF" unicode="&#x4af;" horiz-adv-x="451" 
d="M290 177v-148q0 -29 -28 -29h-101v177l-157 334h119q26 0 33 -24l70 -197l71 197q7 24 33 24h117z" />
    <glyph glyph-name="uni04B0" unicode="&#x4b0;" horiz-adv-x="526" 
d="M193 158h-64q-27 0 -27 31v99h65l-163 367h131q27 0 36 -25l93 -271l94 271q9 25 36 25h128l-164 -367h39q28 0 28 -31v-99h-91v-127q0 -31 -31 -31h-110v158z" />
    <glyph glyph-name="uni04B1" unicode="&#x4b1;" horiz-adv-x="451" 
d="M161 139h-45q-28 0 -28 28v68h48l-132 276h119q26 0 33 -24l70 -197l71 197q7 24 33 24h117l-132 -276h22q27 0 27 -29v-67h-74v-110q0 -29 -28 -29h-101v139z" />
    <glyph glyph-name="uni04B2" unicode="&#x4b2;" horiz-adv-x="561" 
d="M351 335l117 -205h98v-260h-100q-31 0 -31 31v99h-32q-28 0 -38 23l-97 198l-98 -198q-10 -23 -36 -23h-137l192 335l-182 320h140q23 0 35 -23l90 -183l90 183q10 23 35 23h136z" />
    <glyph glyph-name="uni04B3" unicode="&#x4b3;" horiz-adv-x="476" 
d="M297 261l87 -146h97v-245h-90q-29 0 -29 29v101h-33q-25 0 -33 21l-70 140l-70 -140q-11 -21 -34 -21h-125l157 261l-149 250h124q24 0 34 -22l63 -129l64 129q8 22 33 22h123z" />
    <glyph glyph-name="uni04B8" unicode="&#x4b8;" horiz-adv-x="521" 
d="M366 0q-31 0 -31 31v182q-11 -2 -21.5 -3t-21.5 -2v-95q0 -14 -6 -20t-21 -6h-16q-15 0 -21 6t-6 20v94q-190 15 -190 216v232h111q31 0 31 -31v-204q0 -34 11 -54.5t37 -27.5v134q0 15 6 21t21 6h16q15 0 21 -6t6 -21v-141q12 1 23 2t20 3v288q0 31 31 31h111v-655h-111
z" />
    <glyph glyph-name="uni04B9" unicode="&#x4b9;" horiz-adv-x="447" 
d="M404 0h-101q-28 0 -28 29v132q-9 -2 -18 -3t-17 -2v-73q0 -9 -3.5 -12t-11.5 -3h-15q-8 0 -11 3t-3 12v73q-81 4 -123 48t-42 130v177h100q29 0 29 -29v-153q0 -50 36 -60v147q0 16 14 16h15q15 0 15 -16v-150q10 0 18.5 1t16.5 3v212q0 29 28 29h101v-511z" />
    <glyph glyph-name="uni04BA" unicode="&#x4ba;" horiz-adv-x="523" 
d="M154 655q31 0 31 -31v-182q20 2 40.5 4t43.5 2q107 0 165.5 -54t58.5 -169v-225h-111q-31 0 -31 31v203q0 45 -22 67t-62 22q-27 0 -48 -2t-34 -4v-286q0 -31 -31 -31h-110v655h110z" />
    <glyph glyph-name="uni04BB" unicode="&#x4bb;" horiz-adv-x="452" 
d="M144 511q29 0 29 -29v-132q17 2 33.5 3.5t33.5 1.5q91 0 137.5 -45t46.5 -132v-178h-101q-29 0 -29 29v156q0 58 -60 58q-18 0 -35 -1.5t-26 -3.5v-209q0 -29 -29 -29h-100v511h100z" />
    <glyph glyph-name="uni04C0" unicode="&#x4c0;" horiz-adv-x="229" 
d="M154 655q31 0 31 -31v-624h-141v655h110z" />
    <glyph glyph-name="uni04CB" unicode="&#x4cb;" horiz-adv-x="541" 
d="M477 130h61v-260h-100q-31 0 -31 31v99h-41q-31 0 -31 31v182q-44 -6 -82 -6q-221 0 -221 216v232h111q31 0 31 -31v-204q0 -89 87 -89q21 0 39 1.5t35 3.5v288q0 31 31 31h111v-525z" />
    <glyph glyph-name="uni04CC" unicode="&#x4cc;" horiz-adv-x="459" 
d="M404 115h51v-245h-90q-28 0 -28 29v101h-34q-28 0 -28 29v132q-33 -6 -63 -6q-89 0 -135 44.5t-46 134.5v177h100q29 0 29 -29v-153q0 -63 60 -63q16 0 30.5 1t24.5 3v212q0 29 28 29h101v-396z" />
    <glyph glyph-name="uni04CF" unicode="&#x4cf;" horiz-adv-x="216" 
d="M144 511q29 0 29 -29v-482h-129v511h100z" />
    <glyph glyph-name="uni04D8" unicode="&#x4d8;" horiz-adv-x="529" 
d="M249 667q67 0 113 -11.5t74.5 -37t41 -66.5t12.5 -99v-240q0 -109 -55.5 -167t-169.5 -58q-115 0 -170.5 58.5t-55.5 166.5v150q0 34 33 34h277v62q0 24 -4.5 40t-16.5 26t-32 14t-50 4q-29 0 -63.5 -4.5t-66.5 -10.5q-2 0 -3.5 -0.5t-3.5 -0.5q-26 0 -26 29l-1 91
q53 11 91 15.5t76 4.5zM180 267v-61q0 -90 85 -90q42 0 63 23t21 67v61h-169z" />
    <glyph glyph-name="uni04D9" unicode="&#x4d9;" horiz-adv-x="458" 
d="M216 523q57 0 96 -9.5t62.5 -30.5t34 -54.5t10.5 -80.5v-180q0 -83 -45.5 -131.5t-143.5 -48.5q-100 0 -145.5 46.5t-45.5 132.5v120q0 30 29 30h222v35q0 33 -16 46.5t-62 13.5q-20 0 -49 -2.5t-55 -6.5q-32 -3 -32 27l-1 80q24 4 42.5 6.5t35 4t31.5 2t32 0.5zM168 215
v-53q0 -60 62 -60q29 0 44.5 15.5t15.5 44.5v53h-122z" />
    <glyph glyph-name="uni04E2" unicode="&#x4e2;" horiz-adv-x="543" 
d="M499 0h-111q-30 0 -30 31v357l-174 -365q-12 -23 -36 -23h-104v655h110q31 0 31 -31v-359l174 367q10 23 35 23h105v-655zM381 816q25 0 25 -25v-82h-245q-26 0 -26 25v82h246z" />
    <glyph glyph-name="uni04E3" unicode="&#x4e3;" horiz-adv-x="470" 
d="M427 0h-101q-29 0 -29 29v244l-126 -252q-10 -21 -33 -21h-94v511h100q29 0 29 -29v-248l127 256q10 21 34 21h93v-511zM327 673q26 0 26 -26v-77h-211q-25 0 -25 26v77h210z" />
    <glyph glyph-name="uni04E8" unicode="&#x4e8;" horiz-adv-x="538" 
d="M269 667q118 0 174 -58t56 -167v-229q0 -106 -55 -165.5t-175 -59.5q-121 0 -175.5 59.5t-54.5 165.5v229q0 109 55 167t175 58zM180 276v-70q0 -90 89 -90t89 90v70h-178zM269 539q-89 0 -89 -88v-60h178v59q0 89 -89 89z" />
    <glyph glyph-name="uni04E9" unicode="&#x4e9;" horiz-adv-x="464" 
d="M232 523q97 0 145.5 -46.5t48.5 -137.5v-167q0 -89 -47 -136.5t-147 -47.5t-146.5 47.5t-46.5 136.5v167q0 91 48 137.5t145 46.5zM168 210v-43q0 -31 16 -48t48 -17t48.5 16.5t16.5 45.5v46h-129zM232 409q-32 0 -48 -16t-16 -45v-37h129v33q0 65 -65 65z" />
    <glyph glyph-name="uni04EE" unicode="&#x4ee;" horiz-adv-x="514" 
d="M230 0h-108q-27 0 -27 21q0 8 4 16l88 197l-186 421h133q28 0 35 -25l89 -259l100 260q8 24 35 24h126zM369 816q25 0 25 -25v-82h-245q-26 0 -26 25v82h246z" />
    <glyph glyph-name="uni04EF" unicode="&#x4ef;" horiz-adv-x="437" 
d="M204 0h-98q-25 0 -25 20q0 6 3 14l71 148l-154 329h122q25 0 32 -24l64 -185l77 187q10 22 33 22h115zM313 673q26 0 26 -26v-77h-211q-25 0 -25 26v77h210z" />
    <glyph glyph-name="Wgrave" unicode="&#x1e80;" horiz-adv-x="822" 
d="M676 0h-140q-28 0 -32 28l-92 479l-92 -479q-4 -28 -32 -28h-142l-136 655h119q29 0 33 -28l74 -485l92 485q4 28 32 28h101q29 0 33 -28l93 -483l73 483q4 28 33 28h120zM368 854q20 0 30 -18l70 -129h-89q-19 0 -31 16l-100 131h120z" />
    <glyph glyph-name="wgrave" unicode="&#x1e81;" horiz-adv-x="690" 
d="M570 0h-124q-27 0 -31 26l-70 356l-69 -356q-4 -26 -31 -26h-125l-110 511h108q27 0 30 -26l52 -361l70 361q4 26 32 26h85q28 0 32 -26l71 -359l51 359q5 26 30 26h109zM309 691q19 0 30 -18l65 -119h-80q-18 0 -31 15l-94 122h110z" />
    <glyph glyph-name="Wacute" unicode="&#x1e82;" horiz-adv-x="822" 
d="M676 0h-140q-28 0 -32 28l-92 479l-92 -479q-4 -28 -32 -28h-142l-136 655h119q29 0 33 -28l74 -485l92 485q4 28 32 28h101q29 0 33 -28l93 -483l73 483q4 28 33 28h120zM457 723q-12 -16 -31 -16h-89l70 129q11 18 30 18h120z" />
    <glyph glyph-name="wacute" unicode="&#x1e83;" horiz-adv-x="690" 
d="M570 0h-124q-27 0 -31 26l-70 356l-69 -356q-4 -26 -31 -26h-125l-110 511h108q27 0 30 -26l52 -361l70 361q4 26 32 26h85q28 0 32 -26l71 -359l51 359q5 26 30 26h109zM393 569q-12 -15 -31 -15h-83l66 119q10 18 30 18h114z" />
    <glyph glyph-name="Wdieresis" unicode="&#x1e84;" horiz-adv-x="822" 
d="M676 0h-140q-28 0 -32 28l-92 479l-92 -479q-4 -28 -32 -28h-142l-136 655h119q29 0 33 -28l74 -485l92 485q4 28 32 28h101q29 0 33 -28l93 -483l73 483q4 28 33 28h120zM514 861q36 0 55.5 -16.5t19.5 -48.5v-24q0 -30 -19.5 -47.5t-55.5 -17.5q-35 0 -55 17.5
t-20 47.5v24q0 32 20 48.5t55 16.5zM308 861q75 0 75 -65v-24q0 -30 -19 -47.5t-56 -17.5q-34 0 -54 17.5t-20 47.5v24q0 32 20 48.5t54 16.5z" />
    <glyph glyph-name="wdieresis" unicode="&#x1e85;" horiz-adv-x="690" 
d="M570 0h-124q-27 0 -31 26l-70 356l-69 -356q-4 -26 -31 -26h-125l-110 511h108q27 0 30 -26l52 -361l70 361q4 26 32 26h85q28 0 32 -26l71 -359l51 359q5 26 30 26h109zM446 724q75 0 75 -65v-24q0 -31 -19 -48t-56 -17q-34 0 -54 17t-20 48v24q0 32 20 48.5t54 16.5z
M241 724q36 0 55.5 -16.5t19.5 -48.5v-24q0 -31 -19.5 -48t-55.5 -17q-35 0 -54.5 17t-19.5 48v24q0 32 19.5 48.5t54.5 16.5z" />
    <glyph glyph-name="Ygrave" unicode="&#x1ef2;" horiz-adv-x="526" 
d="M334 227v-196q0 -31 -31 -31h-110v227l-189 428h131q27 0 36 -25l93 -271l94 271q9 25 36 25h128zM219 854q20 0 30 -18l70 -129h-89q-19 0 -31 16l-100 131h120z" />
    <glyph glyph-name="ygrave" unicode="&#x1ef3;" horiz-adv-x="451" 
d="M290 177v-148q0 -29 -28 -29h-101v177l-157 334h119q26 0 33 -24l70 -197l71 197q7 24 33 24h117zM189 691q19 0 30 -18l65 -119h-80q-18 0 -31 15l-94 122h110z" />
    <glyph glyph-name="uni2007" unicode="&#x2007;" horiz-adv-x="459" 
 />
    <glyph glyph-name="uni2008" unicode="&#x2008;" horiz-adv-x="215" 
 />
    <glyph glyph-name="uni200B" unicode="&#x200b;" horiz-adv-x="0" 
 />
    <glyph glyph-name="endash" unicode="&#x2013;" horiz-adv-x="568" 
d="M504 353q31 0 31 -31v-85h-471q-30 0 -30 31v85h470z" />
    <glyph glyph-name="emdash" unicode="&#x2014;" horiz-adv-x="668" 
d="M604 353q31 0 31 -31v-85h-571q-30 0 -30 31v85h570z" />
    <glyph glyph-name="uni2015" unicode="&#x2015;" horiz-adv-x="568" 
d="M504 353q31 0 31 -31v-85h-471q-30 0 -30 31v85h470z" />
    <glyph glyph-name="quoteleft" unicode="&#x2018;" horiz-adv-x="211" 
d="M141 695q24 0 24 -20q0 -5 -1 -8l-16 -77q16 -6 25.5 -21t9.5 -38v-25q0 -32 -19 -50t-58 -18q-40 0 -59.5 18t-19.5 50v27q0 15 2 28.5t8 30.5l35 103h69z" />
    <glyph glyph-name="quoteright" unicode="&#x2019;" horiz-adv-x="211" 
d="M105 695q40 0 59 -18t19 -50v-27q0 -15 -2 -29t-7 -31l-35 -102h-69q-24 0 -24 20q0 5 1 8l16 77q-17 6 -26.5 21t-9.5 38v25q0 32 19.5 50t58.5 18z" />
    <glyph glyph-name="quotesinglbase" unicode="&#x201a;" horiz-adv-x="211" 
d="M105 149q40 0 59 -18t19 -50v-26q0 -15 -2 -29t-7 -31l-35 -103h-69q-24 0 -24 20q0 5 1 8l16 77q-17 6 -26.5 21.5t-9.5 38.5v24q0 32 19.5 50t58.5 18z" />
    <glyph glyph-name="quotedblleft" unicode="&#x201c;" horiz-adv-x="401" 
d="M331 695q24 0 24 -20q0 -5 -1 -8l-16 -77q16 -6 26 -21.5t10 -38.5v-24q0 -32 -19.5 -50t-58.5 -18q-40 0 -59.5 18t-19.5 50v26q0 15 2 29t8 31l35 103h69zM141 695q24 0 24 -20q0 -5 -1 -8l-16 -77q16 -6 25.5 -21.5t9.5 -38.5v-24q0 -32 -19 -50t-58 -18
q-40 0 -59.5 18t-19.5 50v26q0 15 2 29t8 31l35 103h69z" />
    <glyph glyph-name="quotedblright" unicode="&#x201d;" horiz-adv-x="401" 
d="M295 695q40 0 59.5 -18t19.5 -50v-27q0 -15 -2 -29t-8 -31l-35 -102h-69q-24 0 -24 20q0 5 1 8l16 77q-17 6 -26.5 21t-9.5 38v25q0 32 19.5 50t58.5 18zM105 695q40 0 59 -18t19 -50v-27q0 -15 -2 -29t-7 -31l-35 -102h-69q-24 0 -24 20q0 5 1 8l16 77q-17 6 -26.5 21
t-9.5 38v25q0 32 19.5 50t58.5 18z" />
    <glyph glyph-name="quotedblbase" unicode="&#x201e;" horiz-adv-x="401" 
d="M295 149q40 0 59.5 -18t19.5 -50v-26q0 -15 -2 -29t-8 -31l-35 -103h-69q-24 0 -24 20q0 5 1 8l16 77q-17 6 -26.5 21.5t-9.5 38.5v24q0 32 19.5 50t58.5 18zM105 149q40 0 59 -18t19 -50v-26q0 -15 -2 -29t-7 -31l-35 -103h-69q-24 0 -24 20q0 5 1 8l16 77
q-17 6 -26.5 21.5t-9.5 38.5v24q0 32 19.5 50t58.5 18z" />
    <glyph glyph-name="dagger" unicode="&#x2020;" horiz-adv-x="441" 
d="M258 655q31 0 31 -31v-136h103q31 0 31 -31v-98h-134v-359h-106q-31 0 -31 31v328h-103q-31 0 -31 31v98h134v167h106z" />
    <glyph glyph-name="daggerdbl" unicode="&#x2021;" horiz-adv-x="447" 
d="M261 655q31 0 31 -31v-136h103q31 0 31 -31v-98h-134v-85h103q31 0 31 -30v-98h-134v-146h-106q-30 0 -30 31v115h-104q-30 0 -30 30v98h134v85h-104q-30 0 -30 31v98h134v167h105z" />
    <glyph glyph-name="bullet" unicode="&#x2022;" horiz-adv-x="227" 
d="M113 352q42 0 64 -19.5t22 -54.5v-28q0 -35 -22 -54.5t-64 -19.5q-41 0 -63.5 19.5t-22.5 54.5v28q0 35 22.5 54.5t63.5 19.5z" />
    <glyph glyph-name="ellipsis" unicode="&#x2026;" horiz-adv-x="622" 
d="M311 152q80 0 80 -70v-25q0 -33 -20.5 -51t-59.5 -18t-59.5 18t-20.5 51v25q0 70 80 70zM107 152q80 0 80 -70v-25q0 -33 -20.5 -51t-59.5 -18t-59.5 18t-20.5 51v25q0 70 80 70zM515 152q80 0 80 -70v-25q0 -33 -20.5 -51t-59.5 -18t-59.5 18t-20.5 51v25q0 70 80 70z
" />
    <glyph glyph-name="perthousand" unicode="&#x2030;" horiz-adv-x="1261" 
d="M646 613q27 0 27 -20q0 -6 -5 -16l-316 -577h-109q-26 0 -26 19q0 9 5 17l314 577h110zM198 625q84 0 127 -43t43 -127v-27q0 -82 -42.5 -126t-127.5 -44q-82 0 -126 42.5t-44 127.5v27q0 84 43.5 127t126.5 43zM198 508q-18 0 -28 -11.5t-10 -37.5v-36q0 -26 9.5 -37
t28.5 -11q38 0 38 48v36q0 27 -9.5 38t-28.5 11zM690 355q85 0 127.5 -43t42.5 -127v-27q0 -82 -42 -126t-128 -44q-82 0 -126 42.5t-44 127.5v27q0 84 43.5 127t126.5 43zM690 238q-18 0 -28 -11t-10 -37v-36q0 -26 10 -37.5t28 -11.5q38 0 38 49v36q0 26 -9.5 37t-28.5 11
zM1069 355q84 0 126.5 -43t42.5 -127v-27q0 -82 -42 -126t-127 -44q-82 0 -126.5 42.5t-44.5 127.5v27q0 84 43.5 127t127.5 43zM1069 238q-18 0 -28 -11t-10 -37v-36q0 -26 9.5 -37.5t28.5 -11.5q38 0 38 49v36q0 26 -9.5 37t-28.5 11z" />
    <glyph glyph-name="guilsinglleft" unicode="&#x2039;" horiz-adv-x="319" 
d="M251 445q22 0 22 -16q0 -7 -4 -14l-82 -149l82 -150q4 -7 4 -14q0 -16 -22 -16h-112l-105 180l105 179h112z" />
    <glyph glyph-name="guilsinglright" unicode="&#x203a;" horiz-adv-x="320" 
d="M286 266l-106 -180h-112q-22 0 -22 16q0 6 5 14l82 150l-82 149q-4 7 -4 14q0 16 22 16h111z" />
    <glyph glyph-name="fraction" unicode="&#x2044;" horiz-adv-x="380" 
d="M10 0q-27 0 -27 20q0 8 4 16l287 565h96q27 0 27 -20q0 -8 -4 -16l-287 -565h-96z" />
    <glyph glyph-name="uni2070" unicode="&#x2070;" horiz-adv-x="400" 
d="M200 760q74 0 113 -36.5t39 -109.5v-144q0 -147 -152 -147q-76 0 -114.5 37.5t-38.5 109.5v144q0 73 39 109.5t114 36.5zM200 651q-34 0 -34 -38v-143q0 -39 34 -39t34 39v143q0 38 -34 38z" />
    <glyph glyph-name="uni2074" unicode="&#x2074;" horiz-adv-x="400" 
d="M196 752q23 0 23 -18q0 -3 -2 -11l-70 -217h74v23v17t2 17l2 31q3 23 27 23h82v-111h40v-77q0 -26 -26 -26h-14v-72h-88q-25 0 -25 26v46h-146q-21 0 -30 19l-19 40l97 290h73z" />
    <glyph glyph-name="uni2075" unicode="&#x2075;" horiz-adv-x="400" 
d="M313 676q0 -25 -26 -25h-126v-81q16 17 39.5 26t49.5 9q44 0 69.5 -29t25.5 -94v-14q0 -73 -36 -109t-119 -36q-70 0 -129 14v72q0 24 22 24h5q24 -4 49.5 -6t37.5 -2q29 0 40.5 10.5t11.5 30.5v12q0 34 -31 34q-13 0 -22.5 -3t-19.5 -11q-8 -7 -15 -10t-17 -3h-68v268
h259v-77z" />
    <glyph glyph-name="uni2076" unicode="&#x2076;" horiz-adv-x="400" 
d="M321 684q0 -25 -26 -27q-39 -2 -64 -8t-40 -16t-20.5 -23.5t-5.5 -31.5v-15q17 17 38.5 26.5t46.5 9.5q46 0 73 -29t27 -94v-18q0 -64 -37 -99.5t-115 -35.5q-73 0 -110.5 36t-37.5 104v91q0 104 66 150t205 47v-67zM209 506q-11 0 -21.5 -6t-21.5 -16v-31q0 -33 36 -33
q15 0 23 8t8 22v29q0 27 -24 27z" />
    <glyph glyph-name="uni2077" unicode="&#x2077;" horiz-adv-x="400" 
d="M348 677l-153 -346h-93q-23 0 -23 17q0 5 3 13l130 289h-134q-26 0 -26 26v76h296v-75z" />
    <glyph glyph-name="uni2078" unicode="&#x2078;" horiz-adv-x="400" 
d="M201 760q69 0 104.5 -28.5t35.5 -79.5v-9q0 -28 -14 -50t-38 -31q32 -11 50 -36.5t18 -56.5v-16q0 -63 -39 -96.5t-117 -33.5t-118 33.5t-40 96.5v16q0 29 18 55.5t50 37.5q-25 9 -38.5 31.5t-13.5 49.5v9q0 51 35.5 79.5t106.5 28.5zM200 510q-18 0 -27.5 -9t-9.5 -23
v-30q0 -13 10 -21.5t27 -8.5q18 0 27.5 9t9.5 21v30q0 14 -9.5 23t-27.5 9zM200 674q-30 0 -30 -24v-26q0 -13 6.5 -18.5t23.5 -5.5t23 5.5t6 18.5v26q0 24 -29 24z" />
    <glyph glyph-name="uni2079" unicode="&#x2079;" horiz-adv-x="400" 
d="M201 760q72 0 110.5 -36.5t38.5 -105.5v-134q0 -161 -163 -161q-32 0 -59.5 2.5t-52.5 6.5v75q0 25 22 25q2 0 3 -0.5t3 -0.5q16 -3 34.5 -4.5t34.5 -1.5q35 0 48.5 12.5t13.5 38.5v34q-17 -17 -38 -26.5t-46 -9.5q-46 0 -73 30.5t-27 95.5v22q0 67 38.5 102.5
t112.5 35.5zM198 659q-32 0 -32 -32v-28q0 -28 24 -28q13 0 22.5 5.5t20.5 16.5v34q0 32 -35 32z" />
    <glyph glyph-name="uni207A" unicode="&#x207a;" horiz-adv-x="400" 
d="M226 676q30 0 30 -30v-62h59q30 0 30 -31v-72h-89v-85h-82q-30 0 -30 31v54h-60q-30 0 -30 31v72h90v92h82z" />
    <glyph glyph-name="uni207B" unicode="&#x207b;" horiz-adv-x="400" 
d="M314 583q31 0 31 -30v-72h-260q-31 0 -31 31v71h260z" />
    <glyph glyph-name="uni207C" unicode="&#x207c;" horiz-adv-x="400" 
d="M315 660q30 0 30 -31v-72h-260q-30 0 -30 30v73h260zM315 524q30 0 30 -30v-72h-260q-30 0 -30 30v72h260z" />
    <glyph glyph-name="uni207D" unicode="&#x207d;" horiz-adv-x="400" 
d="M292 798q0 -14 -7 -21t-21 -12q-17 -5 -24 -17t-7 -35v-330q0 -22 7 -34.5t24 -17.5q14 -4 21 -11t7 -21v-76q-95 -1 -140 40t-45 135v300q0 100 45.5 139t139.5 37v-76z" />
    <glyph glyph-name="uni207E" unicode="&#x207e;" horiz-adv-x="400" 
d="M107 299q0 14 7.5 21t21.5 11q17 5 23.5 17.5t6.5 34.5v330q0 23 -6.5 35t-23.5 17q-14 5 -21.5 12t-7.5 21v76q97 2 141 -38t44 -138v-300q0 -95 -44 -134.5t-141 -40.5v76z" />
    <glyph glyph-name="uni2080" unicode="&#x2080;" horiz-adv-x="400" 
d="M200 280q74 0 113 -36.5t39 -109.5v-144q0 -147 -152 -147q-76 0 -114.5 37.5t-38.5 109.5v144q0 73 39 109.5t114 36.5zM200 171q-34 0 -34 -38v-143q0 -39 34 -39t34 39v143q0 38 -34 38z" />
    <glyph glyph-name="uni2081" unicode="&#x2081;" horiz-adv-x="400" 
d="M273 -41h47q26 0 26 -25v-83h-274v83q0 25 26 25h57v192h-1l-53 -22q-4 -2 -12 -2q-16 0 -20 18l-18 75l139 52h83v-313z" />
    <glyph glyph-name="uni2082" unicode="&#x2082;" horiz-adv-x="400" 
d="M185 280q78 0 115 -33t37 -96v-14q0 -33 -14 -62.5t-46 -60.5l-56 -55h94q26 0 26 -25v-83h-281v65q0 21 12 34l122 135q21 25 21 47v9q0 16 -11 24.5t-37 8.5q-11 0 -29 -2.5t-38 -7.5q-3 -1 -8 -1q-21 0 -21 24v76q30 8 58.5 12.5t55.5 4.5z" />
    <glyph glyph-name="uni2083" unicode="&#x2083;" horiz-adv-x="400" 
d="M189 280q69 0 106.5 -30.5t37.5 -78.5v-12q0 -28 -17.5 -53t-51.5 -36q35 -9 56 -36t21 -60v-10q0 -52 -39 -86.5t-111 -34.5q-27 0 -58 2.5t-59 7.5v76q0 27 27 24q22 -3 42 -4.5t33 -1.5q23 0 32 7.5t9 24.5v7q0 34 -40 34h-53q-28 0 -28 26v41q0 26 28 26h50
q35 0 35 32v7q0 26 -35 26q-13 0 -32.5 -2t-40.5 -5q-2 0 -3 -0.5t-3 -0.5q-21 0 -21 25v75q32 5 60 7.5t55 2.5z" />
    <glyph glyph-name="uni2084" unicode="&#x2084;" horiz-adv-x="400" 
d="M196 272q23 0 23 -18q0 -3 -2 -11l-70 -217h74v23v17t2 17l2 31q3 23 27 23h82v-111h40v-77q0 -26 -26 -26h-14v-72h-88q-25 0 -25 26v46h-146q-21 0 -30 19l-19 40l97 290h73z" />
    <glyph glyph-name="uni2085" unicode="&#x2085;" horiz-adv-x="400" 
d="M313 196q0 -25 -26 -25h-126v-81q16 17 39.5 26t49.5 9q44 0 69.5 -29t25.5 -94v-14q0 -73 -36 -109t-119 -36q-70 0 -129 14v72q0 24 22 24h5q24 -4 49.5 -6t37.5 -2q29 0 40.5 10.5t11.5 30.5v12q0 34 -31 34q-13 0 -22.5 -3t-19.5 -11q-8 -7 -15 -10t-17 -3h-68v268
h259v-77z" />
    <glyph glyph-name="uni2086" unicode="&#x2086;" horiz-adv-x="400" 
d="M321 204q0 -25 -26 -27q-39 -2 -64 -8t-40 -16t-20.5 -23.5t-5.5 -31.5v-15q17 17 38.5 26.5t46.5 9.5q46 0 73 -29t27 -94v-18q0 -64 -37 -99.5t-115 -35.5q-73 0 -110.5 36t-37.5 104v91q0 104 66 150t205 47v-67zM209 26q-11 0 -21.5 -6t-21.5 -16v-31q0 -33 36 -33
q15 0 23 8t8 22v29q0 27 -24 27z" />
    <glyph glyph-name="uni2087" unicode="&#x2087;" horiz-adv-x="400" 
d="M348 197l-153 -346h-93q-23 0 -23 17q0 5 3 13l130 289h-134q-26 0 -26 26v76h296v-75z" />
    <glyph glyph-name="uni2088" unicode="&#x2088;" horiz-adv-x="400" 
d="M201 280q69 0 104.5 -28.5t35.5 -79.5v-9q0 -28 -14 -50t-38 -31q32 -11 50 -36.5t18 -56.5v-16q0 -63 -39 -96.5t-117 -33.5t-118 33.5t-40 96.5v16q0 29 18 55.5t50 37.5q-25 9 -38.5 31.5t-13.5 49.5v9q0 51 35.5 79.5t106.5 28.5zM200 30q-18 0 -27.5 -9t-9.5 -23
v-30q0 -13 10 -21.5t27 -8.5q18 0 27.5 9t9.5 21v30q0 14 -9.5 23t-27.5 9zM200 194q-30 0 -30 -24v-26q0 -13 6.5 -18.5t23.5 -5.5t23 5.5t6 18.5v26q0 24 -29 24z" />
    <glyph glyph-name="uni2089" unicode="&#x2089;" horiz-adv-x="400" 
d="M201 280q72 0 110.5 -36.5t38.5 -105.5v-134q0 -161 -163 -161q-32 0 -59.5 2.5t-52.5 6.5v75q0 25 22 25q2 0 3 -0.5t3 -0.5q16 -3 34.5 -4.5t34.5 -1.5q35 0 48.5 12.5t13.5 38.5v34q-17 -17 -38 -26.5t-46 -9.5q-46 0 -73 30.5t-27 95.5v22q0 67 38.5 102.5
t112.5 35.5zM198 179q-32 0 -32 -32v-28q0 -28 24 -28q13 0 22.5 5.5t20.5 16.5v34q0 32 -35 32z" />
    <glyph glyph-name="uni208A" unicode="&#x208a;" horiz-adv-x="400" 
d="M226 196q30 0 30 -30v-62h59q30 0 30 -31v-72h-89v-85h-82q-30 0 -30 31v54h-60q-30 0 -30 31v72h90v92h82z" />
    <glyph glyph-name="uni208B" unicode="&#x208b;" horiz-adv-x="400" 
d="M314 103q31 0 31 -30v-72h-260q-31 0 -31 31v71h260z" />
    <glyph glyph-name="uni208C" unicode="&#x208c;" horiz-adv-x="400" 
d="M315 180q30 0 30 -31v-72h-260q-30 0 -30 30v73h260zM315 44q30 0 30 -30v-72h-260q-30 0 -30 30v72h260z" />
    <glyph glyph-name="uni208D" unicode="&#x208d;" horiz-adv-x="400" 
d="M292 318q0 -14 -7 -21t-21 -12q-17 -5 -24 -17t-7 -35v-330q0 -22 7 -34.5t24 -17.5q14 -4 21 -11t7 -21v-76q-95 -1 -140 40t-45 135v300q0 100 45.5 139t139.5 37v-76z" />
    <glyph glyph-name="uni208E" unicode="&#x208e;" horiz-adv-x="400" 
d="M107 -181q0 14 7.5 21t21.5 11q17 5 23.5 17.5t6.5 34.5v330q0 23 -6.5 35t-23.5 17q-14 5 -21.5 12t-7.5 21v76q97 2 141 -38t44 -138v-300q0 -95 -44 -134.5t-141 -40.5v76z" />
    <glyph glyph-name="Euro" unicode="&#x20ac;" horiz-adv-x="460" 
d="M289 613q32 0 72.5 -4t82.5 -13l-1 -84q0 -28 -24 -28q-7 0 -10 1q-52 11 -100 11q-50 0 -69.5 -17t-19.5 -61v-9h150q27 0 27 -23q0 -7 -1 -10l-13 -59h-163v-38h118q28 0 28 -23q0 -7 -1 -10l-13 -59h-132v-4q0 -39 20.5 -56.5t62.5 -17.5q25 0 52 3.5t54 9.5q3 1 10 1
q24 0 24 -28l2 -88q-43 -11 -80.5 -15t-75.5 -4q-106 0 -156 50.5t-50 146.5v2h-46q-28 0 -28 25q0 5 1 8l13 59h60v38h-37q-28 0 -28 25q0 5 1 8l13 59h51v5q0 199 206 199z" />
    <glyph glyph-name="uni2116" unicode="&#x2116;" horiz-adv-x="1013" 
d="M44 655h154q26 0 35 -25l132 -382v376q0 31 31 31h105v-655h-147q-28 0 -38 27l-137 380v-376q0 -31 -30 -31h-105v655zM772 667q94 0 140 -49t46 -141v-78q0 -93 -46 -141.5t-140 -48.5t-140.5 48.5t-46.5 141.5v78q0 92 46 141t141 49zM923 122q31 0 31 -30v-92h-334
q-30 0 -30 31v91h333zM772 547q-50 0 -50 -61v-95q0 -61 50 -61t50 61v96q0 60 -50 60z" />
    <glyph glyph-name="trademark" unicode="&#x2122;" horiz-adv-x="727" 
d="M699 350h-84q-30 0 -30 31v107l-26 -84q-8 -25 -24 -25h-28q-17 0 -24 25l-26 84l-1 -107q0 -31 -31 -31h-84l3 333h96q26 0 36 -23l47 -115l46 115q11 23 35 23h94zM337 614q0 -29 -31 -29h-58v-204q0 -31 -31 -31h-87v235h-71q-31 0 -31 29v69h309v-69z" />
    <glyph glyph-name="Omega" unicode="&#x2126;" horiz-adv-x="538" 
d="M269 667q117 0 174 -58t57 -164v-171q0 -43 -16 -82t-47 -63h41q31 0 31 -31v-98h-210v113q0 9 7 9h1q23 1 37.5 23.5t14.5 64.5v243q0 43 -23 65t-67 22q-43 0 -66 -22t-23 -65v-243q0 -42 14.5 -65t37.5 -23h1q7 0 7 -9v-113h-211v98q0 31 31 31h41q-31 24 -46.5 63
t-15.5 82v171q0 106 56.5 164t173.5 58z" />
    <glyph glyph-name="estimated" unicode="&#x212e;" horiz-adv-x="955" 
d="M477 703q79 0 151 -26.5t127.5 -75t89 -116.5t35.5 -150q0 -8 -8 -8h-649v-218q16 -24 44.5 -42t63.5 -30t73.5 -18.5t73.5 -6.5q34 0 70.5 6t70.5 18t64 29.5t51 40.5q4 4 10 4h52q-64 -71 -141.5 -104t-177.5 -33q-86 0 -159.5 27t-127.5 75t-84.5 114.5t-30.5 145.5
t31.5 146t86.5 116.5t128 77.5t156 28zM478 664q-88 0 -152.5 -27t-102.5 -74v-196h509v195q-42 46 -104 74t-150 28z" />
    <glyph glyph-name="onethird" unicode="&#x2153;" horiz-adv-x="1000" 
d="M318 0q-27 0 -27 20q0 8 4 16l287 565h96q27 0 27 -20q0 -8 -4 -16l-287 -565h-96zM807 429q69 0 106.5 -30.5t37.5 -78.5v-12q0 -28 -17.5 -53t-51.5 -36q35 -9 56 -36t21 -60v-10q0 -52 -39 -86.5t-111 -34.5q-27 0 -58 2.5t-59 7.5v76q0 27 27 24q22 -3 42 -4.5
t33 -1.5q23 0 32 7.5t9 24.5v7q0 34 -40 34h-53q-28 0 -28 26v41q0 26 28 26h50q35 0 35 32v7q0 26 -35 26q-13 0 -32.5 -2t-40.5 -5q-2 0 -3 -0.5t-3 -0.5q-21 0 -21 25v75q32 5 60 7.5t55 2.5zM264 289h47q26 0 26 -25v-83h-274v83q0 25 26 25h57v192h-1l-53 -22
q-4 -2 -12 -2q-16 0 -20 18l-18 75l139 52h83v-313z" />
    <glyph glyph-name="twothirds" unicode="&#x2154;" horiz-adv-x="1000" 
d="M313 0q-27 0 -27 20q0 8 4 16l287 565h96q27 0 27 -20q0 -8 -4 -16l-287 -565h-96zM800 429q69 0 106.5 -30.5t37.5 -78.5v-12q0 -28 -17.5 -53t-51.5 -36q35 -9 56 -36t21 -60v-10q0 -52 -39 -86.5t-111 -34.5q-27 0 -58 2.5t-59 7.5v76q0 27 27 24q22 -3 42 -4.5
t33 -1.5q23 0 32 7.5t9 24.5v7q0 34 -40 34h-53q-28 0 -28 26v41q0 26 28 26h50q35 0 35 32v7q0 26 -35 26q-13 0 -32.5 -2t-40.5 -5q-2 0 -3 -0.5t-3 -0.5q-21 0 -21 25v75q32 5 60 7.5t55 2.5zM173 610q78 0 115 -33t37 -96v-14q0 -33 -14 -62.5t-46 -60.5l-56 -55h94
q26 0 26 -25v-83h-281v65q0 21 12 34l122 135q21 25 21 47v9q0 16 -11 24.5t-37 8.5q-11 0 -29 -2.5t-38 -7.5q-3 -1 -8 -1q-21 0 -21 24v76q30 8 58.5 12.5t55.5 4.5z" />
    <glyph glyph-name="arrowleft" unicode="&#x2190;" horiz-adv-x="900" 
d="M420 585q11 -11 11 -22t-11 -22l-166 -158h241q31 0 31 -30v-62q0 -30 -31 -30h-241l166 -158q11 -11 11 -22t-11 -22l-64 -64l-317 327l317 327zM678 383q31 0 31 -30v-62q0 -30 -31 -30h-74q-30 0 -30 30v62q0 30 30 30h74zM861 261h-75q-30 0 -30 30v62q0 30 30 30h75
v-122z" />
    <glyph glyph-name="arrowup" unicode="&#x2191;" horiz-adv-x="900" 
d="M776 379l-63 -65q-10 -10 -22 -10q-11 0 -21 11l-156 164v-240q0 -31 -31 -31h-66q-31 0 -31 31v240l-156 -164q-11 -12 -22 -12q-10 0 -21 11l-63 65l326 316zM483 -22q31 0 31 -30v-75h-128v75q0 30 31 30h66zM483 160q31 0 31 -30v-74q0 -31 -31 -31h-66q-31 0 -31 31
v74q0 30 31 30h66z" />
    <glyph glyph-name="arrowright" unicode="&#x2192;" horiz-adv-x="900" 
d="M861 322l-317 -327l-64 64q-11 11 -11 22t11 22l166 158h-241q-31 0 -31 30v62q0 30 31 30h241l-166 158q-11 11 -11 22t11 22l64 64zM114 383q30 0 30 -30v-62q0 -30 -30 -30h-75v122h75zM296 383q30 0 30 -30v-62q0 -30 -30 -30h-74q-31 0 -31 30v62q0 30 31 30h74z
" />
    <glyph glyph-name="arrowdown" unicode="&#x2193;" horiz-adv-x="900" 
d="M483 348q31 0 31 -30v-241l156 164q10 11 21 11q12 0 22 -10l63 -65l-326 -315l-326 315l63 65q10 10 22 10q11 0 21 -11l156 -164v241q0 30 31 30h66zM483 531q31 0 31 -31v-74q0 -30 -31 -30h-66q-31 0 -31 30v74q0 31 31 31h66zM514 609q0 -31 -31 -31h-66
q-31 0 -31 31v74h128v-74z" />
    <glyph glyph-name="arrowboth" unicode="&#x2194;" horiz-adv-x="1292" 
d="M1252 322l-316 -327l-65 64q-10 10 -10 22t11 22l166 158h-151q-30 0 -30 30v62q0 30 30 30h151l-166 158q-11 10 -11 22t10 22l65 64zM420 585q11 -11 11 -22t-11 -22l-166 -158h151q30 0 30 -30v-62q0 -30 -30 -30h-151l166 -158q11 -11 11 -22t-11 -22l-64 -64
l-317 327l317 327zM537 383q31 0 31 -30v-62q0 -30 -31 -30h-24q-30 0 -30 30v62q0 30 30 30h24zM652 383q25 0 25 -30v-62q0 -30 -25 -30h-11q-26 0 -26 30v62q0 30 26 30h11zM778 383q31 0 31 -30v-62q0 -30 -31 -30h-24q-30 0 -30 30v62q0 30 30 30h24z" />
    <glyph glyph-name="arrowupdn" unicode="&#x2195;" horiz-adv-x="900" 
d="M713 476q-11 -11 -21 -11q-11 0 -22 11l-156 165v-150q0 -31 -31 -31h-66q-31 0 -31 31v150l-156 -165q-11 -11 -22 -11q-10 0 -21 11l-63 64l326 316l326 -316zM483 39q31 0 31 -31v-150l156 165q10 10 21 10q12 0 22 -10l63 -64l-326 -316l-326 316l63 64q11 11 21 11
q11 0 22 -11l156 -165v150q0 31 31 31h66zM481 171q31 0 31 -30v-24q0 -31 -31 -31h-62q-31 0 -31 31v24q0 30 31 30h62zM482 280q30 0 30 -25v-11q0 -14 -8 -19.5t-22 -5.5h-64q-30 0 -30 25v11q0 25 30 25h64zM481 413q31 0 31 -31v-24q0 -30 -31 -30h-62q-31 0 -31 30v24
q0 31 31 31h62z" />
    <glyph glyph-name="uni2196" unicode="&#x2196;" horiz-adv-x="900" 
d="M592 554q0 -32 -32 -30l-230 4l172 -171q10 -10 10 -21q0 -12 -10 -22l-43 -43q-11 -11 -22 -11q-10 0 -21 11l-171 170l6 -228q2 -31 -29 -31h-93l8 455l455 7v-90zM535 281q10 10 21 10q12 0 22 -10l52 -53q11 -10 11 -22q0 -11 -10 -21l-44 -43q-10 -11 -22 -11
q-11 0 -21 11l-52 53q-11 11 -11 21q0 9 11 22zM664 152q10 10 21 10q12 0 22 -10l53 -52l-87 -87l-53 52q-11 11 -11 22q0 10 11 21z" />
    <glyph glyph-name="uni2197" unicode="&#x2197;" horiz-adv-x="900" 
d="M752 637l8 -455h-93q-30 0 -30 31l7 228l-171 -170q-11 -11 -22 -11q-10 0 -21 11l-43 43q-11 11 -11 22q0 10 11 21l172 171l-230 -4q-32 -2 -32 30v90zM182 152q10 10 21 10q12 0 22 -10l43 -44q11 -11 11 -21q0 -11 -11 -22l-52 -52l-87 87zM311 281q10 10 21 10
q12 0 22 -10l43 -43q10 -11 10 -22t-10 -21l-52 -53q-11 -11 -22 -11t-21 11l-44 43q-10 10 -10 21q0 12 11 22z" />
    <glyph glyph-name="uni2198" unicode="&#x2198;" horiz-adv-x="900" 
d="M752 27l-455 -7v90q0 32 32 30l230 -4l-172 171q-11 11 -11 21t11 21l43 43q11 11 21 11q11 0 22 -11l171 -170l-7 229q0 31 30 31h93zM302 522q10 10 21 10t22 -10l52 -53q10 -10 10 -22q0 -11 -10 -21l-43 -43q-11 -11 -22 -11q-10 0 -21 11l-52 53q-11 10 -11 22
q0 11 10 21zM268 598q11 -11 11 -21q0 -11 -11 -22l-43 -43q-11 -11 -22 -11q-10 0 -21 11l-53 52l87 87z" />
    <glyph glyph-name="uni2199" unicode="&#x2199;" horiz-adv-x="900" 
d="M222 482q31 0 29 -31l-6 -229l171 170q11 11 21 11q11 0 22 -11l43 -43q10 -10 10 -21t-10 -21l-172 -171l230 4q32 2 32 -30v-90l-455 7l-8 455h93zM544 522q10 10 21 10q12 0 22 -10l44 -43q10 -10 10 -21q0 -12 -11 -22l-52 -53q-11 -11 -22 -11q-10 0 -21 11l-43 43
q-11 11 -11 21q0 11 11 22zM760 564l-53 -52q-11 -11 -22 -11q-10 0 -21 11l-44 43q-11 11 -11 22q0 10 11 21l53 53z" />
    <glyph glyph-name="partialdiff" unicode="&#x2202;" horiz-adv-x="433" 
d="M67 695q85 0 147.5 -25t103.5 -71t61 -112t20 -150v-159q0 -88 -45 -139t-139 -51q-101 0 -142.5 43t-41.5 135v96q0 87 35.5 132t92.5 45q26 0 56 -15.5t50 -45.5v18q0 86 -44 133t-124 55q-30 3 -30 30v81zM201 314q-16 0 -24.5 -13t-8.5 -49v-94q0 -50 47 -50
q48 0 48 50v108q-29 48 -62 48z" />
    <glyph glyph-name="Delta" unicode="&#x2206;" horiz-adv-x="526" 
d="M514 85v-85h-502v85l169 570h162zM159 125h201l-98 417z" />
    <glyph glyph-name="product" unicode="&#x220f;" horiz-adv-x="589" 
d="M590 557q0 -31 -30 -31h-56v-711h-106q-30 0 -30 31v680h-147v-680q0 -31 -30 -31h-106v711h-56q-31 0 -31 31v98h592v-98z" />
    <glyph glyph-name="summation" unicode="&#x2211;" horiz-adv-x="423" 
d="M414 560q0 -31 -30 -31h-210l141 -231q7 -9 9 -17t2 -20v-38q0 -12 -2 -20t-9 -17l-148 -245h217q30 0 30 -31v-95h-406v82q0 12 2.5 20.5t8.5 18.5l178 301l-178 297q-6 10 -8.5 18.5t-2.5 20.5v82h406v-95z" />
    <glyph glyph-name="minus" unicode="&#x2212;" horiz-adv-x="418" 
d="M366 352q30 0 30 -30v-89h-344q-31 0 -31 31v88h345z" />
    <glyph glyph-name="uni2215" unicode="&#x2215;" horiz-adv-x="380" 
d="M10 0q-27 0 -27 20q0 8 4 16l287 565h96q27 0 27 -20q0 -8 -4 -16l-287 -565h-96z" />
    <glyph glyph-name="uni2219" unicode="&#x2219;" horiz-adv-x="214" 
d="M107 352q80 0 80 -70v-25q0 -33 -20.5 -51t-59.5 -18t-59.5 18t-20.5 51v25q0 70 80 70z" />
    <glyph glyph-name="radical" unicode="&#x221a;" horiz-adv-x="529" 
d="M581 601q0 -30 -31 -30h-75l-171 -571h-161l-137 488h117q27 0 33 -27l71 -357l135 552q7 27 34 27h185v-82z" />
    <glyph glyph-name="infinity" unicode="&#x221e;" horiz-adv-x="538" 
d="M374 438q74 0 110 -35t36 -109v-9q0 -71 -34.5 -107.5t-111.5 -36.5q-30 0 -58.5 13t-46.5 38q-17 -25 -46 -38t-59 -13q-76 0 -111 36.5t-35 107.5v9q0 74 36 109t110 35q30 0 59 -13.5t46 -36.5q17 23 46 36.5t59 13.5zM174 332q-18 0 -26.5 -9t-8.5 -24v-20
q0 -31 35 -31q36 0 36 32v19q0 15 -9 24t-27 9zM365 332q-18 0 -27 -9t-9 -24v-19q0 -16 8 -24t28 -8q34 0 34 31v20q0 15 -8 24t-26 9z" />
    <glyph glyph-name="integral" unicode="&#x222b;" horiz-adv-x="324" 
d="M255 695q39 0 86 -9v-83q0 -32 -31 -29q-9 1 -17.5 1.5t-16.5 0.5q-26 0 -39 -13.5t-13 -49.5v-534q0 -84 -43 -130t-125 -46q-25 0 -44 2t-42 7v84q0 31 31 29q9 -1 17.5 -1.5t16.5 -0.5q26 0 39 13.5t13 48.5v534q0 85 43.5 130.5t124.5 45.5z" />
    <glyph glyph-name="approxequal" unicode="&#x2248;" horiz-adv-x="418" 
d="M140 469q23 0 39.5 -4t32 -8.5t31.5 -8.5t38 -4q18 0 40 5.5t40 12.5q7 3 13 3q22 0 22 -27v-84q-37 -17 -62.5 -24.5t-55.5 -7.5q-23 0 -40 4t-32 8.5t-31 8.5t-38 4q-18 0 -40 -5.5t-40 -12.5q-5 -2 -13 -2q-23 0 -23 27v84q37 17 64 24t55 7zM140 292q23 0 39.5 -4
t32 -9t31.5 -9t38 -4q18 0 40 5.5t40 12.5q7 3 13 3q22 0 22 -27v-84q-35 -17 -61.5 -24.5t-56.5 -7.5q-23 0 -40 4t-32 8.5t-31 8.5t-38 4q-18 0 -40 -5.5t-40 -11.5q-8 -3 -13 -3q-23 0 -23 27v84q37 16 64 24t55 8z" />
    <glyph glyph-name="notequal" unicode="&#x2260;" horiz-adv-x="418" 
d="M337 492q28 0 28 -17q0 -5 -3 -11l-8 -15h13q29 0 29 -30v-89h-116l-37 -59h122q31 0 31 -30v-89h-228l-26 -44h-63q-28 0 -28 18q0 5 3 11l9 15h-14q-16 0 -22 7.5t-6 22.5v89h116l37 59h-122q-31 0 -31 30v89h227l27 43h62z" />
    <glyph glyph-name="lessequal" unicode="&#x2264;" horiz-adv-x="418" 
d="M18 309v103l381 169v-112q0 -26 -24 -36l-175 -72l175 -73q24 -11 24 -36v-112zM18 89q0 31 31 31h350v-89q0 -31 -31 -31h-350v89z" />
    <glyph glyph-name="greaterequal" unicode="&#x2265;" horiz-adv-x="418" 
d="M399 412v-103l-381 -169v112q0 25 24 36l176 73l-176 72q-24 10 -24 36v112zM368 120q31 0 31 -31v-89h-350q-31 0 -31 31v89h350z" />
    <glyph glyph-name="lozenge" unicode="&#x25ca;" horiz-adv-x="550" 
d="M312 683q23 0 36 -21l197 -319l-209 -343h-98q-23 0 -36 21l-197 322l209 340h98zM153 343l122 -220l121 220l-121 219z" />
    <glyph glyph-name="uniFB00" unicode="&#xfb00;" horiz-adv-x="774" 
d="M365 424q0 -29 -29 -29h-163v-81h108q29 0 29 -29v-83h-137v-173q0 -29 -29 -29h-100v511h321v-87zM752 424q0 -29 -29 -29h-163v-81h108q29 0 29 -29v-83h-137v-173q0 -29 -29 -29h-100v511h321v-87z" />
    <glyph glyph-name="fi" unicode="&#xfb01;" horiz-adv-x="603" 
d="M365 424q0 -29 -29 -29h-163v-81h108q29 0 29 -29v-83h-137v-173q0 -29 -29 -29h-100v511h321v-87zM531 511q29 0 29 -29v-482h-129v511h100z" />
    <glyph glyph-name="fl" unicode="&#xfb02;" horiz-adv-x="767" 
d="M365 424q0 -29 -29 -29h-163v-81h108q29 0 29 -29v-83h-137v-173q0 -29 -29 -29h-100v511h321v-87zM531 511q29 0 29 -29v-366h166q29 0 29 -29v-87h-324v511h100z" />
    <glyph glyph-name="uniFB03" unicode="&#xfb03;" horiz-adv-x="990" 
d="M365 424q0 -29 -29 -29h-163v-81h108q29 0 29 -29v-83h-137v-173q0 -29 -29 -29h-100v511h321v-87zM752 424q0 -29 -29 -29h-163v-81h108q29 0 29 -29v-83h-137v-173q0 -29 -29 -29h-100v511h321v-87zM918 511q29 0 29 -29v-482h-129v511h100z" />
    <glyph glyph-name="uniFB04" unicode="&#xfb04;" horiz-adv-x="1154" 
d="M365 424q0 -29 -29 -29h-163v-81h108q29 0 29 -29v-83h-137v-173q0 -29 -29 -29h-100v511h321v-87zM752 424q0 -29 -29 -29h-163v-81h108q29 0 29 -29v-83h-137v-173q0 -29 -29 -29h-100v511h321v-87zM918 511q29 0 29 -29v-366h166q29 0 29 -29v-87h-324v511h100z" />
    <glyph glyph-name="uniFB06" unicode="&#xfb06;" horiz-adv-x="814" 
d="M201 523q31 0 65 -3t70 -10l-1 -86q0 -27 -22 -27q-6 0 -9 1q-28 5 -54.5 8t-44.5 3q-29 0 -40.5 -9.5t-11.5 -26.5v-11q0 -14 7.5 -22t29.5 -14l69 -22q31 -10 52.5 -22.5t35 -29.5t19.5 -40t6 -54v-18q0 -74 -43.5 -113t-142.5 -39q-26 0 -67 5t-81 14l1 87q0 26 23 26
q5 0 8 -1q29 -6 56.5 -10.5t47.5 -4.5q39 0 53.5 10t14.5 28v14q0 14 -6.5 22.5t-25.5 14.5l-71 22q-32 10 -54 23t-35.5 30t-19.5 40t-6 53v10q0 73 41.5 112.5t135.5 39.5zM798 424q0 -29 -29 -29h-111v-366q0 -29 -28 -29h-100v395h-112q-29 0 -29 29v87h409v-87z" />
    <glyph glyph-name="uniFEFF" unicode="&#xfeff;" horiz-adv-x="0" 
 />
    <glyph glyph-name="Ldot.latn_CAT" horiz-adv-x="435" 
d="M154 655q31 0 31 -31v-495h209q30 0 30 -30v-99h-380v655h110zM326 463q79 0 79 -69v-25q0 -32 -20.5 -50t-58.5 -18t-58.5 18t-20.5 50v25q0 35 20.5 52t58.5 17z" />
    <glyph glyph-name="parenleft.numr" horiz-adv-x="400" 
d="M292 648q0 -14 -7 -21t-21 -12q-17 -5 -24 -17t-7 -35v-330q0 -22 7 -34.5t24 -17.5q14 -4 21 -11t7 -21v-76q-95 -1 -140 40t-45 135v300q0 100 45.5 139t139.5 37v-76z" />
    <glyph glyph-name="parenright.numr" horiz-adv-x="400" 
d="M107 149q0 14 7.5 21t21.5 11q17 5 23.5 17.5t6.5 34.5v330q0 23 -6.5 35t-23.5 17q-14 5 -21.5 12t-7.5 21v76q97 2 141 -38t44 -138v-300q0 -95 -44 -134.5t-141 -40.5v76z" />
    <glyph glyph-name="plus.numr" horiz-adv-x="400" 
d="M226 526q30 0 30 -30v-62h59q30 0 30 -31v-72h-89v-85h-82q-30 0 -30 31v54h-60q-30 0 -30 31v72h90v92h82z" />
    <glyph glyph-name="zero.numr" horiz-adv-x="400" 
d="M200 610q74 0 113 -36.5t39 -109.5v-144q0 -147 -152 -147q-76 0 -114.5 37.5t-38.5 109.5v144q0 73 39 109.5t114 36.5zM200 501q-34 0 -34 -38v-143q0 -39 34 -39t34 39v143q0 38 -34 38z" />
    <glyph glyph-name="one.numr" horiz-adv-x="400" 
d="M273 289h47q26 0 26 -25v-83h-274v83q0 25 26 25h57v192h-1l-53 -22q-4 -2 -12 -2q-16 0 -20 18l-18 75l139 52h83v-313z" />
    <glyph glyph-name="two.numr" horiz-adv-x="400" 
d="M185 610q78 0 115 -33t37 -96v-14q0 -33 -14 -62.5t-46 -60.5l-56 -55h94q26 0 26 -25v-83h-281v65q0 21 12 34l122 135q21 25 21 47v9q0 16 -11 24.5t-37 8.5q-11 0 -29 -2.5t-38 -7.5q-3 -1 -8 -1q-21 0 -21 24v76q30 8 58.5 12.5t55.5 4.5z" />
    <glyph glyph-name="three.numr" horiz-adv-x="400" 
d="M189 610q69 0 106.5 -30.5t37.5 -78.5v-12q0 -28 -17.5 -53t-51.5 -36q35 -9 56 -36t21 -60v-10q0 -52 -39 -86.5t-111 -34.5q-27 0 -58 2.5t-59 7.5v76q0 27 27 24q22 -3 42 -4.5t33 -1.5q23 0 32 7.5t9 24.5v7q0 34 -40 34h-53q-28 0 -28 26v41q0 26 28 26h50
q35 0 35 32v7q0 26 -35 26q-13 0 -32.5 -2t-40.5 -5q-2 0 -3 -0.5t-3 -0.5q-21 0 -21 25v75q32 5 60 7.5t55 2.5z" />
    </font>
</defs>
</svg>
